<svg viewBox="0 0 1513.5 400" xmlns="http://www.w3.org/2000/svg"><g><g><g><g><g><line x1="51.53200149536133" y1="376.8699998855591" x2="46.53200149536133" y2="376.8699998855591" style="visibility: inherit;" fill="rgb(0, 0, 0)" stroke="rgb(204, 204, 204)" stroke-width="1px"></line><line x1="51.53200149536133" y1="339.1829998970033" x2="46.53200149536133" y2="339.1829998970033" style="visibility: inherit;" fill="rgb(0, 0, 0)" stroke="rgb(204, 204, 204)" stroke-width="1px"></line><line x1="51.53200149536133" y1="301.4959999084475" x2="46.53200149536133" y2="301.4959999084475" style="visibility: inherit;" fill="rgb(0, 0, 0)" stroke="rgb(204, 204, 204)" stroke-width="1px"></line><line x1="51.53200149536133" y1="263.80899991989145" x2="46.53200149536133" y2="263.80899991989145" style="visibility: inherit;" fill="rgb(0, 0, 0)" stroke="rgb(204, 204, 204)" stroke-width="1px"></line><line x1="51.53200149536133" y1="226.12199993133564" x2="46.53200149536133" y2="226.12199993133564" style="visibility: inherit;" fill="rgb(0, 0, 0)" stroke="rgb(204, 204, 204)" stroke-width="1px"></line><line x1="51.53200149536133" y1="188.43499994277954" x2="46.53200149536133" y2="188.43499994277954" style="visibility: inherit;" fill="rgb(0, 0, 0)" stroke="rgb(204, 204, 204)" stroke-width="1px"></line><line x1="51.53200149536133" y1="150.74799995422376" x2="46.53200149536133" y2="150.74799995422376" style="visibility: inherit;" fill="rgb(0, 0, 0)" stroke="rgb(204, 204, 204)" stroke-width="1px"></line><line x1="51.53200149536133" y1="113.06099996566799" x2="46.53200149536133" y2="113.06099996566799" style="visibility: inherit;" fill="rgb(0, 0, 0)" stroke="rgb(204, 204, 204)" stroke-width="1px"></line><line x1="51.53200149536133" y1="75.37399997711188" x2="46.53200149536133" y2="75.37399997711188" style="visibility: inherit;" fill="rgb(0, 0, 0)" stroke="rgb(204, 204, 204)" stroke-width="1px"></line><line x1="51.53200149536133" y1="37.68699998855611" x2="46.53200149536133" y2="37.68699998855611" style="visibility: inherit;" fill="rgb(0, 0, 0)" stroke="rgb(204, 204, 204)" stroke-width="1px"></line><line x1="51.53200149536133" y1="0" x2="46.53200149536133" y2="0" style="visibility: inherit;" fill="rgb(0, 0, 0)" stroke="rgb(204, 204, 204)" stroke-width="1px"></line></g><g transform="translate(41.53200149536133, 0)"><text style="text-anchor: end; visibility: hidden; font-family: Roboto, sans-serif; font-size: 12px; font-weight: 200;" x="0" y="376.8699998855591" dx="0em" dy="0.3em" fill="rgb(255, 255, 255)" stroke="none" stroke-width="1px">8.8</text><text style="text-anchor: end; visibility: inherit; font-family: Roboto, sans-serif; font-size: 12px; font-weight: 200;" x="0" y="339.1829998970033" dx="0em" dy="0.3em" fill="rgb(255, 255, 255)" stroke="none" stroke-width="1px">9</text><text style="text-anchor: end; visibility: inherit; font-family: Roboto, sans-serif; font-size: 12px; font-weight: 200;" x="0" y="301.4959999084475" dx="0em" dy="0.3em" fill="rgb(255, 255, 255)" stroke="none" stroke-width="1px">9.2</text><text style="text-anchor: end; visibility: inherit; font-family: Roboto, sans-serif; font-size: 12px; font-weight: 200;" x="0" y="263.80899991989145" dx="0em" dy="0.3em" fill="rgb(255, 255, 255)" stroke="none" stroke-width="1px">9.4</text><text style="text-anchor: end; visibility: inherit; font-family: Roboto, sans-serif; font-size: 12px; font-weight: 200;" x="0" y="226.12199993133564" dx="0em" dy="0.3em" fill="rgb(255, 255, 255)" stroke="none" stroke-width="1px">9.6</text><text style="text-anchor: end; visibility: inherit; font-family: Roboto, sans-serif; font-size: 12px; font-weight: 200;" x="0" y="188.43499994277954" dx="0em" dy="0.3em" fill="rgb(255, 255, 255)" stroke="none" stroke-width="1px">9.8</text><text style="text-anchor: end; visibility: inherit; font-family: Roboto, sans-serif; font-size: 12px; font-weight: 200;" x="0" y="150.74799995422376" dx="0em" dy="0.3em" fill="rgb(255, 255, 255)" stroke="none" stroke-width="1px">10</text><text style="text-anchor: end; visibility: inherit; font-family: Roboto, sans-serif; font-size: 12px; font-weight: 200;" x="0" y="113.06099996566799" dx="0em" dy="0.3em" fill="rgb(255, 255, 255)" stroke="none" stroke-width="1px">10.2</text><text style="text-anchor: end; visibility: inherit; font-family: Roboto, sans-serif; font-size: 12px; font-weight: 200;" x="0" y="75.37399997711188" dx="0em" dy="0.3em" fill="rgb(255, 255, 255)" stroke="none" stroke-width="1px">10.4</text><text style="text-anchor: end; visibility: inherit; font-family: Roboto, sans-serif; font-size: 12px; font-weight: 200;" x="0" y="37.68699998855611" dx="0em" dy="0.3em" fill="rgb(255, 255, 255)" stroke="none" stroke-width="1px">10.6</text><text style="text-anchor: end; visibility: hidden; font-family: Roboto, sans-serif; font-size: 12px; font-weight: 200;" x="0" y="0" dx="0em" dy="0.3em" fill="rgb(255, 255, 255)" stroke="none" stroke-width="1px">10.8</text></g><line x1="51.53200149536133" y1="0" x2="51.53200149536133" y2="376.8699998855591" fill="rgb(0, 0, 0)" stroke="rgb(204, 204, 204)" stroke-width="1px"></line></g></g><g transform="translate(51, 0)" clip-path="url(#clip_0)"><clipPath id="clip_0"><rect width="1461" height="376"></rect></clipPath><g><g><g><line x1="0" y1="0" x2="0" y2="376.8699998855591" fill="rgb(0, 0, 0)" stroke="rgb(189, 189, 189)" stroke-width="1px" opacity="0.25"></line><line x1="112.45907680804912" y1="0" x2="112.45907680804912" y2="376.8699998855591" fill="rgb(0, 0, 0)" stroke="rgb(189, 189, 189)" stroke-width="1px" opacity="0.25"></line><line x1="224.91815361609824" y1="0" x2="224.91815361609824" y2="376.8699998855591" fill="rgb(0, 0, 0)" stroke="rgb(189, 189, 189)" stroke-width="1px" opacity="0.25"></line><line x1="337.37723042414734" y1="0" x2="337.37723042414734" y2="376.8699998855591" fill="rgb(0, 0, 0)" stroke="rgb(189, 189, 189)" stroke-width="1px" opacity="0.25"></line><line x1="449.8363072321965" y1="0" x2="449.8363072321965" y2="376.8699998855591" fill="rgb(0, 0, 0)" stroke="rgb(189, 189, 189)" stroke-width="1px" opacity="0.25"></line><line x1="562.2953840402456" y1="0" x2="562.2953840402456" y2="376.8699998855591" fill="rgb(0, 0, 0)" stroke="rgb(189, 189, 189)" stroke-width="1px" opacity="0.25"></line><line x1="674.7544608482947" y1="0" x2="674.7544608482947" y2="376.8699998855591" fill="rgb(0, 0, 0)" stroke="rgb(189, 189, 189)" stroke-width="1px" opacity="0.25"></line><line x1="787.2135376563439" y1="0" x2="787.2135376563439" y2="376.8699998855591" fill="rgb(0, 0, 0)" stroke="rgb(189, 189, 189)" stroke-width="1px" opacity="0.25"></line><line x1="899.672614464393" y1="0" x2="899.672614464393" y2="376.8699998855591" fill="rgb(0, 0, 0)" stroke="rgb(189, 189, 189)" stroke-width="1px" opacity="0.25"></line><line x1="1012.1316912724421" y1="0" x2="1012.1316912724421" y2="376.8699998855591" fill="rgb(0, 0, 0)" stroke="rgb(189, 189, 189)" stroke-width="1px" opacity="0.25"></line><line x1="1124.590768080491" y1="0" x2="1124.590768080491" y2="376.8699998855591" fill="rgb(0, 0, 0)" stroke="rgb(189, 189, 189)" stroke-width="1px" opacity="0.25"></line><line x1="1237.0498448885403" y1="0" x2="1237.0498448885403" y2="376.8699998855591" fill="rgb(0, 0, 0)" stroke="rgb(189, 189, 189)" stroke-width="1px" opacity="0.25"></line><line x1="1349.5089216965894" y1="0" x2="1349.5089216965894" y2="376.8699998855591" fill="rgb(0, 0, 0)" stroke="rgb(189, 189, 189)" stroke-width="1px" opacity="0.25"></line><line x1="1461.9679985046387" y1="0" x2="1461.9679985046387" y2="376.8699998855591" fill="rgb(0, 0, 0)" stroke="rgb(189, 189, 189)" stroke-width="1px" opacity="0.25"></line></g><g><line x1="0" y1="376.8699998855591" x2="1461.9679985046387" y2="376.8699998855591" fill="rgb(0, 0, 0)" stroke="rgb(189, 189, 189)" stroke-width="1px" opacity="0.25"></line><line x1="0" y1="339.1829998970033" x2="1461.9679985046387" y2="339.1829998970033" fill="rgb(0, 0, 0)" stroke="rgb(189, 189, 189)" stroke-width="1px" opacity="0.25"></line><line x1="0" y1="301.4959999084475" x2="1461.9679985046387" y2="301.4959999084475" fill="rgb(0, 0, 0)" stroke="rgb(189, 189, 189)" stroke-width="1px" opacity="0.25"></line><line x1="0" y1="263.80899991989145" x2="1461.9679985046387" y2="263.80899991989145" fill="rgb(0, 0, 0)" stroke="rgb(189, 189, 189)" stroke-width="1px" opacity="0.25"></line><line x1="0" y1="226.12199993133564" x2="1461.9679985046387" y2="226.12199993133564" fill="rgb(0, 0, 0)" stroke="rgb(189, 189, 189)" stroke-width="1px" opacity="0.25"></line><line x1="0" y1="188.43499994277954" x2="1461.9679985046387" y2="188.43499994277954" fill="rgb(0, 0, 0)" stroke="rgb(189, 189, 189)" stroke-width="1px" opacity="0.25"></line><line x1="0" y1="150.74799995422376" x2="1461.9679985046387" y2="150.74799995422376" fill="rgb(0, 0, 0)" stroke="rgb(189, 189, 189)" stroke-width="1px" opacity="0.25"></line><line x1="0" y1="113.06099996566799" x2="1461.9679985046387" y2="113.06099996566799" fill="rgb(0, 0, 0)" stroke="rgb(189, 189, 189)" stroke-width="1px" opacity="0.25"></line><line x1="0" y1="75.37399997711188" x2="1461.9679985046387" y2="75.37399997711188" fill="rgb(0, 0, 0)" stroke="rgb(189, 189, 189)" stroke-width="1px" opacity="0.25"></line><line x1="0" y1="37.68699998855611" x2="1461.9679985046387" y2="37.68699998855611" fill="rgb(0, 0, 0)" stroke="rgb(189, 189, 189)" stroke-width="1px" opacity="0.25"></line><line x1="0" y1="0" x2="1461.9679985046387" y2="0" fill="rgb(0, 0, 0)" stroke="rgb(189, 189, 189)" stroke-width="1px" opacity="0.25"></line></g></g></g><g><g><line x1="0" y1="2035.0979993820192" x2="1461.9679985046387" y2="2035.0979993820192" fill="rgb(0, 0, 0)" stroke="rgb(153, 153, 153)" stroke-width="1.5px"></line></g></g><g><g><line x1="112.45907680804912" y1="0" x2="112.45907680804912" y2="376.8699998855591" fill="rgb(0, 0, 0)" stroke="rgb(153, 153, 153)" stroke-width="1.5px"></line></g></g><g><g><g><g><g><path style="fill: none;" stroke="rgb(255, 112, 67)" stroke-width="2px" d="M112.45907680804912,119.22511837009183L134.45107405051206,63.20379417609467L155.3497191573412,32.15061481297343L177.87277315139767,62.93580364783921L200.30211124811416,48.09313990672808L221.48190404696345,73.12362931576881L243.47390128942638,63.56981805516558L266.2156257106096,76.03556341275379L287.61408893658563,106.75441464799817L309.60608617904853,84.14075604615692L332.69143555714527,123.4711467091494L352.8715921177008,87.0037005300476L375.3321688468639,86.46225504365326L397.699029678687,119.7936534988661L418.56643615306945,82.11885114878402L441.21444467691265,82.82439953346066L463.86245320075597,117.99509566850595L484.91729146981845,104.21637201159474L507.7214931558951,135.98319574272952L531.275422020692,101.10151505489678L552.7988397764548,159.32796189350267L574.7908370189177,123.17091663617876L597.3763682778676,155.5222531745366L618.2125361198033,191.9358944687419L640.7980673787532,190.77186730233657L663.4460759025964,193.90404947948673L684.500914171659,152.23595706642735L707.3675931226289,175.857156544172L730.0780789113655,139.98064111647994L751.820167094255,218.0755621114481L773.9058802340581,237.0857295754792L796.6476046552413,172.44788091366743L819.0769427519579,253.98193689961636L841.0689399944207,280.49059798772544L863.7481871507107,226.07776076275L884.6468322575396,210.6418755624729L907.3260794138297,212.20996297858093L930.0678038350128,210.51741975478822L951.2475966338623,239.9484679640041L974.1142755848321,250.71545031485633L996.9184772709087,262.2793235510901L1018.0670314373114,192.186590547286L1040.8712331233878,192.12548098551306L1064.7375483126516,211.06339446500036L1085.8548638466077,272.45989231905736L1108.752781430024,276.67584887982383L1131.5882217485475,257.5622579848206L1152.7367759149502,290.7394229294607L1175.6034548659202,287.1240433580938L1198.4388951844433,287.3731260169701L1219.681165248186,285.5123177065247L1242.547844199156,268.5522886427047L1265.4457617825726,274.69119234330174L1287.3128044952489,339.4972841098387L1310.3044379760056,295.39585990063L1333.0774010296357,344.0488050446029L1354.0072847689112,312.2404502708223L1376.7802478225412,288.4672312131145L1399.6469267735113,336.9420217226648L1420.8267195723604,307.5922989710141" fill="none"></path></g></g></g></g><g opacity="0.2"><g><g><g><path style="fill: none;" stroke="rgb(255, 112, 67)" stroke-width="2px" d="M112.45907680804912,119.22511837009183L134.45107405051206,23.988867240297118L155.3497191573412,-4.802668629141456L177.87277315139767,110.12949813168866L200.30211124811416,21.775612827364462L221.48190404696345,121.71206444191508L243.47390128942638,43.900249909421696L266.2156257106096,102.72688453702035L287.61408893658563,174.29967936277484L309.60608617904853,33.504818923312946L332.69143555714527,212.64975714711176L352.8715921177008,3.5955140989830827L375.3321688468639,85.2163689478552L397.699029678687,196.81337911160693L418.56643615306945,-5.192809529634863L441.21444467691265,84.46286328421225L463.86245320075597,199.78732741297284L484.91729146981845,72.14080834868396L507.7214931558951,209.9850822173484L531.275422020692,19.80370306176605L552.7988397764548,295.0812640467097L574.7908370189177,38.85160022795612L597.3763682778676,230.97919124551157L618.2125361198033,276.87780358775984L640.7980673787532,188.05632426082678L663.4460759025964,201.21149444955057L684.500914171659,55.01953513191342L707.3675931226289,230.96966684766443L730.0780789113655,56.272622418482065L751.820167094255,400.29117707304243L773.9058802340581,281.4417872127396L796.6476046552413,21.628613630402874L819.0769427519579,444.2259664025814L841.0689399944207,342.3436623372972L863.7481871507107,99.11516099113528L884.6468322575396,174.6249465345358L907.3260794138297,215.86882391382682L930.0678038350128,206.5681595632804L951.2475966338623,308.62082455609465L974.1142755848321,275.8383862830828L996.9184772709087,289.2616772564847L1018.0670314373114,28.636953095323356L1040.8712331233878,191.9828920525269L1064.7375483126516,255.2518496005295L1085.8548638466077,415.71836541235956L1108.752781430024,286.5130798022946L1131.5882217485475,212.96388257044777L1152.7367759149502,368.15280374124126L1175.6034548659202,278.6881580011963L1198.4388951844433,287.9543188727493L1219.681165248186,281.17043172690586L1242.547844199156,228.97888799199148L1265.4457617825726,289.01530085179724L1287.3128044952489,490.71149729895745L1310.3044379760056,192.492537190159L1333.0774010296357,457.5723433707271L1354.0072847689112,238.02095595570694L1376.7802478225412,232.99638682728886L1399.6469267735113,450.04986612768056L1420.8267195723604,239.10961260019752" fill="none"></path></g></g></g></g></g></g><g transform="translate(51, 376)" clip-path="url(#clip_1)"><clipPath id="clip_1"><rect width="1461" height="23"></rect></clipPath><g><g><line x1="0" y1="0" x2="0" y2="5" style="visibility: inherit;" fill="rgb(0, 0, 0)" stroke="rgb(204, 204, 204)" stroke-width="1px"></line><line x1="112.45907680804912" y1="0" x2="112.45907680804912" y2="5" style="visibility: inherit;" fill="rgb(0, 0, 0)" stroke="rgb(204, 204, 204)" stroke-width="1px"></line><line x1="224.91815361609824" y1="0" x2="224.91815361609824" y2="5" style="visibility: inherit;" fill="rgb(0, 0, 0)" stroke="rgb(204, 204, 204)" stroke-width="1px"></line><line x1="337.37723042414734" y1="0" x2="337.37723042414734" y2="5" style="visibility: inherit;" fill="rgb(0, 0, 0)" stroke="rgb(204, 204, 204)" stroke-width="1px"></line><line x1="449.8363072321965" y1="0" x2="449.8363072321965" y2="5" style="visibility: inherit;" fill="rgb(0, 0, 0)" stroke="rgb(204, 204, 204)" stroke-width="1px"></line><line x1="562.2953840402456" y1="0" x2="562.2953840402456" y2="5" style="visibility: inherit;" fill="rgb(0, 0, 0)" stroke="rgb(204, 204, 204)" stroke-width="1px"></line><line x1="674.7544608482947" y1="0" x2="674.7544608482947" y2="5" style="visibility: inherit;" fill="rgb(0, 0, 0)" stroke="rgb(204, 204, 204)" stroke-width="1px"></line><line x1="787.2135376563439" y1="0" x2="787.2135376563439" y2="5" style="visibility: inherit;" fill="rgb(0, 0, 0)" stroke="rgb(204, 204, 204)" stroke-width="1px"></line><line x1="899.672614464393" y1="0" x2="899.672614464393" y2="5" style="visibility: inherit;" fill="rgb(0, 0, 0)" stroke="rgb(204, 204, 204)" stroke-width="1px"></line><line x1="1012.1316912724421" y1="0" x2="1012.1316912724421" y2="5" style="visibility: inherit;" fill="rgb(0, 0, 0)" stroke="rgb(204, 204, 204)" stroke-width="1px"></line><line x1="1124.590768080491" y1="0" x2="1124.590768080491" y2="5" style="visibility: inherit;" fill="rgb(0, 0, 0)" stroke="rgb(204, 204, 204)" stroke-width="1px"></line><line x1="1237.0498448885403" y1="0" x2="1237.0498448885403" y2="5" style="visibility: inherit;" fill="rgb(0, 0, 0)" stroke="rgb(204, 204, 204)" stroke-width="1px"></line><line x1="1349.5089216965894" y1="0" x2="1349.5089216965894" y2="5" style="visibility: inherit;" fill="rgb(0, 0, 0)" stroke="rgb(204, 204, 204)" stroke-width="1px"></line><line x1="1461.9679985046387" y1="0" x2="1461.9679985046387" y2="5" style="visibility: inherit;" fill="rgb(0, 0, 0)" stroke="rgb(204, 204, 204)" stroke-width="1px"></line></g><g transform="translate(0, 8)"><text style="text-anchor: middle; visibility: hidden; font-family: Roboto, sans-serif; font-size: 12px; font-weight: 200;" x="0" y="0" dx="0em" dy="0.95em" fill="rgb(255, 255, 255)" stroke="none" stroke-width="1px">-0.001</text><text style="text-anchor: middle; visibility: inherit; font-family: Roboto, sans-serif; font-size: 12px; font-weight: 200;" x="112.45907680804912" y="0" dx="0em" dy="0.95em" fill="rgb(255, 255, 255)" stroke="none" stroke-width="1px">0</text><text style="text-anchor: middle; visibility: inherit; font-family: Roboto, sans-serif; font-size: 12px; font-weight: 200;" x="224.91815361609824" y="0" dx="0em" dy="0.95em" fill="rgb(255, 255, 255)" stroke="none" stroke-width="1px">0.001</text><text style="text-anchor: middle; visibility: inherit; font-family: Roboto, sans-serif; font-size: 12px; font-weight: 200;" x="337.37723042414734" y="0" dx="0em" dy="0.95em" fill="rgb(255, 255, 255)" stroke="none" stroke-width="1px">0.002</text><text style="text-anchor: middle; visibility: inherit; font-family: Roboto, sans-serif; font-size: 12px; font-weight: 200;" x="449.8363072321965" y="0" dx="0em" dy="0.95em" fill="rgb(255, 255, 255)" stroke="none" stroke-width="1px">0.003</text><text style="text-anchor: middle; visibility: inherit; font-family: Roboto, sans-serif; font-size: 12px; font-weight: 200;" x="562.2953840402456" y="0" dx="0em" dy="0.95em" fill="rgb(255, 255, 255)" stroke="none" stroke-width="1px">0.004</text><text style="text-anchor: middle; visibility: inherit; font-family: Roboto, sans-serif; font-size: 12px; font-weight: 200;" x="674.7544608482947" y="0" dx="0em" dy="0.95em" fill="rgb(255, 255, 255)" stroke="none" stroke-width="1px">0.005</text><text style="text-anchor: middle; visibility: inherit; font-family: Roboto, sans-serif; font-size: 12px; font-weight: 200;" x="787.2135376563439" y="0" dx="0em" dy="0.95em" fill="rgb(255, 255, 255)" stroke="none" stroke-width="1px">0.006</text><text style="text-anchor: middle; visibility: inherit; font-family: Roboto, sans-serif; font-size: 12px; font-weight: 200;" x="899.672614464393" y="0" dx="0em" dy="0.95em" fill="rgb(255, 255, 255)" stroke="none" stroke-width="1px">0.007</text><text style="text-anchor: middle; visibility: inherit; font-family: Roboto, sans-serif; font-size: 12px; font-weight: 200;" x="1012.1316912724421" y="0" dx="0em" dy="0.95em" fill="rgb(255, 255, 255)" stroke="none" stroke-width="1px">0.008</text><text style="text-anchor: middle; visibility: inherit; font-family: Roboto, sans-serif; font-size: 12px; font-weight: 200;" x="1124.590768080491" y="0" dx="0em" dy="0.95em" fill="rgb(255, 255, 255)" stroke="none" stroke-width="1px">0.009</text><text style="text-anchor: middle; visibility: inherit; font-family: Roboto, sans-serif; font-size: 12px; font-weight: 200;" x="1237.0498448885403" y="0" dx="0em" dy="0.95em" fill="rgb(255, 255, 255)" stroke="none" stroke-width="1px">0.01</text><text style="text-anchor: middle; visibility: inherit; font-family: Roboto, sans-serif; font-size: 12px; font-weight: 200;" x="1349.5089216965894" y="0" dx="0em" dy="0.95em" fill="rgb(255, 255, 255)" stroke="none" stroke-width="1px">0.011</text><text style="text-anchor: middle; visibility: hidden; font-family: Roboto, sans-serif; font-size: 12px; font-weight: 200;" x="1461.9679985046387" y="0" dx="0em" dy="0.95em" fill="rgb(255, 255, 255)" stroke="none" stroke-width="1px">0.012</text></g><line x1="0" y1="0" x2="1461.9679985046387" y2="0" fill="rgb(0, 0, 0)" stroke="rgb(204, 204, 204)" stroke-width="1px"></line></g></g></g></g></svg>