<svg viewBox="0 0 1513.5 400" xmlns="http://www.w3.org/2000/svg"><g><g><g><g><g><line x1="41.149001121520996" y1="376.8699998855591" x2="36.149001121520996" y2="376.8699998855591" style="visibility: inherit;" fill="rgb(0, 0, 0)" stroke="rgb(204, 204, 204)" stroke-width="1px"></line><line x1="41.149001121520996" y1="334.99555545383026" x2="36.149001121520996" y2="334.99555545383026" style="visibility: inherit;" fill="rgb(0, 0, 0)" stroke="rgb(204, 204, 204)" stroke-width="1px"></line><line x1="41.149001121520996" y1="293.1211110221015" x2="36.149001121520996" y2="293.1211110221015" style="visibility: inherit;" fill="rgb(0, 0, 0)" stroke="rgb(204, 204, 204)" stroke-width="1px"></line><line x1="41.149001121520996" y1="251.24666659037274" x2="36.149001121520996" y2="251.24666659037274" style="visibility: inherit;" fill="rgb(0, 0, 0)" stroke="rgb(204, 204, 204)" stroke-width="1px"></line><line x1="41.149001121520996" y1="209.37222215864395" x2="36.149001121520996" y2="209.37222215864395" style="visibility: inherit;" fill="rgb(0, 0, 0)" stroke="rgb(204, 204, 204)" stroke-width="1px"></line><line x1="41.149001121520996" y1="167.49777772691513" x2="36.149001121520996" y2="167.49777772691513" style="visibility: inherit;" fill="rgb(0, 0, 0)" stroke="rgb(204, 204, 204)" stroke-width="1px"></line><line x1="41.149001121520996" y1="125.62333329518637" x2="36.149001121520996" y2="125.62333329518637" style="visibility: inherit;" fill="rgb(0, 0, 0)" stroke="rgb(204, 204, 204)" stroke-width="1px"></line><line x1="41.149001121520996" y1="83.74888886345757" x2="36.149001121520996" y2="83.74888886345757" style="visibility: inherit;" fill="rgb(0, 0, 0)" stroke="rgb(204, 204, 204)" stroke-width="1px"></line><line x1="41.149001121520996" y1="41.874444431728804" x2="36.149001121520996" y2="41.874444431728804" style="visibility: inherit;" fill="rgb(0, 0, 0)" stroke="rgb(204, 204, 204)" stroke-width="1px"></line><line x1="41.149001121520996" y1="0" x2="36.149001121520996" y2="0" style="visibility: inherit;" fill="rgb(0, 0, 0)" stroke="rgb(204, 204, 204)" stroke-width="1px"></line></g><g transform="translate(31.149001121520996, 0)"><text style="text-anchor: end; visibility: hidden; font-family: Roboto, sans-serif; font-size: 12px; font-weight: 200;" x="0" y="376.8699998855591" dx="0em" dy="0.3em" fill="rgb(255, 255, 255)" stroke="none" stroke-width="1px">125</text><text style="text-anchor: end; visibility: inherit; font-family: Roboto, sans-serif; font-size: 12px; font-weight: 200;" x="0" y="334.99555545383026" dx="0em" dy="0.3em" fill="rgb(255, 255, 255)" stroke="none" stroke-width="1px">130</text><text style="text-anchor: end; visibility: inherit; font-family: Roboto, sans-serif; font-size: 12px; font-weight: 200;" x="0" y="293.1211110221015" dx="0em" dy="0.3em" fill="rgb(255, 255, 255)" stroke="none" stroke-width="1px">135</text><text style="text-anchor: end; visibility: inherit; font-family: Roboto, sans-serif; font-size: 12px; font-weight: 200;" x="0" y="251.24666659037274" dx="0em" dy="0.3em" fill="rgb(255, 255, 255)" stroke="none" stroke-width="1px">140</text><text style="text-anchor: end; visibility: inherit; font-family: Roboto, sans-serif; font-size: 12px; font-weight: 200;" x="0" y="209.37222215864395" dx="0em" dy="0.3em" fill="rgb(255, 255, 255)" stroke="none" stroke-width="1px">145</text><text style="text-anchor: end; visibility: inherit; font-family: Roboto, sans-serif; font-size: 12px; font-weight: 200;" x="0" y="167.49777772691513" dx="0em" dy="0.3em" fill="rgb(255, 255, 255)" stroke="none" stroke-width="1px">150</text><text style="text-anchor: end; visibility: inherit; font-family: Roboto, sans-serif; font-size: 12px; font-weight: 200;" x="0" y="125.62333329518637" dx="0em" dy="0.3em" fill="rgb(255, 255, 255)" stroke="none" stroke-width="1px">155</text><text style="text-anchor: end; visibility: inherit; font-family: Roboto, sans-serif; font-size: 12px; font-weight: 200;" x="0" y="83.74888886345757" dx="0em" dy="0.3em" fill="rgb(255, 255, 255)" stroke="none" stroke-width="1px">160</text><text style="text-anchor: end; visibility: inherit; font-family: Roboto, sans-serif; font-size: 12px; font-weight: 200;" x="0" y="41.874444431728804" dx="0em" dy="0.3em" fill="rgb(255, 255, 255)" stroke="none" stroke-width="1px">165</text><text style="text-anchor: end; visibility: hidden; font-family: Roboto, sans-serif; font-size: 12px; font-weight: 200;" x="0" y="0" dx="0em" dy="0.3em" fill="rgb(255, 255, 255)" stroke="none" stroke-width="1px">170</text></g><line x1="41.149001121520996" y1="0" x2="41.149001121520996" y2="376.8699998855591" fill="rgb(0, 0, 0)" stroke="rgb(204, 204, 204)" stroke-width="1px"></line></g></g><g transform="translate(41, 0)" clip-path="url(#clip_0)"><clipPath id="clip_0"><rect width="1472" height="376"></rect></clipPath><g><g><g><line x1="0" y1="0" x2="0" y2="376.8699998855591" fill="rgb(0, 0, 0)" stroke="rgb(189, 189, 189)" stroke-width="1px" opacity="0.25"></line><line x1="113.25776914449837" y1="0" x2="113.25776914449837" y2="376.8699998855591" fill="rgb(0, 0, 0)" stroke="rgb(189, 189, 189)" stroke-width="1px" opacity="0.25"></line><line x1="226.51553828899674" y1="0" x2="226.51553828899674" y2="376.8699998855591" fill="rgb(0, 0, 0)" stroke="rgb(189, 189, 189)" stroke-width="1px" opacity="0.25"></line><line x1="339.7733074334951" y1="0" x2="339.7733074334951" y2="376.8699998855591" fill="rgb(0, 0, 0)" stroke="rgb(189, 189, 189)" stroke-width="1px" opacity="0.25"></line><line x1="453.0310765779935" y1="0" x2="453.0310765779935" y2="376.8699998855591" fill="rgb(0, 0, 0)" stroke="rgb(189, 189, 189)" stroke-width="1px" opacity="0.25"></line><line x1="566.2888457224918" y1="0" x2="566.2888457224918" y2="376.8699998855591" fill="rgb(0, 0, 0)" stroke="rgb(189, 189, 189)" stroke-width="1px" opacity="0.25"></line><line x1="679.5466148669902" y1="0" x2="679.5466148669902" y2="376.8699998855591" fill="rgb(0, 0, 0)" stroke="rgb(189, 189, 189)" stroke-width="1px" opacity="0.25"></line><line x1="792.8043840114887" y1="0" x2="792.8043840114887" y2="376.8699998855591" fill="rgb(0, 0, 0)" stroke="rgb(189, 189, 189)" stroke-width="1px" opacity="0.25"></line><line x1="906.062153155987" y1="0" x2="906.062153155987" y2="376.8699998855591" fill="rgb(0, 0, 0)" stroke="rgb(189, 189, 189)" stroke-width="1px" opacity="0.25"></line><line x1="1019.3199223004855" y1="0" x2="1019.3199223004855" y2="376.8699998855591" fill="rgb(0, 0, 0)" stroke="rgb(189, 189, 189)" stroke-width="1px" opacity="0.25"></line><line x1="1132.5776914449837" y1="0" x2="1132.5776914449837" y2="376.8699998855591" fill="rgb(0, 0, 0)" stroke="rgb(189, 189, 189)" stroke-width="1px" opacity="0.25"></line><line x1="1245.835460589482" y1="0" x2="1245.835460589482" y2="376.8699998855591" fill="rgb(0, 0, 0)" stroke="rgb(189, 189, 189)" stroke-width="1px" opacity="0.25"></line><line x1="1359.0932297339805" y1="0" x2="1359.0932297339805" y2="376.8699998855591" fill="rgb(0, 0, 0)" stroke="rgb(189, 189, 189)" stroke-width="1px" opacity="0.25"></line><line x1="1472.350998878479" y1="0" x2="1472.350998878479" y2="376.8699998855591" fill="rgb(0, 0, 0)" stroke="rgb(189, 189, 189)" stroke-width="1px" opacity="0.25"></line></g><g><line x1="0" y1="376.8699998855591" x2="1472.350998878479" y2="376.8699998855591" fill="rgb(0, 0, 0)" stroke="rgb(189, 189, 189)" stroke-width="1px" opacity="0.25"></line><line x1="0" y1="334.99555545383026" x2="1472.350998878479" y2="334.99555545383026" fill="rgb(0, 0, 0)" stroke="rgb(189, 189, 189)" stroke-width="1px" opacity="0.25"></line><line x1="0" y1="293.1211110221015" x2="1472.350998878479" y2="293.1211110221015" fill="rgb(0, 0, 0)" stroke="rgb(189, 189, 189)" stroke-width="1px" opacity="0.25"></line><line x1="0" y1="251.24666659037274" x2="1472.350998878479" y2="251.24666659037274" fill="rgb(0, 0, 0)" stroke="rgb(189, 189, 189)" stroke-width="1px" opacity="0.25"></line><line x1="0" y1="209.37222215864395" x2="1472.350998878479" y2="209.37222215864395" fill="rgb(0, 0, 0)" stroke="rgb(189, 189, 189)" stroke-width="1px" opacity="0.25"></line><line x1="0" y1="167.49777772691513" x2="1472.350998878479" y2="167.49777772691513" fill="rgb(0, 0, 0)" stroke="rgb(189, 189, 189)" stroke-width="1px" opacity="0.25"></line><line x1="0" y1="125.62333329518637" x2="1472.350998878479" y2="125.62333329518637" fill="rgb(0, 0, 0)" stroke="rgb(189, 189, 189)" stroke-width="1px" opacity="0.25"></line><line x1="0" y1="83.74888886345757" x2="1472.350998878479" y2="83.74888886345757" fill="rgb(0, 0, 0)" stroke="rgb(189, 189, 189)" stroke-width="1px" opacity="0.25"></line><line x1="0" y1="41.874444431728804" x2="1472.350998878479" y2="41.874444431728804" fill="rgb(0, 0, 0)" stroke="rgb(189, 189, 189)" stroke-width="1px" opacity="0.25"></line><line x1="0" y1="0" x2="1472.350998878479" y2="0" fill="rgb(0, 0, 0)" stroke="rgb(189, 189, 189)" stroke-width="1px" opacity="0.25"></line></g></g></g><g><g><line x1="0" y1="1423.7311106787788" x2="1472.350998878479" y2="1423.7311106787788" fill="rgb(0, 0, 0)" stroke="rgb(153, 153, 153)" stroke-width="1.5px"></line></g></g><g><g><line x1="113.25776914449837" y1="0" x2="113.25776914449837" y2="376.8699998855591" fill="rgb(0, 0, 0)" stroke="rgb(153, 153, 153)" stroke-width="1.5px"></line></g></g><g><g><g><g><g><path style="fill: none;" stroke="rgb(255, 112, 67)" stroke-width="2px" d="M113.25776914449837,153.34853994502464L135.40595511053363,95.79643630007234L156.45302387655292,55.11462028380437L179.13603819688157,87.50033002950117L201.72467104292323,72.7381078291147L223.05488423180378,105.95018674664422L245.17160970640998,100.79916342450119L268.1063079581709,114.56202086772255L289.65674458705456,119.6407775814603L311.80493055308983,97.55451536371604L335.054233719141,145.3629236786893L355.37771118229267,112.32452453658162L377.99780451976335,110.887259183501L400.52351638294687,146.74749936017588L421.5391246575371,109.31920273326652L444.34798094358194,109.26360837380247L467.15683722962683,145.8739556649219L488.3612084527912,129.34125349126356L511.32736719598114,151.1985194585657L535.0485777334677,131.6448448868197L556.7248563280675,182.25271532379207L578.8730422941028,155.92037583677043L601.6189775972896,177.40634414727944L622.6031253804507,211.03215253464953L645.3490606836375,201.97149507127185L668.1579169696823,213.22677735254518L689.3622881928468,183.63357405860845L712.3913679188948,202.02188310132206L735.2631451877976,160.42662255848083L757.1596472224006,255.12583216460675L779.402214662723,268.58249229639057L802.3054524230548,201.43683049801376L824.8940852690965,278.51493225698863L847.0422712351318,305.85430280213814L869.8825880126057,246.61229431994795L890.9296567786247,230.33927352269583L913.7699735560988,229.95956502303642L936.6732113164305,222.5281926163958L958.0034245053112,269.22467281954204L981.0325042313591,272.39319626875135L1003.9986629745491,286.0027970186099L1025.2974156720006,210.90123329599962L1048.2635744151905,214.15709853984828L1072.2993898669672,233.52723641957976L1093.56668207299,270.9595594557991L1116.6272222904668,276.83261718103114L1139.624841525086,257.5259765832285L1160.9235942225373,308.58436196410264L1183.9526739485855,293.3948358102393L1206.9502931832042,303.3354041421833L1228.343427354943,300.4303305565412L1251.372507080991,289.3943229329389L1274.4330472984677,297.79493204825405L1296.455391298787,321.16760639197764L1319.6103129905512,294.1404492587239L1342.5450112423123,334.73614531401216L1363.6235404997603,308.2316063445894L1386.5582387515215,296.54857014431434L1409.5873184775694,330.94860050606616L1430.9175316664498,312.611673981442" fill="none"></path></g></g></g></g><g opacity="0.2"><g><g><g><path style="fill: none;" stroke="rgb(255, 112, 67)" stroke-width="2px" d="M113.25776914449837,153.34853994502464L135.40595511053363,55.509963748606005L156.45302387655292,6.703259224445584L179.13603819688157,137.14762306965454L201.72467104292323,46.56321164560988L223.05488423180378,170.42047797898445L245.17160970640998,90.1941387394301L268.1063079581709,144.0306837568548L289.65674458705456,130.80805607193227L311.80493055308983,48.09951099545807L335.054233719141,253.76478160357834L355.37771118229267,36.75923977562151L377.99780451976335,107.58005843223006L400.52351638294687,229.6106850295599L421.5391246575371,22.578821071973987L444.34798094358194,109.13450405621552L467.15683722962683,231.01420988061483L488.3612084527912,90.85468867615982L511.32736719598114,202.11575715433702L535.0485777334677,86.07161195303003L556.7248563280675,300.2435236209858L578.8730422941028,94.51256861211507L601.6189775972896,227.52066873719872L622.6031253804507,289.4708985259226L645.3490606836375,180.83401131119007L668.1579169696823,239.48558071747928L689.3622881928468,114.58924850375074L712.3913679188948,244.92511807612482L735.2631451877976,63.375479052478376L757.1596472224006,476.0835397198659L779.402214662723,299.98065822732104L802.3054524230548,44.76609155270399L824.8940852690965,458.3618500601946L847.0422712351318,369.6456742329812L869.8825880126057,108.38168926084407L890.9296567786247,192.3690355013451L913.7699735560988,229.0735808732289L936.6732113164305,205.18835585403332L958.0034245053112,378.182985051922L981.0325042313591,279.7864109257818L1003.9986629745491,317.75851188335383L1025.2974156720006,35.664329375563355L1048.2635744151905,221.7541150720932L1072.2993898669672,278.72421493543595L1093.56668207299,358.30163318858797L1116.6272222904668,290.5364170735049L1139.624841525086,212.47715189606373L1160.9235942225373,427.72058827275987L1183.9526739485855,257.95260941874005L1206.9502931832042,326.53006298746106L1228.343427354943,293.65182564528567L1251.372507080991,263.64363880204877L1274.4330472984677,317.39635314458576L1296.455391298787,375.70384619091266L1319.6103129905512,231.07708288678063L1342.5450112423123,429.4594358233657L1363.6235404997603,246.3876822134574L1386.5582387515215,269.28815238404786L1409.5873184775694,411.2153379336014L1430.9175316664498,269.8255121217048" fill="none"></path></g></g></g></g></g><g><g opacity="0.816984"><span fill="rgb(0, 0, 0)" stroke="none" stroke-width="1px">Alt + Scroll to Zoom</span></g></g></g><g transform="translate(41, 376)" clip-path="url(#clip_1)"><clipPath id="clip_1"><rect width="1472" height="23"></rect></clipPath><g><g><line x1="0" y1="0" x2="0" y2="5" style="visibility: inherit;" fill="rgb(0, 0, 0)" stroke="rgb(204, 204, 204)" stroke-width="1px"></line><line x1="113.25776914449837" y1="0" x2="113.25776914449837" y2="5" style="visibility: inherit;" fill="rgb(0, 0, 0)" stroke="rgb(204, 204, 204)" stroke-width="1px"></line><line x1="226.51553828899674" y1="0" x2="226.51553828899674" y2="5" style="visibility: inherit;" fill="rgb(0, 0, 0)" stroke="rgb(204, 204, 204)" stroke-width="1px"></line><line x1="339.7733074334951" y1="0" x2="339.7733074334951" y2="5" style="visibility: inherit;" fill="rgb(0, 0, 0)" stroke="rgb(204, 204, 204)" stroke-width="1px"></line><line x1="453.0310765779935" y1="0" x2="453.0310765779935" y2="5" style="visibility: inherit;" fill="rgb(0, 0, 0)" stroke="rgb(204, 204, 204)" stroke-width="1px"></line><line x1="566.2888457224918" y1="0" x2="566.2888457224918" y2="5" style="visibility: inherit;" fill="rgb(0, 0, 0)" stroke="rgb(204, 204, 204)" stroke-width="1px"></line><line x1="679.5466148669902" y1="0" x2="679.5466148669902" y2="5" style="visibility: inherit;" fill="rgb(0, 0, 0)" stroke="rgb(204, 204, 204)" stroke-width="1px"></line><line x1="792.8043840114887" y1="0" x2="792.8043840114887" y2="5" style="visibility: inherit;" fill="rgb(0, 0, 0)" stroke="rgb(204, 204, 204)" stroke-width="1px"></line><line x1="906.062153155987" y1="0" x2="906.062153155987" y2="5" style="visibility: inherit;" fill="rgb(0, 0, 0)" stroke="rgb(204, 204, 204)" stroke-width="1px"></line><line x1="1019.3199223004855" y1="0" x2="1019.3199223004855" y2="5" style="visibility: inherit;" fill="rgb(0, 0, 0)" stroke="rgb(204, 204, 204)" stroke-width="1px"></line><line x1="1132.5776914449837" y1="0" x2="1132.5776914449837" y2="5" style="visibility: inherit;" fill="rgb(0, 0, 0)" stroke="rgb(204, 204, 204)" stroke-width="1px"></line><line x1="1245.835460589482" y1="0" x2="1245.835460589482" y2="5" style="visibility: inherit;" fill="rgb(0, 0, 0)" stroke="rgb(204, 204, 204)" stroke-width="1px"></line><line x1="1359.0932297339805" y1="0" x2="1359.0932297339805" y2="5" style="visibility: inherit;" fill="rgb(0, 0, 0)" stroke="rgb(204, 204, 204)" stroke-width="1px"></line><line x1="1472.350998878479" y1="0" x2="1472.350998878479" y2="5" style="visibility: inherit;" fill="rgb(0, 0, 0)" stroke="rgb(204, 204, 204)" stroke-width="1px"></line></g><g transform="translate(0, 8)"><text style="text-anchor: middle; visibility: hidden; font-family: Roboto, sans-serif; font-size: 12px; font-weight: 200;" x="0" y="0" dx="0em" dy="0.95em" fill="rgb(255, 255, 255)" stroke="none" stroke-width="1px">-0.001</text><text style="text-anchor: middle; visibility: inherit; font-family: Roboto, sans-serif; font-size: 12px; font-weight: 200;" x="113.25776914449837" y="0" dx="0em" dy="0.95em" fill="rgb(255, 255, 255)" stroke="none" stroke-width="1px">0</text><text style="text-anchor: middle; visibility: inherit; font-family: Roboto, sans-serif; font-size: 12px; font-weight: 200;" x="226.51553828899674" y="0" dx="0em" dy="0.95em" fill="rgb(255, 255, 255)" stroke="none" stroke-width="1px">0.001</text><text style="text-anchor: middle; visibility: inherit; font-family: Roboto, sans-serif; font-size: 12px; font-weight: 200;" x="339.7733074334951" y="0" dx="0em" dy="0.95em" fill="rgb(255, 255, 255)" stroke="none" stroke-width="1px">0.002</text><text style="text-anchor: middle; visibility: inherit; font-family: Roboto, sans-serif; font-size: 12px; font-weight: 200;" x="453.0310765779935" y="0" dx="0em" dy="0.95em" fill="rgb(255, 255, 255)" stroke="none" stroke-width="1px">0.003</text><text style="text-anchor: middle; visibility: inherit; font-family: Roboto, sans-serif; font-size: 12px; font-weight: 200;" x="566.2888457224918" y="0" dx="0em" dy="0.95em" fill="rgb(255, 255, 255)" stroke="none" stroke-width="1px">0.004</text><text style="text-anchor: middle; visibility: inherit; font-family: Roboto, sans-serif; font-size: 12px; font-weight: 200;" x="679.5466148669902" y="0" dx="0em" dy="0.95em" fill="rgb(255, 255, 255)" stroke="none" stroke-width="1px">0.005</text><text style="text-anchor: middle; visibility: inherit; font-family: Roboto, sans-serif; font-size: 12px; font-weight: 200;" x="792.8043840114887" y="0" dx="0em" dy="0.95em" fill="rgb(255, 255, 255)" stroke="none" stroke-width="1px">0.006</text><text style="text-anchor: middle; visibility: inherit; font-family: Roboto, sans-serif; font-size: 12px; font-weight: 200;" x="906.062153155987" y="0" dx="0em" dy="0.95em" fill="rgb(255, 255, 255)" stroke="none" stroke-width="1px">0.007</text><text style="text-anchor: middle; visibility: inherit; font-family: Roboto, sans-serif; font-size: 12px; font-weight: 200;" x="1019.3199223004855" y="0" dx="0em" dy="0.95em" fill="rgb(255, 255, 255)" stroke="none" stroke-width="1px">0.008</text><text style="text-anchor: middle; visibility: inherit; font-family: Roboto, sans-serif; font-size: 12px; font-weight: 200;" x="1132.5776914449837" y="0" dx="0em" dy="0.95em" fill="rgb(255, 255, 255)" stroke="none" stroke-width="1px">0.009</text><text style="text-anchor: middle; visibility: inherit; font-family: Roboto, sans-serif; font-size: 12px; font-weight: 200;" x="1245.835460589482" y="0" dx="0em" dy="0.95em" fill="rgb(255, 255, 255)" stroke="none" stroke-width="1px">0.01</text><text style="text-anchor: middle; visibility: inherit; font-family: Roboto, sans-serif; font-size: 12px; font-weight: 200;" x="1359.0932297339805" y="0" dx="0em" dy="0.95em" fill="rgb(255, 255, 255)" stroke="none" stroke-width="1px">0.011</text><text style="text-anchor: middle; visibility: hidden; font-family: Roboto, sans-serif; font-size: 12px; font-weight: 200;" x="1472.350998878479" y="0" dx="0em" dy="0.95em" fill="rgb(255, 255, 255)" stroke="none" stroke-width="1px">0.012</text></g><line x1="0" y1="0" x2="1472.350998878479" y2="0" fill="rgb(0, 0, 0)" stroke="rgb(204, 204, 204)" stroke-width="1px"></line></g></g></g></g></svg>