<svg viewBox="0 0 330 200" xmlns="http://www.w3.org/2000/svg"><g><g><g><g><g><line x1="70.26399803161621" y1="174.57499885559082" x2="65.26399803161621" y2="174.57499885559082" style="visibility: inherit;" fill="rgb(0, 0, 0)" stroke="rgb(200, 195, 188)" stroke-width="1px"></line><line x1="70.26399803161621" y1="149.63571330479215" x2="65.26399803161621" y2="149.63571330479215" style="visibility: inherit;" fill="rgb(0, 0, 0)" stroke="rgb(200, 195, 188)" stroke-width="1px"></line><line x1="70.26399803161621" y1="124.69642775399345" x2="65.26399803161621" y2="124.69642775399345" style="visibility: inherit;" fill="rgb(0, 0, 0)" stroke="rgb(200, 195, 188)" stroke-width="1px"></line><line x1="70.26399803161621" y1="99.75714220319475" x2="65.26399803161621" y2="99.75714220319475" style="visibility: inherit;" fill="rgb(0, 0, 0)" stroke="rgb(200, 195, 188)" stroke-width="1px"></line><line x1="70.26399803161621" y1="74.81785665239607" x2="65.26399803161621" y2="74.81785665239607" style="visibility: inherit;" fill="rgb(0, 0, 0)" stroke="rgb(200, 195, 188)" stroke-width="1px"></line><line x1="70.26399803161621" y1="49.87857110159737" x2="65.26399803161621" y2="49.87857110159737" style="visibility: inherit;" fill="rgb(0, 0, 0)" stroke="rgb(200, 195, 188)" stroke-width="1px"></line><line x1="70.26399803161621" y1="24.939285550798697" x2="65.26399803161621" y2="24.939285550798697" style="visibility: inherit;" fill="rgb(0, 0, 0)" stroke="rgb(200, 195, 188)" stroke-width="1px"></line><line x1="70.26399803161621" y1="0" x2="65.26399803161621" y2="0" style="visibility: inherit;" fill="rgb(0, 0, 0)" stroke="rgb(200, 195, 188)" stroke-width="1px"></line></g><g transform="translate(60.26399803161621, 0)"><text style="text-anchor: end; visibility: hidden; font-family: Roboto, sans-serif; font-size: 12px; font-weight: 200;" x="0" y="174.57499885559082" dx="0em" dy="0.3em" fill="rgb(232, 230, 227)" stroke="none" stroke-width="1px">0</text><text style="text-anchor: end; visibility: inherit; font-family: Roboto, sans-serif; font-size: 12px; font-weight: 200;" x="0" y="149.63571330479215" dx="0em" dy="0.3em" fill="rgb(232, 230, 227)" stroke="none" stroke-width="1px">5e+3</text><text style="text-anchor: end; visibility: inherit; font-family: Roboto, sans-serif; font-size: 12px; font-weight: 200;" x="0" y="124.69642775399345" dx="0em" dy="0.3em" fill="rgb(232, 230, 227)" stroke="none" stroke-width="1px">1e+4</text><text style="text-anchor: end; visibility: inherit; font-family: Roboto, sans-serif; font-size: 12px; font-weight: 200;" x="0" y="99.75714220319475" dx="0em" dy="0.3em" fill="rgb(232, 230, 227)" stroke="none" stroke-width="1px">1.5e+4</text><text style="text-anchor: end; visibility: inherit; font-family: Roboto, sans-serif; font-size: 12px; font-weight: 200;" x="0" y="74.81785665239607" dx="0em" dy="0.3em" fill="rgb(232, 230, 227)" stroke="none" stroke-width="1px">2e+4</text><text style="text-anchor: end; visibility: inherit; font-family: Roboto, sans-serif; font-size: 12px; font-weight: 200;" x="0" y="49.87857110159737" dx="0em" dy="0.3em" fill="rgb(232, 230, 227)" stroke="none" stroke-width="1px">2.5e+4</text><text style="text-anchor: end; visibility: inherit; font-family: Roboto, sans-serif; font-size: 12px; font-weight: 200;" x="0" y="24.939285550798697" dx="0em" dy="0.3em" fill="rgb(232, 230, 227)" stroke="none" stroke-width="1px">3e+4</text><text style="text-anchor: end; visibility: hidden; font-family: Roboto, sans-serif; font-size: 12px; font-weight: 200;" x="0" y="0" dx="0em" dy="0.3em" fill="rgb(232, 230, 227)" stroke="none" stroke-width="1px">3.5e+4</text></g><line x1="70.26399803161621" y1="0" x2="70.26399803161621" y2="174.57499885559082" fill="rgb(0, 0, 0)" stroke="rgb(200, 195, 188)" stroke-width="1px"></line></g></g><g transform="translate(70, 0)" clip-path="url(#clip_0)"><clipPath id="clip_0"><rect width="259" height="174"></rect></clipPath><g><g><g><line x1="0" y1="0" x2="0" y2="174.57499885559082" fill="rgb(0, 0, 0)" stroke="rgb(194, 189, 181)" stroke-width="1px" opacity="0.25"></line><line x1="25.97360019683838" y1="0" x2="25.97360019683838" y2="174.57499885559082" fill="rgb(0, 0, 0)" stroke="rgb(194, 189, 181)" stroke-width="1px" opacity="0.25"></line><line x1="51.94720039367676" y1="0" x2="51.94720039367676" y2="174.57499885559082" fill="rgb(0, 0, 0)" stroke="rgb(194, 189, 181)" stroke-width="1px" opacity="0.25"></line><line x1="77.92080059051513" y1="0" x2="77.92080059051513" y2="174.57499885559082" fill="rgb(0, 0, 0)" stroke="rgb(194, 189, 181)" stroke-width="1px" opacity="0.25"></line><line x1="103.89440078735352" y1="0" x2="103.89440078735352" y2="174.57499885559082" fill="rgb(0, 0, 0)" stroke="rgb(194, 189, 181)" stroke-width="1px" opacity="0.25"></line><line x1="129.8680009841919" y1="0" x2="129.8680009841919" y2="174.57499885559082" fill="rgb(0, 0, 0)" stroke="rgb(194, 189, 181)" stroke-width="1px" opacity="0.25"></line><line x1="155.84160118103026" y1="0" x2="155.84160118103026" y2="174.57499885559082" fill="rgb(0, 0, 0)" stroke="rgb(194, 189, 181)" stroke-width="1px" opacity="0.25"></line><line x1="181.81520137786865" y1="0" x2="181.81520137786865" y2="174.57499885559082" fill="rgb(0, 0, 0)" stroke="rgb(194, 189, 181)" stroke-width="1px" opacity="0.25"></line><line x1="207.78880157470704" y1="0" x2="207.78880157470704" y2="174.57499885559082" fill="rgb(0, 0, 0)" stroke="rgb(194, 189, 181)" stroke-width="1px" opacity="0.25"></line><line x1="233.76240177154543" y1="0" x2="233.76240177154543" y2="174.57499885559082" fill="rgb(0, 0, 0)" stroke="rgb(194, 189, 181)" stroke-width="1px" opacity="0.25"></line><line x1="259.7360019683838" y1="0" x2="259.7360019683838" y2="174.57499885559082" fill="rgb(0, 0, 0)" stroke="rgb(194, 189, 181)" stroke-width="1px" opacity="0.25"></line></g><g><line x1="0" y1="174.57499885559082" x2="259.7360019683838" y2="174.57499885559082" fill="rgb(0, 0, 0)" stroke="rgb(194, 189, 181)" stroke-width="1px" opacity="0.25"></line><line x1="0" y1="149.63571330479215" x2="259.7360019683838" y2="149.63571330479215" fill="rgb(0, 0, 0)" stroke="rgb(194, 189, 181)" stroke-width="1px" opacity="0.25"></line><line x1="0" y1="124.69642775399345" x2="259.7360019683838" y2="124.69642775399345" fill="rgb(0, 0, 0)" stroke="rgb(194, 189, 181)" stroke-width="1px" opacity="0.25"></line><line x1="0" y1="99.75714220319475" x2="259.7360019683838" y2="99.75714220319475" fill="rgb(0, 0, 0)" stroke="rgb(194, 189, 181)" stroke-width="1px" opacity="0.25"></line><line x1="0" y1="74.81785665239607" x2="259.7360019683838" y2="74.81785665239607" fill="rgb(0, 0, 0)" stroke="rgb(194, 189, 181)" stroke-width="1px" opacity="0.25"></line><line x1="0" y1="49.87857110159737" x2="259.7360019683838" y2="49.87857110159737" fill="rgb(0, 0, 0)" stroke="rgb(194, 189, 181)" stroke-width="1px" opacity="0.25"></line><line x1="0" y1="24.939285550798697" x2="259.7360019683838" y2="24.939285550798697" fill="rgb(0, 0, 0)" stroke="rgb(194, 189, 181)" stroke-width="1px" opacity="0.25"></line><line x1="0" y1="0" x2="259.7360019683838" y2="0" fill="rgb(0, 0, 0)" stroke="rgb(194, 189, 181)" stroke-width="1px" opacity="0.25"></line></g></g></g><g><g><line x1="0" y1="174.57499885559082" x2="259.7360019683838" y2="174.57499885559082" fill="rgb(0, 0, 0)" stroke="rgb(168, 160, 149)" stroke-width="1.5px"></line></g></g><g><g><line x1="25.97360019683838" y1="0" x2="25.97360019683838" y2="174.57499885559082" fill="rgb(0, 0, 0)" stroke="rgb(168, 160, 149)" stroke-width="1.5px"></line></g></g><g><g><g><g><g><path style="fill: none;" stroke="rgb(51, 187, 238)" stroke-width="2px" d="M25.97360019683838,11.98406709219856L26.493072200775146,12.06732387701829L27.01254420471191,12.62030516656276L27.53201620864868,12.96108219207196L28.05148821258545,12.99084999229867L28.570960216522217,13.73895253313787L29.090432220458986,12.819908757481992L29.609904224395752,13.946582798460087L30.12937622833252,18.119923327264942L30.648848232269284,18.120706256013943L31.168320236206053,26.290205640028258L31.687792240142823,25.368649223624498L32.20726424407959,32.38095448130946L32.72673624801636,34.82028355622063L33.24620825195313,39.9830332193636L33.76568025588989,43.35247834880527L34.28515225982666,30.91109246066223L34.80462426376343,24.566744352977974L35.3240962677002,19.85849741155125L35.84356827163697,17.846124728721666L36.36304027557373,17.11774886932237L36.88251227951049,22.04852562848395L37.40198428344726,30.13656525825267L37.92145628738403,30.193874911840126L38.4409282913208,37.65145997876199L38.960400295257564,45.89110339876967L39.479872299194334,47.073837506736275L39.9993443031311,48.21408929712616L40.51881630706787,52.85897012056146L41.03828831100464,53.60230576450841L41.557760314941405,51.15154629652589L42.077232318878174,42.50055556947332L42.596704322814944,45.68682639108001L43.11617632675171,48.47452666204894L43.63564833068848,55.53254008469444L44.155120334625245,59.3369271616897L44.67459233856201,64.23704652690257L45.19406434249878,57.84626755102185L45.713536346435546,57.224354256064196L46.23300835037231,55.47105062869676L46.75248035430908,58.229522412322176L47.27195235824585,61.30019829725968L47.79142436218262,62.24302431338256L48.31089636611939,61.77875081003589L48.83036837005615,65.08127717214127L49.34984037399292,70.02280561728678L49.86931237792969,63.14690272097534L50.38878438186646,65.4129413679366L50.90825638580323,66.22709172315369L51.42772838973999,62.63454062929141L51.94720039367676,65.72910367074454L52.46667239761353,64.48239290489299L52.98614440155029,68.80743797686932L53.50561640548706,72.1814241204135L54.02508840942382,70.55789585109636L54.54456041336059,76.04191988902615L55.06403241729736,74.40613958514618L55.58350442123413,77.92348081361774L56.1029764251709,80.73888408235118L56.62244842910766,78.03184047698619L57.14192043304443,74.06618559306712L57.6613924369812,74.35722901128143L58.18086444091797,77.01906170048129L58.700336444854734,81.16572006291284L59.219808448791504,86.80171926341836L59.73928045272827,91.96477676339394L60.25875245666504,91.79320926276912L60.77822446060181,94.83782676603528L61.29769646453857,94.95366486012601L61.81716846847534,97.96840771457231L62.33664047241211,99.05882080388051L62.856112476348876,105.22983735623383L63.375584480285646,111.20947614855604L63.89505648422241,109.40393239513067L64.41452848815918,110.91549399185733L64.93400049209595,110.9272606240093L65.45347249603272,113.2752953510683L65.97294449996949,111.57672602045288L66.49241650390626,113.25297369487188L67.01188850784303,117.15408372641356L67.53136051177978,115.40321250625621L68.05083251571655,115.33140865502271L68.57030451965332,117.777995737002L69.08977652359009,117.91335817879799L69.60924852752686,116.1425102603693L70.12872053146363,115.77110028603167L70.6481925354004,116.26810339827267L71.16766453933717,118.32166856940034L71.68713654327394,116.72276037618246L72.2066085472107,120.29278134099522L72.72608055114746,122.51391770005613L73.24555255508422,122.20953805077787L73.76502455902099,121.31538270253819L74.28449656295776,119.76339296007279L74.80396856689453,120.68964982507346L75.3234405708313,119.258175426409L75.84291257476806,124.16102561830144L76.36238457870483,126.31024707066324L76.8818565826416,128.17350820617642L77.40132858657837,132.03237030478445L77.92080059051513,132.7364187759627L78.4402725944519,127.99527984313275L78.95974459838867,128.72477019214747L79.47921660232544,130.78041808709955L79.9986886062622,132.2946192826094L80.51816061019898,135.72951592936394L81.03763261413575,132.9340141776287L81.55710461807251,134.08764839053524L82.07657662200928,135.35333117009995L82.59604862594604,133.43621871908425L83.11552062988281,132.69835935430928L83.63499263381958,133.29115112304785L84.15446463775635,133.28766247891667L84.67393664169312,132.20503382993425L85.19340864562989,134.48855042712077L85.71288064956666,134.3867291393619L86.23235265350343,136.09239478076654L86.7518246574402,135.82526212524115L87.27129666137697,139.65078109703623L87.79076866531372,135.99824043707258L88.31024066925049,133.58277099875667L88.82971267318726,138.76424818473842L89.34918467712401,139.74227128094347L89.86865668106078,139.0114355220252L90.38812868499755,137.98986038983244L90.90760068893432,136.57121856830963L91.42707269287109,136.86709935306064L91.94654469680786,138.85489457515803L92.46601670074462,138.68691254029932L92.98548870468139,137.61713757922388L93.50496070861816,137.99987197532624L94.02443271255493,139.2253548462754L94.5439047164917,140.00551774740114L95.06337672042847,138.10320848659546L95.58284872436523,141.8953757201758L96.102320728302,139.0176448929323L96.62179273223877,139.94192775420834L97.14126473617554,139.19521718304793L97.6607367401123,140.71071729483486L98.18020874404907,144.22765152366338L98.69968074798584,143.47510648527916L99.2191527519226,143.63174829517587L99.73862475585938,142.31691995968518L100.25809675979615,140.74652609088545L100.77756876373292,140.17959094627483L101.29704076766969,138.9159544187151L101.81651277160645,141.0223163759792L102.33598477554322,143.8051445172214L102.85545677947998,142.79771236231772L103.37492878341675,142.93411156591398L103.89440078735352,141.9722371168166L104.41387279129029,143.6383563698738L104.93334479522706,144.88745195132302L105.45281679916383,144.05910981276784L105.97228880310058,142.26328115101174L106.49176080703735,142.81745619493591L107.01123281097412,141.4248806398256L107.53070481491088,142.36219215548917L108.05017681884765,142.1696513042112L108.56964882278442,144.00232435503142L109.08912082672119,142.45726892663268L109.60859283065795,143.070490816165L110.12806483459472,144.11483387709086L110.6475368385315,145.67938870777675L111.16700884246826,143.15586878652982L111.68648084640503,142.01664495353398L112.2059528503418,143.73564939175358L112.72542485427856,144.124485517324L113.24489685821533,143.15185096242988L113.7643688621521,140.54916131652968L114.28384086608887,142.3273289727768L114.80331287002564,145.88886148739272L115.3227848739624,142.7621518908795L115.84225687789917,144.83513827770366L116.36172888183594,146.01065881560282L116.88120088577271,147.11908741192744L117.40067288970947,145.94857126297723L117.92014489364624,147.36972288697487L118.43961689758301,146.4809756414835L118.95908890151978,147.26736133757478L119.47856090545655,145.58985498472111L119.99803290939332,144.31280473756144L120.51750491333009,145.91983694410416L121.03697691726686,145.66678337896712L121.55644892120362,146.69886491195086L122.07592092514038,146.0238564855938L122.59539292907714,145.62777404369984L123.1148649330139,144.60682448380993L123.63433693695067,147.74973803673385L124.15380894088744,149.07238048133138L124.67328094482421,148.50393511926742L125.19275294876098,149.79590595856715L125.71222495269775,149.42961151734187L126.23169695663452,148.50076322904624L126.75116896057129,147.52805635854085L127.27064096450806,147.93669724075414L127.79011296844482,144.71526457545224L128.3095849723816,144.93537550442875L128.82905697631836,146.8844687233129L129.34852898025514,148.56978890530743L129.8680009841919,142.8855807064142L130.38747298812865,146.48293365282964L130.90694499206543,144.50544060808718L131.4264169960022,147.4596815804089L131.94588899993897,148.74431437096243L132.46536100387573,149.74617308716702L132.9848330078125,147.12044286901403L133.50430501174927,146.46142314045738L134.02377701568605,147.10116213707883L134.5432490196228,145.5463180244626L135.06272102355956,146.05363386525298L135.58219302749634,148.01368603437587L136.1016650314331,147.7034450263963L136.62113703536988,149.64842082337483L137.14060903930664,150.65546364915062L137.66008104324342,151.60106432521863L138.17955304718018,150.32143975259328L138.69902505111696,150.72872133795016L139.21849705505372,150.0814124374482L139.7379690589905,150.79472880407116L140.25744106292726,150.47166911711008L140.776913066864,149.59563765831734L141.2963850708008,147.34332396735192L141.81585707473755,147.43643962988264L142.33532907867433,145.71497479756223L142.8548010826111,148.3380626699626L143.37427308654787,148.73208747772748L143.89374509048463,149.8563204699871L144.4132170944214,149.444407567666L144.93268909835817,150.0581162281356L145.45216110229492,149.96729977717544L145.9716331062317,150.30370787864624L146.49110511016843,151.17975612447847L147.01057711410522,149.5083197437465L147.53004911804197,150.16263447252425L148.04952112197876,150.8712508188799L148.5689931259155,151.5464398869126L149.0884651298523,150.71731685354075L149.60793713378905,150.83884194603354L150.1274091377258,149.86857493847367L150.6468811416626,149.4150663765096L151.16635314559934,151.19128710983213L151.68582514953613,150.97202091343905L152.20529715347288,150.8641291621054L152.72476915740967,153.1099736177126L153.24424116134642,150.06159462981276L153.7637131652832,150.30147094072578L154.28318516921996,149.10695008454096L154.80265717315675,149.76837274845877L155.3221291770935,149.2322203970105L155.84160118103026,151.7090709433122L156.36107318496704,150.25156573633006L156.8805451889038,150.5026280979263L157.40001719284058,151.47553421750158L157.91948919677733,152.77455754394674L158.43896120071412,152.4062427252813L158.95843320465087,151.65082442854526L159.47790520858766,149.19751971040606L159.9973772125244,149.78780926611515L160.51684921646117,151.07034205902403L161.03632122039795,152.39906432631838L161.5557932243347,151.5048651698115L162.0752652282715,150.51502739986117L162.59473723220825,153.11153447409154L163.11420923614503,152.5580963393343L163.63368124008178,152.10664929338643L164.15315324401857,152.58769273164756L164.67262524795532,153.18042610455265L165.19209725189208,151.7377293180979L165.71156925582886,151.89392151059255L166.23104125976562,150.66519224212456L166.7505132637024,150.63488211056136L167.26998526763916,151.97295672808977L167.78945727157594,152.79909147906238L168.3089292755127,150.62851818236425L168.82840127944948,153.14108995389066L169.34787328338624,153.49091728485897L169.867345287323,154.31445552051662L170.38681729125977,154.80845717515137L170.90628929519653,154.7673497507809L171.4257612991333,154.5083363827256L171.94523330307007,154.58910144767677L172.46470530700685,154.80194544929753L172.9841773109436,152.03788616177692L173.5036493148804,151.6421461005183L174.02312131881715,154.06442620983205L174.54259332275393,154.9573934291358L175.06206532669069,153.41835623155984L175.58153733062744,152.35950092799246L176.10100933456422,152.67362926934348L176.62048133850098,152.1075603962879L177.13995334243776,154.73223324003405L177.65942534637452,153.830220540434L178.1788973503113,153.61483397029588L178.69836935424803,153.84962353622012L179.2178413581848,154.67724629038548L179.73731336212157,154.103215868918L180.25678536605832,154.67253894193928L180.7762573699951,153.0522507654099L181.29572937393186,152.6982750129453L181.81520137786865,153.3583807245528L182.3346733818054,154.56864363139198L182.85414538574219,153.24050079256153L183.37361738967894,154.90526918884882L183.89308939361572,153.749651163945L184.41256139755248,155.53697208601923L184.93203340148924,155.57301944753624L185.45150540542602,151.72593778371083L185.97097740936277,153.11811178208418L186.49044941329956,154.19004567530197L187.0099214172363,154.94688969861517L187.5293934211731,155.3408481087424L188.04886542510985,156.10394476241493L188.56833742904664,156.89243679409446L189.0878094329834,155.62443476000684L189.60728143692018,154.2007911682019L190.12675344085693,153.68869310141773L190.64622544479369,154.63297090360325L191.16569744873047,154.78653960652542L191.68516945266722,157.1795588551877L192.204641456604,157.23837649132759L192.72411346054076,156.65770325206336L193.24358546447755,159.2742457259406L193.7630574684143,159.2403915143769L194.2825294723511,158.57811985806717L194.80200147628784,157.22268888088553L195.3214734802246,156.6058018393272L195.84094548416138,157.95685343248974L196.36041748809814,156.7995575138715L196.87988949203492,157.73567099728268L197.39936149597168,158.37703569171768L197.91883349990846,158.52497269875684L198.4383055038452,159.20947988010178L198.957777507782,159.6355759171142L199.47724951171875,159.01556992375902L199.9967215156555,159.39141464357445L200.5161935195923,158.67884193976053L201.03566552352905,156.70553266040383L201.55513752746583,155.94728066805422L202.0746095314026,156.2534574709334L202.59408153533937,157.52310528724135L203.11355353927613,158.71081508402756L203.6330255432129,158.98634539904666L204.15249754714966,159.18929170932373L204.67196955108645,159.2458237799578L205.1914415550232,160.63446888113324L205.71091355895996,160.532257379332L206.23038556289674,158.99066600371953L206.7498575668335,158.71015157179767L207.26932957077028,159.36161866089782L207.78880157470704,158.66976275474252L208.30827357864382,158.70643118813794L208.82774558258058,158.15643414701418L209.34721758651736,159.16417335413968L209.86668959045411,160.52667256966626L210.38616159439087,160.65296421288835L210.90563359832765,159.06413541062662L211.42510560226438,159.66046694012115L211.94457760620116,160.326828142486L212.46404961013792,161.31810973356278L212.9835216140747,158.98782002769627L213.50299361801146,158.93149569551952L214.02246562194824,159.55768908839926L214.541937625885,160.34423211822525L215.06140962982175,160.7487828975L215.58088163375854,159.63118103797515L216.1003536376953,161.24943600526115L216.61982564163208,161.33206332460338L217.13929764556883,161.66662950507714L217.65876964950562,160.79560974905627L218.17824165344237,160.97435197915524L218.69771365737915,161.6492597820341L219.2171856613159,161.24495777012663L219.7366576652527,160.63827224875348L220.25612966918945,160.96641670971255L220.7756016731262,161.0295474708004L221.295073677063,160.74818797244487L221.81454568099974,161.31011915612723L222.33401768493653,159.99343742565762L222.85348968887328,159.0790451619775L223.37296169281007,160.53551033952306L223.89243369674682,160.4930816143758L224.4119057006836,160.8447619056935L224.93137770462036,160.103973937728L225.45084970855712,160.6943456076844L225.9703217124939,162.31783016718595L226.48979371643065,161.4390547345086L227.00926572036744,162.00233864506905L227.5287377243042,161.86198226225858L228.04820972824098,161.4706528213043L228.56768173217773,161.00981706537033L229.08715373611452,160.8162280201671L229.60662574005127,160.93295004282993L230.12609774398803,160.84956816975196L230.6455697479248,161.0025121948955L231.16504175186157,160.57390921376953L231.68451375579835,161.49754076389354L232.2039857597351,162.6118097733739L232.7234577636719,161.47520821363563L233.24292976760864,161.37753625770964L233.76240177154543,161.87460764356942L234.28187377548218,162.62745322175638L234.80134577941894,161.08047654089464L235.32081778335572,161.68726653877727L235.84028978729248,161.2783839140164L236.35976179122926,161.74692969776137L236.87923379516602,162.0795270798501L237.3987057991028,162.69597440571476L237.91817780303955,161.4767909224903L238.43764980697634,161.9085879328398L238.9571218109131,162.12025616754113L239.47659381484988,162.7420189241057L239.99606581878663,162.76620617310488L240.5155378227234,162.37133868890174L241.03500982666017,163.142375956072L241.55448183059693,162.31222855964228L242.0739538345337,162.84150911909538L242.59342583847047,163.17143263011874L243.11289784240725,162.96626120833469L243.63236984634398,161.5618153700116L244.15184185028076,161.93098769375558L244.67131385421752,160.27252341749946" fill="none"></path></g></g></g></g><g opacity="0.2"><g><g><g><path style="fill: none;" stroke="rgb(51, 187, 238)" stroke-width="2px" d="M25.97360019683838,11.98406709219856L26.493072200775146,12.117277947910134L27.01254420471191,13.151167204525429L27.53201620864868,13.361835974070747L28.05148821258545,13.029714832274722L28.570960216522217,14.773847664033202L29.090432220458986,11.505661453593621L29.609904224395752,15.589284366276965L30.12937622833252,24.274789977587766L30.648848232269284,18.121868813960567L31.168320236206053,38.470357957911816L31.687792240142823,23.99132966834104L32.20726424407959,42.87651597450758L32.72673624801636,38.474498268989585L33.24620825195313,47.721089095651244L33.76568025588989,48.40426964920844L34.28515225982666,12.25427840599641L34.80462426376343,15.051833020748845L35.3240962677002,12.796844253444142L35.84356827163697,14.827749643311536L36.36304027557373,16.025225026086606L36.88251227951049,29.444528517916797L37.40198428344726,42.26846501867219L37.92145628738403,30.279838713333856L38.4409282913208,48.83778457382194L38.960400295257564,58.250533390465804L39.479872299194334,48.84793564239378L39.9993443031311,49.92446523215591L40.51881630706787,59.826287077122714L41.03828831100464,54.717308819598486L41.557760314941405,47.47540790725063L42.077232318878174,29.524071200152065L42.596704322814944,50.46623224311333L43.11617632675171,52.65607686882498L43.63564833068848,66.11955991533208L44.155120334625245,65.04350767908245L44.67459233856201,71.58722549890896L45.19406434249878,48.2600991465263L45.713536346435546,56.29148431709164L46.23300835037231,52.84109519350497L46.75248035430908,62.367230082229206L47.27195235824585,65.90621212097172L47.79142436218262,63.65726333688635L48.31089636611939,61.08234055521691L48.83036837005615,70.03506671444114L49.34984037399292,77.43509828423453L49.86931237792969,52.83304837715147L50.38878438186646,68.81199933825124L50.90825638580323,67.44831725595189L51.42772838973999,57.24571398857066L51.94720039367676,70.37094823288662L52.46667239761353,62.61232675612473L52.98614440155029,75.29500558481503L53.50561640548706,77.24240333572094L54.02508840942382,68.12260344712318L54.54456041336059,84.26795594591563L55.06403241729736,71.95246912932714L55.58350442123413,83.19949265632386L56.1029764251709,84.96198898545077L56.62244842910766,73.97127506893905L57.14192043304443,68.1177032671888L57.6613924369812,74.79379413860292L58.18086444091797,81.01181073428106L58.700336444854734,87.3857076065601L59.219808448791504,95.2557180641766L59.73928045272827,99.70936301335729L60.25875245666504,91.53585801183186L60.77822446060181,99.40475302093449L61.29769646453857,95.12742200126208L61.81716846847534,102.49052199624175L62.33664047241211,100.6944404378428L62.856112476348876,114.48636218476379L63.375584480285646,120.17893433703935L63.89505648422241,106.69561676499262L64.41452848815918,113.18283638694733L64.93400049209595,110.94491057223726L65.45347249603272,116.79734744165678L65.97294449996949,109.02887202452982L66.49241650390626,115.76734520650037L67.01188850784303,123.00574877372608L67.53136051177978,112.7769056760202L68.05083251571655,115.22370287817243L68.57030451965332,121.44787635997092L69.08977652359009,118.11640184149199L69.60924852752686,113.48623838272628L70.12872053146363,115.2139853245252L70.6481925354004,117.0136080666342L71.16766453933717,121.40201632609185L71.68713654327394,114.3243980863557L72.2066085472107,125.64781278821431L72.72608055114746,125.84562223864751L73.24555255508422,121.75296857686043L73.76502455902099,119.97414968017867L74.28449656295776,117.43540834637471L74.80396856689453,122.07903512257451L75.3234405708313,117.1109638284123L75.84291257476806,131.51530090614008L76.36238457870483,129.53407924920592L76.8818565826416,130.96839990944622L77.40132858657837,137.82066345269652L77.92080059051513,133.79249148273004L78.4402725944519,120.88357144388779L78.95974459838867,129.8190057156696L79.47921660232544,133.86388992952763L79.9986886062622,134.5659210758742L80.51816061019898,140.8818608994958L81.03763261413575,128.74076155002587L81.55710461807251,135.81809970989502L82.07657662200928,137.25185533944705L82.59604862594604,130.5605500425607L83.11552062988281,131.5915703071468L83.63499263381958,134.18033877615574L84.15446463775635,133.28242951271992L84.67393664169312,130.58109085646063L85.19340864562989,137.91382532290055L85.71288064956666,134.23399720772363L86.23235265350343,138.65089324287345L86.7518246574402,135.42456314195303L87.27129666137697,145.38905955472887L87.79076866531372,130.51942944712712L88.31024066925049,129.95956684128276L88.82971267318726,146.53646396371107L89.34918467712401,141.20930592525104L89.86865668106078,137.9151818836478L90.38812868499755,136.45749769154335L90.90760068893432,134.44325583602543L91.42707269287109,137.3109205301871L91.94654469680786,141.83658740830413L92.46601670074462,138.43493948801122L92.98548870468139,136.01247513761078L93.50496070861816,138.57397356947985L94.02443271255493,141.06357915269908L94.5439047164917,141.1757620990898L95.06337672042847,135.249744595387L95.58284872436523,147.5836265705463L96.102320728302,134.70104865206707L96.62179273223877,141.32835204612243L97.14126473617554,138.0751513263073L97.6607367401123,142.98396746251532L98.18020874404907,149.5030528669062L98.69968074798584,142.3462889277028L99.2191527519226,143.86671101002096L99.73862475585938,140.34467745644915L100.25809675979615,138.39093528768586L100.77756876373292,139.3291882293589L101.29704076766969,137.02049962737553L101.81651277160645,144.18185931187526L102.33598477554322,147.97938672908472L102.85545677947998,141.28656412996222L103.37492878341675,143.13871037130838L103.89440078735352,140.52942544317054L104.41387279129029,146.13753524945957L104.93334479522706,146.76109532349687L105.45281679916383,142.81659660493503L105.97228880310058,139.5695381583776L106.49176080703735,143.6487187608222L107.01123281097412,139.3360173071601L107.53070481491088,143.76815942898455L108.05017681884765,141.88084002729417L108.56964882278442,146.75133393126177L109.08912082672119,140.13968578403458L109.60859283065795,143.99032365046344L110.12806483459472,145.68134846847965L110.6475368385315,148.02622095380562L111.16700884246826,139.37058890465948L111.68648084640503,140.30780920404018L112.2059528503418,146.314156049083L112.72542485427856,144.70773970567956L113.24489685821533,141.6928991300887L113.7643688621521,136.64512684767945L114.28384086608887,144.99458045714744L114.80331287002564,151.2311602593166L115.3227848739624,138.07208749610973L115.84225687789917,147.9446178579399L116.36172888183594,147.7739396224516L116.88120088577271,148.78173030641432L117.40067288970947,144.1927970395519L117.92014489364624,149.5014503229714L118.43961689758301,145.14785477324645L118.95908890151978,148.4469398817117L119.47856090545655,143.0735954554406L119.99803290939332,142.39722936682196L120.51750491333009,148.33038525391828L121.03697691726686,145.28720303126153L121.55644892120362,148.24698721142647L122.07592092514038,145.01134384605817L122.59539292907714,145.03365038085894L123.1148649330139,143.07540014397506L123.63433693695067,152.46410836611972L124.15380894088744,151.05634414822765L124.67328094482421,147.6512670761715L125.19275294876098,151.7338622175167L125.71222495269775,148.88016985550396L126.23169695663452,147.1074907966028L126.75116896057129,146.06899605278278L127.27064096450806,148.54965856407404L127.79011296844482,139.88311557749944L128.3095849723816,145.26554189789348L128.82905697631836,149.80810855163912L129.34852898025514,151.09776917829927L129.8680009841919,134.3592684080743L130.38747298812865,151.8789630724528L130.90694499206543,141.5392010409735L131.4264169960022,151.89104303889147L131.94588899993897,150.67126355679275L132.46536100387573,151.24896116147391L132.9848330078125,143.18184754178452L133.50430501174927,145.4728935476224L134.02377701568605,148.06077063201104L134.5432490196228,143.21405185553826L135.06272102355956,146.81460762643852L135.58219302749634,150.95376428806026L136.1016650314331,147.23808351442696L136.62113703536988,152.5658845188426L137.14060903930664,152.16602788781427L137.66008104324342,153.01946533932065L138.17955304718018,148.40200289365526L138.69902505111696,151.33964371598546L139.21849705505372,149.11044908669527L139.7379690589905,151.86470335400554L140.25744106292726,149.98707958666847L140.776913066864,148.2815904701282L141.2963850708008,143.96485343090384L141.81585707473755,147.57611312367868L142.33532907867433,143.13277754908162L142.8548010826111,152.27269447856312L143.37427308654787,149.32312468937477L143.89374509048463,151.54266995837665L144.4132170944214,148.8265382141842L144.93268909835817,150.97867921884003L145.45216110229492,149.83107510073523L145.9716331062317,150.80832003085243L146.49110511016843,152.4938284932268L147.01057711410522,147.00116517264857L147.53004911804197,151.14410656569083L148.04952112197876,151.9341753384134L148.5689931259155,152.5592234889616L149.0884651298523,149.473632303483L149.60793713378905,151.02112958477267L150.1274091377258,148.41317442713392L150.6468811416626,148.73480353356348L151.16635314559934,153.8556182098159L151.68582514953613,150.64312161884942L152.20529715347288,150.70229153510496L152.72476915740967,156.47874030112337L153.24424116134642,145.48902614796305L153.7637131652832,150.6612854070953L154.28318516921996,147.3151688002637L154.80265717315675,150.76050674433552L155.3221291770935,148.42799186983814L155.84160118103026,155.42434676276469L156.36107318496704,148.06530792585684L156.8805451889038,150.87922164032068L157.40001719284058,152.93489339686445L157.91948919677733,154.72309253361448L158.43896120071412,151.8537704972831L158.95843320465087,150.51769698344117L159.47790520858766,145.5175626331973L159.9973772125244,150.67324359967876L160.51684921646117,152.99414124838734L161.03632122039795,154.39214772725995L161.5557932243347,150.16356643505117L162.0752652282715,149.03027074493573L162.59473723220825,157.00629508543705L163.11420923614503,151.7279391371984L163.63368124008178,151.42947872446464L164.15315324401857,153.30925788903926L164.67262524795532,154.06952616391033L165.19209725189208,149.57368413841584L165.71156925582886,152.1282097993345L166.23104125976562,148.82209833942258L166.7505132637024,150.58941691321655L167.26998526763916,153.98006865438234L167.78945727157594,154.0382936055213L168.3089292755127,147.3726582373171L168.82840127944948,156.90994761118026L169.34787328338624,154.0156582813114L169.867345287323,155.54976287400308L170.38681729125977,155.54945965710357L170.90628929519653,154.7056886142252L171.4257612991333,154.11981633064258L171.94523330307007,154.71024904510352L172.46470530700685,155.1212114517287L172.9841773109436,147.89179723049597L173.5036493148804,151.0485360086304L174.02312131881715,157.69784637380266L174.54259332275393,156.29684425809143L175.06206532669069,151.10980043519587L175.58153733062744,150.7712179726414L176.10100933456422,153.14482178136998L176.62048133850098,151.2584570867046L177.13995334243776,158.66924250565324L177.65942534637452,152.4772014910339L178.1788973503113,153.2917541150887L178.69836935424803,154.20180788510646L179.2178413581848,155.9186804216335L179.73731336212157,153.24217023671676L180.25678536605832,155.52652355147126L180.7762573699951,150.62181850061577L181.29572937393186,152.16731138424836L181.81520137786865,154.34853929196407L182.3346733818054,156.3840379916507L182.85414538574219,151.24828653431592L183.37361738967894,157.40242178327975L183.89308939361572,152.01622412658926L184.41256139755248,158.2179534691306L184.93203340148924,155.62709048981174L185.45150540542602,145.95531528797275L185.97097740936277,155.2063727796442L186.49044941329956,155.79794651512864L187.0099214172363,156.082155733585L187.5293934211731,155.9317857239332L188.04886542510985,157.24858974292377L188.56833742904664,158.07517484161372L189.0878094329834,153.72243170887538L189.60728143692018,152.0653257804945L190.12675344085693,152.92054600124143L190.64622544479369,156.04938760688157L191.16569744873047,155.01689266090864L191.68516945266722,160.76908772818118L192.204641456604,157.32660294553736L192.72411346054076,155.78669339316696L193.24358546447755,163.19905943675647L193.7630574684143,159.18961019703136L194.2825294723511,157.58471237360263L194.80200147628784,155.18954241511307L195.3214734802246,155.6804712769897L195.84094548416138,159.98343082223352L196.36041748809814,155.06361363594417L196.87988949203492,159.13984122239947L197.39936149597168,159.33908273337016L197.91883349990846,158.7468782093156L198.4383055038452,160.23624065211922L198.957777507782,160.27471997263288L199.47724951171875,158.08556093372616L199.9967215156555,159.9551817232976L200.5161935195923,157.60998288403962L201.03566552352905,153.7455687413688L201.55513752746583,154.80990267952976L202.0746095314026,156.71272267525217L202.59408153533937,159.42757701170325L203.11355353927613,160.49237977920686L203.6330255432129,159.3996408715753L204.15249754714966,159.4937111747393L204.67196955108645,159.33062188590887L205.1914415550232,162.71743653289641L205.71091355895996,160.3789401266302L206.23038556289674,156.6782789403008L206.7498575668335,158.28937992391488L207.26932957077028,160.33881929454805L207.78880157470704,157.63197889550958L208.30827357864382,158.76143383823108L208.82774558258058,157.3314385853285L209.34721758651736,160.67578216482798L209.86668959045411,162.57042139295612L210.38616159439087,160.84240167772148L210.90563359832765,156.680892207234L211.42510560226438,160.554964234363L211.94457760620116,161.32636994603325L212.46404961013792,162.8050321201779L212.9835216140747,155.49238546889652L213.50299361801146,158.84700919725438L214.02246562194824,160.49697917771886L214.541937625885,161.52404666296425L215.06140962982175,161.35560906641217L215.58088163375854,157.95477824868786L216.1003536376953,163.67681845619015L216.61982564163208,161.45600430361677L217.13929764556883,162.16847877578772L217.65876964950562,159.489080115025L218.17824165344237,161.2424653243037L218.69771365737915,162.66162148635243L219.2171856613159,160.63850475226542L219.7366576652527,159.72824396669375L220.25612966918945,161.45863340115116L220.7756016731262,161.12424361243222L221.295073677063,160.32614872491155L221.81454568099974,162.1530159316508L222.33401768493653,158.01841482995314L222.85348968887328,157.7074567664573L223.37296169281007,162.72020810584138L223.89243369674682,160.4294385266549L224.4119057006836,161.37228234267008L224.93137770462036,158.99279198577972L225.45084970855712,161.579903112619L225.9703217124939,164.75305700643824L226.48979371643065,160.12089158549256L227.00926572036744,162.84726451090972L227.5287377243042,161.65144768804285L228.04820972824098,160.8836586598729L228.56768173217773,160.31856343146936L229.08715373611452,160.5258444523622L229.60662574005127,161.1080330768242L230.12609774398803,160.72449536013502L230.6455697479248,161.23192823261078L231.16504175186157,159.93100474208055L231.68451375579835,162.88298808907956L232.2039857597351,164.28321328759444L232.7234577636719,159.77030587402822L233.24292976760864,161.23102832382065L233.76240177154543,162.62021472235907L234.28187377548218,163.75672158903689L234.80134577941894,158.76001151960202L235.32081778335572,162.5974515356012L235.84028978729248,160.6650599768751L236.35976179122926,162.44974837337887L236.87923379516602,162.5784231529832L237.3987057991028,163.62064539451177L237.91817780303955,159.64801569765356L238.43764980697634,162.5562834483641L238.9571218109131,162.4377585195931L239.47659381484988,163.6746630589526L239.99606581878663,162.80248704660366L240.5155378227234,161.77903746259707L241.03500982666017,164.29893185682735L241.55448183059693,161.06700746499772L242.0739538345337,163.63542995827507L242.59342583847047,163.66631789665377L243.11289784240725,162.65850407565856L243.63236984634398,159.455146612527L244.15184185028076,162.48474617937157L244.67131385421752,157.78482700311528" fill="none"></path></g></g></g></g></g></g><g transform="translate(70, 174)" clip-path="url(#clip_1)"><clipPath id="clip_1"><rect width="259" height="25"></rect></clipPath><g><g><line x1="0" y1="0" x2="0" y2="5" style="visibility: inherit;" fill="rgb(0, 0, 0)" stroke="rgb(200, 195, 188)" stroke-width="1px"></line><line x1="25.97360019683838" y1="0" x2="25.97360019683838" y2="5" style="visibility: inherit;" fill="rgb(0, 0, 0)" stroke="rgb(200, 195, 188)" stroke-width="1px"></line><line x1="51.94720039367676" y1="0" x2="51.94720039367676" y2="5" style="visibility: inherit;" fill="rgb(0, 0, 0)" stroke="rgb(200, 195, 188)" stroke-width="1px"></line><line x1="77.92080059051513" y1="0" x2="77.92080059051513" y2="5" style="visibility: inherit;" fill="rgb(0, 0, 0)" stroke="rgb(200, 195, 188)" stroke-width="1px"></line><line x1="103.89440078735352" y1="0" x2="103.89440078735352" y2="5" style="visibility: inherit;" fill="rgb(0, 0, 0)" stroke="rgb(200, 195, 188)" stroke-width="1px"></line><line x1="129.8680009841919" y1="0" x2="129.8680009841919" y2="5" style="visibility: inherit;" fill="rgb(0, 0, 0)" stroke="rgb(200, 195, 188)" stroke-width="1px"></line><line x1="155.84160118103026" y1="0" x2="155.84160118103026" y2="5" style="visibility: inherit;" fill="rgb(0, 0, 0)" stroke="rgb(200, 195, 188)" stroke-width="1px"></line><line x1="181.81520137786865" y1="0" x2="181.81520137786865" y2="5" style="visibility: inherit;" fill="rgb(0, 0, 0)" stroke="rgb(200, 195, 188)" stroke-width="1px"></line><line x1="207.78880157470704" y1="0" x2="207.78880157470704" y2="5" style="visibility: inherit;" fill="rgb(0, 0, 0)" stroke="rgb(200, 195, 188)" stroke-width="1px"></line><line x1="233.76240177154543" y1="0" x2="233.76240177154543" y2="5" style="visibility: inherit;" fill="rgb(0, 0, 0)" stroke="rgb(200, 195, 188)" stroke-width="1px"></line><line x1="259.7360019683838" y1="0" x2="259.7360019683838" y2="5" style="visibility: inherit;" fill="rgb(0, 0, 0)" stroke="rgb(200, 195, 188)" stroke-width="1px"></line></g><g transform="translate(0, 8)"><text style="text-anchor: middle; visibility: hidden; font-family: Roboto, sans-serif; font-size: 12px; font-weight: 200;" x="0" y="0" dx="0em" dy="0.95em" fill="rgb(232, 230, 227)" stroke="none" stroke-width="1px">-500</text><text style="text-anchor: middle; visibility: inherit; font-family: Roboto, sans-serif; font-size: 12px; font-weight: 200;" x="25.97360019683838" y="0" dx="0em" dy="0.95em" fill="rgb(232, 230, 227)" stroke="none" stroke-width="1px">0</text><text style="text-anchor: middle; visibility: inherit; font-family: Roboto, sans-serif; font-size: 12px; font-weight: 200;" x="51.94720039367676" y="0" dx="0em" dy="0.95em" fill="rgb(232, 230, 227)" stroke="none" stroke-width="1px">500</text><text style="text-anchor: middle; visibility: inherit; font-family: Roboto, sans-serif; font-size: 12px; font-weight: 200;" x="77.92080059051513" y="0" dx="0em" dy="0.95em" fill="rgb(232, 230, 227)" stroke="none" stroke-width="1px">1k</text><text style="text-anchor: middle; visibility: inherit; font-family: Roboto, sans-serif; font-size: 12px; font-weight: 200;" x="103.89440078735352" y="0" dx="0em" dy="0.95em" fill="rgb(232, 230, 227)" stroke="none" stroke-width="1px">1.5k</text><text style="text-anchor: middle; visibility: inherit; font-family: Roboto, sans-serif; font-size: 12px; font-weight: 200;" x="129.8680009841919" y="0" dx="0em" dy="0.95em" fill="rgb(232, 230, 227)" stroke="none" stroke-width="1px">2k</text><text style="text-anchor: middle; visibility: inherit; font-family: Roboto, sans-serif; font-size: 12px; font-weight: 200;" x="155.84160118103026" y="0" dx="0em" dy="0.95em" fill="rgb(232, 230, 227)" stroke="none" stroke-width="1px">2.5k</text><text style="text-anchor: middle; visibility: inherit; font-family: Roboto, sans-serif; font-size: 12px; font-weight: 200;" x="181.81520137786865" y="0" dx="0em" dy="0.95em" fill="rgb(232, 230, 227)" stroke="none" stroke-width="1px">3k</text><text style="text-anchor: middle; visibility: inherit; font-family: Roboto, sans-serif; font-size: 12px; font-weight: 200;" x="207.78880157470704" y="0" dx="0em" dy="0.95em" fill="rgb(232, 230, 227)" stroke="none" stroke-width="1px">3.5k</text><text style="text-anchor: middle; visibility: inherit; font-family: Roboto, sans-serif; font-size: 12px; font-weight: 200;" x="233.76240177154543" y="0" dx="0em" dy="0.95em" fill="rgb(232, 230, 227)" stroke="none" stroke-width="1px">4k</text><text style="text-anchor: middle; visibility: hidden; font-family: Roboto, sans-serif; font-size: 12px; font-weight: 200;" x="259.7360019683838" y="0" dx="0em" dy="0.95em" fill="rgb(232, 230, 227)" stroke="none" stroke-width="1px">4.5k</text></g><line x1="0" y1="0" x2="259.7360019683838" y2="0" fill="rgb(0, 0, 0)" stroke="rgb(200, 195, 188)" stroke-width="1px"></line></g></g></g></g></svg>