<svg viewBox="0 0 1629 400" xmlns="http://www.w3.org/2000/svg"><g><g><g><g><g><line x1="41.171875" y1="377" x2="36.171875" y2="377" style="visibility: inherit;" fill="rgb(0, 0, 0)" stroke="rgb(204, 204, 204)" stroke-width="1px"></line><line x1="41.171875" y1="339.3" x2="36.171875" y2="339.3" style="visibility: inherit;" fill="rgb(0, 0, 0)" stroke="rgb(204, 204, 204)" stroke-width="1px"></line><line x1="41.171875" y1="301.6" x2="36.171875" y2="301.6" style="visibility: inherit;" fill="rgb(0, 0, 0)" stroke="rgb(204, 204, 204)" stroke-width="1px"></line><line x1="41.171875" y1="263.9" x2="36.171875" y2="263.9" style="visibility: inherit;" fill="rgb(0, 0, 0)" stroke="rgb(204, 204, 204)" stroke-width="1px"></line><line x1="41.171875" y1="226.2" x2="36.171875" y2="226.2" style="visibility: inherit;" fill="rgb(0, 0, 0)" stroke="rgb(204, 204, 204)" stroke-width="1px"></line><line x1="41.171875" y1="188.5" x2="36.171875" y2="188.5" style="visibility: inherit;" fill="rgb(0, 0, 0)" stroke="rgb(204, 204, 204)" stroke-width="1px"></line><line x1="41.171875" y1="150.8" x2="36.171875" y2="150.8" style="visibility: inherit;" fill="rgb(0, 0, 0)" stroke="rgb(204, 204, 204)" stroke-width="1px"></line><line x1="41.171875" y1="113.10000000000002" x2="36.171875" y2="113.10000000000002" style="visibility: inherit;" fill="rgb(0, 0, 0)" stroke="rgb(204, 204, 204)" stroke-width="1px"></line><line x1="41.171875" y1="75.39999999999998" x2="36.171875" y2="75.39999999999998" style="visibility: inherit;" fill="rgb(0, 0, 0)" stroke="rgb(204, 204, 204)" stroke-width="1px"></line><line x1="41.171875" y1="37.69999999999999" x2="36.171875" y2="37.69999999999999" style="visibility: inherit;" fill="rgb(0, 0, 0)" stroke="rgb(204, 204, 204)" stroke-width="1px"></line><line x1="41.171875" y1="0" x2="36.171875" y2="0" style="visibility: inherit;" fill="rgb(0, 0, 0)" stroke="rgb(204, 204, 204)" stroke-width="1px"></line></g><g transform="translate(31.171875, 0)"><text x="0" y="377" dx="0em" dy="0.3em" style="text-anchor: end; visibility: hidden; font-family: Roboto, sans-serif; font-size: 12px; font-weight: 200;" fill="rgb(255, 255, 255)" stroke="none" stroke-width="1px">0</text><text x="0" y="339.3" dx="0em" dy="0.3em" style="text-anchor: end; visibility: inherit; font-family: Roboto, sans-serif; font-size: 12px; font-weight: 200;" fill="rgb(255, 255, 255)" stroke="none" stroke-width="1px">0.5</text><text x="0" y="301.6" dx="0em" dy="0.3em" style="text-anchor: end; visibility: inherit; font-family: Roboto, sans-serif; font-size: 12px; font-weight: 200;" fill="rgb(255, 255, 255)" stroke="none" stroke-width="1px">1</text><text x="0" y="263.9" dx="0em" dy="0.3em" style="text-anchor: end; visibility: inherit; font-family: Roboto, sans-serif; font-size: 12px; font-weight: 200;" fill="rgb(255, 255, 255)" stroke="none" stroke-width="1px">1.5</text><text x="0" y="226.2" dx="0em" dy="0.3em" style="text-anchor: end; visibility: inherit; font-family: Roboto, sans-serif; font-size: 12px; font-weight: 200;" fill="rgb(255, 255, 255)" stroke="none" stroke-width="1px">2</text><text x="0" y="188.5" dx="0em" dy="0.3em" style="text-anchor: end; visibility: inherit; font-family: Roboto, sans-serif; font-size: 12px; font-weight: 200;" fill="rgb(255, 255, 255)" stroke="none" stroke-width="1px">2.5</text><text x="0" y="150.8" dx="0em" dy="0.3em" style="text-anchor: end; visibility: inherit; font-family: Roboto, sans-serif; font-size: 12px; font-weight: 200;" fill="rgb(255, 255, 255)" stroke="none" stroke-width="1px">3</text><text x="0" y="113.10000000000002" dx="0em" dy="0.3em" style="text-anchor: end; visibility: inherit; font-family: Roboto, sans-serif; font-size: 12px; font-weight: 200;" fill="rgb(255, 255, 255)" stroke="none" stroke-width="1px">3.5</text><text x="0" y="75.39999999999998" dx="0em" dy="0.3em" style="text-anchor: end; visibility: inherit; font-family: Roboto, sans-serif; font-size: 12px; font-weight: 200;" fill="rgb(255, 255, 255)" stroke="none" stroke-width="1px">4</text><text x="0" y="37.69999999999999" dx="0em" dy="0.3em" style="text-anchor: end; visibility: inherit; font-family: Roboto, sans-serif; font-size: 12px; font-weight: 200;" fill="rgb(255, 255, 255)" stroke="none" stroke-width="1px">4.5</text><text x="0" y="0" dx="0em" dy="0.3em" style="text-anchor: end; visibility: hidden; font-family: Roboto, sans-serif; font-size: 12px; font-weight: 200;" fill="rgb(255, 255, 255)" stroke="none" stroke-width="1px">5</text></g><line x1="41.171875" y1="0" x2="41.171875" y2="377" fill="rgb(0, 0, 0)" stroke="rgb(204, 204, 204)" stroke-width="1px"></line></g></g><g transform="translate(41, 0)" clip-path="url(#clip_0)"><clipPath id="clip_0"><rect width="1587" height="377"></rect></clipPath><g><g><g><line x1="0" y1="0" x2="0" y2="377" fill="rgb(0, 0, 0)" stroke="rgb(189, 189, 189)" stroke-width="1px" opacity="0.25"></line><line x1="132.31901041666666" y1="0" x2="132.31901041666666" y2="377" fill="rgb(0, 0, 0)" stroke="rgb(189, 189, 189)" stroke-width="1px" opacity="0.25"></line><line x1="264.6380208333333" y1="0" x2="264.6380208333333" y2="377" fill="rgb(0, 0, 0)" stroke="rgb(189, 189, 189)" stroke-width="1px" opacity="0.25"></line><line x1="396.95703125" y1="0" x2="396.95703125" y2="377" fill="rgb(0, 0, 0)" stroke="rgb(189, 189, 189)" stroke-width="1px" opacity="0.25"></line><line x1="529.2760416666666" y1="0" x2="529.2760416666666" y2="377" fill="rgb(0, 0, 0)" stroke="rgb(189, 189, 189)" stroke-width="1px" opacity="0.25"></line><line x1="661.5950520833333" y1="0" x2="661.5950520833333" y2="377" fill="rgb(0, 0, 0)" stroke="rgb(189, 189, 189)" stroke-width="1px" opacity="0.25"></line><line x1="793.9140624999998" y1="0" x2="793.9140624999998" y2="377" fill="rgb(0, 0, 0)" stroke="rgb(189, 189, 189)" stroke-width="1px" opacity="0.25"></line><line x1="926.2330729166665" y1="0" x2="926.2330729166665" y2="377" fill="rgb(0, 0, 0)" stroke="rgb(189, 189, 189)" stroke-width="1px" opacity="0.25"></line><line x1="1058.552083333333" y1="0" x2="1058.552083333333" y2="377" fill="rgb(0, 0, 0)" stroke="rgb(189, 189, 189)" stroke-width="1px" opacity="0.25"></line><line x1="1190.8710937499998" y1="0" x2="1190.8710937499998" y2="377" fill="rgb(0, 0, 0)" stroke="rgb(189, 189, 189)" stroke-width="1px" opacity="0.25"></line><line x1="1323.1901041666665" y1="0" x2="1323.1901041666665" y2="377" fill="rgb(0, 0, 0)" stroke="rgb(189, 189, 189)" stroke-width="1px" opacity="0.25"></line><line x1="1455.5091145833333" y1="0" x2="1455.5091145833333" y2="377" fill="rgb(0, 0, 0)" stroke="rgb(189, 189, 189)" stroke-width="1px" opacity="0.25"></line><line x1="1587.828125" y1="0" x2="1587.828125" y2="377" fill="rgb(0, 0, 0)" stroke="rgb(189, 189, 189)" stroke-width="1px" opacity="0.25"></line></g><g><line x1="0" y1="377" x2="1587.828125" y2="377" fill="rgb(0, 0, 0)" stroke="rgb(189, 189, 189)" stroke-width="1px" opacity="0.25"></line><line x1="0" y1="339.3" x2="1587.828125" y2="339.3" fill="rgb(0, 0, 0)" stroke="rgb(189, 189, 189)" stroke-width="1px" opacity="0.25"></line><line x1="0" y1="301.6" x2="1587.828125" y2="301.6" fill="rgb(0, 0, 0)" stroke="rgb(189, 189, 189)" stroke-width="1px" opacity="0.25"></line><line x1="0" y1="263.9" x2="1587.828125" y2="263.9" fill="rgb(0, 0, 0)" stroke="rgb(189, 189, 189)" stroke-width="1px" opacity="0.25"></line><line x1="0" y1="226.2" x2="1587.828125" y2="226.2" fill="rgb(0, 0, 0)" stroke="rgb(189, 189, 189)" stroke-width="1px" opacity="0.25"></line><line x1="0" y1="188.5" x2="1587.828125" y2="188.5" fill="rgb(0, 0, 0)" stroke="rgb(189, 189, 189)" stroke-width="1px" opacity="0.25"></line><line x1="0" y1="150.8" x2="1587.828125" y2="150.8" fill="rgb(0, 0, 0)" stroke="rgb(189, 189, 189)" stroke-width="1px" opacity="0.25"></line><line x1="0" y1="113.10000000000002" x2="1587.828125" y2="113.10000000000002" fill="rgb(0, 0, 0)" stroke="rgb(189, 189, 189)" stroke-width="1px" opacity="0.25"></line><line x1="0" y1="75.39999999999998" x2="1587.828125" y2="75.39999999999998" fill="rgb(0, 0, 0)" stroke="rgb(189, 189, 189)" stroke-width="1px" opacity="0.25"></line><line x1="0" y1="37.69999999999999" x2="1587.828125" y2="37.69999999999999" fill="rgb(0, 0, 0)" stroke="rgb(189, 189, 189)" stroke-width="1px" opacity="0.25"></line><line x1="0" y1="0" x2="1587.828125" y2="0" fill="rgb(0, 0, 0)" stroke="rgb(189, 189, 189)" stroke-width="1px" opacity="0.25"></line></g></g></g><g><g><line x1="0" y1="377" x2="1587.828125" y2="377" fill="rgb(0, 0, 0)" stroke="rgb(153, 153, 153)" stroke-width="1.5px"></line></g></g><g><g><line x1="132.31901041666666" y1="0" x2="132.31901041666666" y2="377" fill="rgb(0, 0, 0)" stroke="rgb(153, 153, 153)" stroke-width="1.5px"></line></g></g><g><g><g><g><g><path stroke="rgb(255, 112, 67)" stroke-width="2px" d="M132.31901041666666,64.25314989089964L133.1283616970486,72.14804390801318L135.56817722800926,69.78994803194138L135.97469063223377,58.661239708277606L137.46548481626158,58.185987537625564L139.49841939019097,52.498922475501594L139.90640300564235,44.205472449665024L142.6134294270833,50.20012484057289L150.88373513093168,53.378878574875564L151.29318895760994,54.856664770531836L152.50942119502312,58.93014273823671L154.68129072989004,57.55999231177378L154.9525447012442,62.260102454698924L160.9241751519097,56.1744614185674L161.60414784432868,59.10479077978584L164.45782783564815,59.32296299416343L165.13633031684026,60.88275056688644L166.08902719184027,59.64461491151633L166.90536197554977,58.339842488266584L171.6648032696759,71.7052972846254L171.93752745225692,72.65168905640193L173.0229108904803,76.763832196913L175.87732598741317,78.21939753611964L176.95205039424187,79.73975423277142L179.66495766059026,82.66997654340507L186.99138775679972,74.87901766293442L187.12370676721642,79.8344137301839L189.82595500217013,88.162344483855L190.23540882884836,92.6636953955068L192.2584194769965,83.7539387751614L192.66052224754048,86.89386850694596L192.7972518916377,82.1941414741193L194.146538245081,96.67232666667556L196.7153648111979,100.88825427729805L199.54368365885418,97.2538000848902L202.51792097077544,93.72690755168148L206.15926662688074,109.83602128811893L207.51296361400463,104.59701764355633L208.31937447193286,111.11475039223237L209.26325007957178,119.94606686753644L209.39924461805552,122.84722515040713L213.8620707971643,117.23945647980655L214.12891413483794,124.54373501296031L215.74724914279508,114.43118839607892L216.6981082537616,113.445175790587L216.82895705295138,109.95733893666326L217.10094612991898,113.92711741736933L217.50488666449655,127.19271903190997L217.7768757414641,127.8488682994962L219.39704851345485,116.08923537136917L220.74302689163773,115.20968241163295L226.5363942310474,117.06657260040564L227.6162643771701,120.65176168085648L228.69576697048606,125.26973569213003L229.9119992078993,119.59034904180301L231.661550567853,122.97762183036427L232.20148564091434,120.24617368500509L233.41551256148728,122.17874886200974L233.95508008174187,111.68877481695328L234.2281718171296,114.34387725882947L234.4942800491898,126.18748653221179L235.4359503399884,131.5392255938957L236.11335016276038,131.4556095068746L236.38717700376154,126.34354274812006L237.05759332320602,114.97346048114304L237.33068505859373,122.5639649729478L237.8720903428819,130.69288080961053L238.41312807436339,130.8849094791654L239.22247935474536,131.02269486745624L239.359944104456,134.26608254842398L242.4705435076678,129.12845452333914L243.00974347511573,133.0315590622174L247.47698028790506,146.6812705478922L248.4226936595775,151.93279366299325L249.23792578486686,147.42105667427435L251.12861742259835,140.69950862369814L251.66928760127308,131.38279244094528L252.61830894820596,127.83331782388211L252.88441718026613,120.94255996400543L253.96649264322915,123.08062599665159L255.86637310112843,125.92575399419853L257.3545944155092,129.88157257373913L257.7592700557002,138.63874384644762L258.9758698459201,129.63799441883415L260.0572102032697,144.65185728046944L261.2763828631366,138.27449719315305L261.4079667679398,135.08668115869563L262.2209935763889,138.0237555077148L262.3584583260995,140.64903468202033L263.0303448567708,132.1734936291952L265.4690577293113,115.54681493579993L265.8744684751157,119.49264963104315L267.09400868778937,126.4209712511761L272.89766750578696,137.60989184346724L273.7066512333622,138.57402895961079L274.11022421513303,128.97539740302733L274.38441860894096,119.173756686909L274.924721234809,132.964610326756L275.7329698567708,137.41332254560336L276.40889946831595,142.64860010374176L277.76553687789345,132.6229964162748L278.5759908166956,132.75258361069785L279.25412574508096,140.0142364125548L280.6004716760705,134.5150039843976L286.2868811487268,131.0734881726399L286.82865398582175,135.20716542007702L286.96501607711224,139.435959110458L287.09659998191546,143.10254510717152L289.5294320095486,127.38507910746321L291.28780463686337,131.70501900505917L293.0516905562789,131.14757277163403L298.19375432219323,126.34347369499264L299.68013787254046,130.93272263394775L300.0844459599247,143.10391902447304L300.49316468098954,135.20329360575226L303.1998235496238,129.0484095732872L304.0069695131655,135.8195286115722L304.95231533203116,143.845031611211L305.7660772460937,143.81500908222736L307.9346388057002,147.69519476960573L308.3389468930844,146.23001743372382L309.82716820746526,142.39246482702393L310.23772469256363,144.5046339309424L310.64240033275456,131.43674646664073L310.77802731843167,140.9358572677718L317.26533435691545,146.25287387498122L317.6711126555266,138.6717670832271L318.0809340350115,153.0577193954997L318.212150387008,150.25362872913695L321.1904307798032,157.3293580232894L322.81280886863425,162.81674615374004L324.1650356445312,166.86120803062818L324.70717603443285,156.3926253295305L328.09380759548606,166.5820257454217L328.23090479239,166.49841709368238L329.7143479202835,163.89311086839666L330.7967909360532,153.87119117503298L331.6109204029225,148.6408443317803L335.9443679940683,156.33899725802704L336.48540572554975,155.07492941958074L339.8683617585358,149.29841335568707L342.0405988462095,148.2931360686134L342.18467954644086,151.4003338213214L344.22055454282406,150.7099039837081L344.7645326967592,153.41763131494199L346.9349320203993,160.37417053123218L347.07055900607634,152.93589036099036L350.0561904550057,156.6777712125136L351.408049678096,157.4141928973638L351.812725318287,163.91242456935595L352.4912277994791,160.04827399653394L352.89810875651034,154.78666593871267L354.5260001374421,157.52724198215614L355.6102809172453,173.39568183989056L356.56187513382514,179.4846248672066L357.51089648075805,184.33532173519598L358.7341122214988,180.44060657410043L359.27735526982053,180.99180962871088L359.54603637152775,165.87366982325372L359.82059831814234,166.1764212387757L360.2278468279802,158.31888715886723L361.17760328052657,159.66826975555145L362.3993488100405,160.78971561599508L364.2889377893518,164.56968320217717L364.55688378544556,157.04482208893288L364.9681753761573,163.65838233316416L365.6422672236689,164.84746940679923L366.05282370876733,170.85119759041135L366.1847751663773,167.01784220852906L368.89694732711223,176.16609006816904L370.1161199869792,177.02683542962677L370.93466008752887,174.4409719180728L371.8840489872685,165.488745676014L372.0218812897859,173.11098450544134L373.24472947771983,182.595403166792L374.19926411675345,175.72075622255105L377.0511063440393,164.85402278085152L377.5939818395543,162.75599319759684L378.95245701316543,165.48076857426705L379.4957000614871,170.61058252413227L380.7181806966145,165.77741285768477L382.48022885199646,160.76845397160315L382.89299065393516,154.7495147451231L383.7041796983507,162.2238092028673L383.97910919777195,173.1903613633772L388.5885889467592,177.1689421039311L389.4063939416955,170.01548918576944L391.7102149341725,170.8567001922282L393.07016031901037,174.9105476270797L393.4766737232349,173.1934345730688L393.7497654586227,174.92277753897872L396.19105120081014,172.13436344582533L398.09387208116317,175.01082993283828L398.36292073567705,183.98310717213124L400.8089846643518,180.23453506364797L401.3525952654803,185.103792811508L402.44275689019094,184.84978149499497L404.74804809389457,186.2221348616759L405.5636477719907,185.49682884957633L408.8234736147279,176.11284291860454L410.58993240379056,169.0452470979452L410.9817436957465,178.7299638908195L411.1195759982639,188.10349086134335L411.6642892578125,183.4983148639099L412.2071647533275,184.47137754954466L412.7507753544559,190.4194982989436L413.7012669126157,183.49642244210284L415.7404498842592,185.5895533532337L420.3477243164062,178.78685044053677L420.8898647063078,176.96692273142722L421.8392536060474,171.62929813959428L423.0621017939814,159.80273175317632L426.0499385597511,163.61532112184034L426.3186196614583,176.47655860760108L426.59281405526616,176.99927776796258L427.26837611400464,180.8679125765374L427.6793001519097,172.60792526081488L428.76505114293974,188.01742089808215L429.3071915328414,183.62169877863113L432.0212014576099,190.66804645042566L432.6963959635416,184.63386360153316L432.8323905020254,189.38842568194679L433.10695244863996,185.78434835271682L433.51273074725106,188.40404983199954L434.0563413483796,185.56195074587913L434.1930709924768,185.46794654106978L435.1413572337963,182.1031685159674L435.546400426794,186.1685228765862L436.2252704607928,198.39921329028263L438.80181563585063,193.8779923534938L440.16102591507513,187.27716452412193L440.971847406684,192.28706531947762L441.78818219039346,181.16011009554794L442.33399810836227,175.32826479228913L443.9637272533274,177.12287778498794L444.0956787109375,173.6465800638363L447.4867209056712,169.90129000626922L448.71140685763885,174.14863555497269L453.4697454933449,173.85110117011342L453.6068426902487,178.11455884784914L453.87405358072914,177.97746741938957L459.8409058449073,176.93672390117936L460.9292297055845,182.3700189696526L461.87678084129044,177.90018995179938L462.1498725766781,181.9315598231491L462.4192887839987,185.2127755722949L463.10146679325806,180.59487526588038L466.4961845160591,186.0801722349516L466.62813597366903,186.68628268732954L467.9888164641203,184.76562517558995L468.2574975658275,176.42566098908952L468.93600004701966,181.06247441085475L470.83882092737264,190.2094836418811L471.65000997178817,192.46900038281947L472.8735932653356,187.08450005181524L474.9087331561052,192.4124256334932L475.4516086516203,188.54356076894058L475.7254354926215,185.3421327414342L479.114272370515,188.62423576849523L480.74179619864,184.10212437262396L482.1013740306713,187.42778656284221L482.91403328631355,189.45857600053316L485.2218973596642,194.10469118182L486.0389672489872,190.38705657819222L486.17091870659715,196.15104607661013L488.07300448133674,188.28822083727079L488.88529618417243,194.6069182416245L489.5641662181713,193.08688306970953L492.6843219943576,189.08874625335977L493.6384890805844,191.68175591763534L494.3133160337094,193.08991253325684L496.0783046115451,203.97906116922175L497.0247530888309,211.8209052759765L499.0643036132812,204.7540006985949L500.69587052227996,206.71256744310745L501.1012812680844,208.00654439485461L502.9974861979166,208.10029737119987L507.7400200629339,205.22470567993412L507.8774848126446,215.58021712916766L508.0149495623553,204.50199378504496L510.4536624348957,200.8877376347712L512.4899049840855,195.19463655709674L519.005881141493,189.46423464583913L520.2294644350403,190.95883030547745L521.4545179398148,200.39877340518672L522.2657069842302,202.87001168984762L525.1215922923899,207.6509833213376L525.3965217918113,204.173763951992L525.5277381438078,203.1832720067779L531.9143357132522,193.12368924352964L533.0074377604165,201.5619333675181L536.1272259837962,202.13818184301655L537.8955225368923,215.52908991468271L538.4376629267939,214.34975941572446L540.0622463324652,209.7204873783895L540.4691272894964,215.53840541231702L541.5523054108795,232.9715023230558L541.958818815104,227.79858550636337L545.220482421875,213.02397790597573L545.7618877061632,207.4301438669101L546.0368172055844,199.2684924014199L549.8354754629629,201.65563742699533L552.9423993381075,211.21987799789358L554.984155179398,210.50809480020084L556.0702737232349,219.1457143979762L556.7443655707465,221.79445666452204L557.4254409215856,226.3871804076827L558.2439810221354,216.27348582890798L560.4169532154224,220.06631960985794L562.8578714048032,217.4613882074176L562.9957037073206,215.3581504257058L563.9476654767071,218.29543673765937L564.353811328125,209.8023595601104L567.609961642795,212.27798487899958L568.9702745804398,217.72979945467515L569.3753177734375,215.45484401167715L569.512782523148,218.96333179617946L569.7796258608217,214.2339402877889L569.9163555049188,217.49498934933362L573.3209971535011,222.64223891408298L574.5420075774016,224.05435628820302L577.7999956561052,221.1930331033774L578.886114199942,220.69182094910207L580.7793787073205,226.82590535146764L580.9172110098378,237.01608987699169L583.2261777416088,219.41132688244357L587.1597278790509,217.83437327162565L587.4350249312788,223.7985712100358L588.7898245768229,210.6994922486378L591.0976886501736,214.39846082428556L591.7780288953993,214.01822584708108L594.7599848162615,211.65378601900395L595.8486762297453,216.889635136538L597.3468214699074,218.2694635222858L597.6162376772279,217.91348381602813L598.5667292353877,218.504556603146L599.3698321180555,221.01419801784544L600.3262045211226,226.33017804680657L601.1395988823784,216.76020099686298L601.5461122866029,216.91348606718947L603.8561816767939,220.24105419455665L605.4859108217591,217.81825604866899L605.8931593315972,222.18668589934475L609.0206661639178,229.68090672766976L609.2889797128182,231.5265045426354L610.1078873661746,229.5963524549854L610.650395308883,220.97497058627224L612.8336589807581,224.88274867150957L615.136009762008,230.21754744222778L617.8518574508101,239.62490823404804L620.2975538266783,237.4479552422906L620.5662349283854,230.32126178065496L620.8404293221934,232.17964189942327L621.2440023039642,223.7053149389875L621.6497806025751,223.5009938754759L623.9583797815392,220.17562253301315L625.4469686487267,224.60775804380555L627.3501570818864,232.93564977057756L631.695366362847,229.97596481806423L634.9555597583911,239.41739734940836L635.4991703595197,236.81465681499728L635.7693216724537,228.1110445094624L636.5863915617765,225.43765788654636L636.9998884693287,218.46262106402835L637.2744504159433,209.8493763407399L638.4928879701966,210.50468772572913L639.4474226092302,204.9165109628251L641.2068978949652,205.29921320866038L642.291913780382,204.98894108923665L644.0602103334779,207.2729874546718L644.3344047272858,213.59200947248073L644.7394479202835,224.1812992140701L646.8980855541087,219.24209436774657L647.5780582465277,229.2717643594774L647.8518850875288,235.12605226803086L649.2059496274594,239.89044093742575L649.7502953342013,248.6528147336213L653.6864183412905,257.3704341456388L654.3667585865161,247.00976747871198L655.3161474862557,235.54440972805625L661.285572620081,220.65161980629446L662.3709560583043,231.3183549280205L663.3196098524304,223.01795720062563L663.864323111979,232.70253510158784L665.3536470847799,233.53322341665847L666.1699818684896,228.89974939525302L666.9815384657118,234.76317207098145L669.9704778899016,239.1764910402309L671.4623747323494,236.85473082084746L672.1430825303819,222.53093154922558L673.367033376736,227.36325436508997L673.4978821759258,224.93952037554064L675.1257735568577,220.2993954313682L676.622081032986,216.46588043315305L677.026756673177,213.98661729131612L684.7600677264178,221.5597499277947L685.4337920211226,221.0720437357233L685.57162432364,219.43654945925127L686.9312021556711,230.84499197352133L696.8334423213252,229.90289930620352L698.3246040581596,227.24255238945133L698.4613337022568,227.56817641874034L698.730014803964,235.64736037746968L699.0045767505786,231.858790926106L699.4107226019964,223.4525746663151L699.5485549045138,228.52599609531862L702.9418024160879,235.35985974341952L703.615159157986,237.77472856736438L704.0264507486978,244.60705448227137L705.1110990813077,251.74763205398722L706.6029959237557,247.17744622031532L707.8247414532696,249.15308595974986L708.2305197518807,254.042216993012L708.3668818431712,250.01046486428416L710.4060648148146,242.0225572056058L712.5760965856481,247.37787990144753L713.3883882884836,238.85344426768515L713.9312637839987,239.5741222678621L715.1566848415797,231.69195511333143L715.4305116825809,241.44424706452688L716.6489492368344,245.88269338411965L717.1921922851562,246.1791929229329L718.6896024197048,251.5977156912669L722.2173742585358,258.5644755105483L723.4420602105034,249.88120463214773L725.4757298900462,242.25588970440594L726.4269565538193,236.96557712759946L727.2443939959488,229.22230028316477L727.7872694914639,226.72349231088242L727.9236315827545,230.52523926134174L730.4998092050057,229.54273125358634L730.9055875036167,217.7405442176518L735.7951424913193,222.91984428868744L736.612579933449,211.38837580288296L738.6477198242187,216.46543825312332L738.9171360315393,212.36569450890124L741.2176490487557,216.47764336899996L741.3499680591723,220.94010880340005L743.9323940791376,218.00304740229342L744.0639779839407,221.2494650662668L744.4760046802661,221.6868010378462L745.692604470486,229.13613850407458L747.1907497106481,234.80590218967322L750.5762786132811,228.55557752184967L750.987570203993,220.41661848491748L752.4776292824073,221.99692794375673L752.8830400282117,233.81127086395466L753.1572344220195,231.5603502616441L753.4262830765334,237.3237314021711L755.0541744574651,240.33771165181193L757.3627736364292,233.7441026367266L760.2153509693286,244.86302542030967L761.1647398690682,242.82634436082964L762.2512259657117,254.886762217618L762.7944690140334,263.41657255485615L763.7416525969328,256.7123240295645L763.8791173466435,250.12460532693834L764.0151118851273,249.20641721176125L765.3680737666376,245.57402365435772L768.8995211335358,247.55492226783127L769.5736129810474,259.8629219293888L771.7476878327545,257.3369139671561L773.2506112594039,255.68988580228776L773.7945894133389,256.1643144283445L773.9258057653356,249.54523107796913L775.0111892035588,250.8987269289494L775.8282590928818,253.4605022865296L776.2329347330729,253.551316725235L777.4579882378471,244.47927631300357L778.0015988389756,241.52326354155275L778.9473122106481,238.77920479114323L779.0847769603588,245.4852210421202L779.8963335575809,239.6909795108507L780.7141385525173,235.47707301641066L780.9828196542244,232.15273054333178L781.3933761393229,223.40084601951955L786.1370126627603,228.05577215443708L787.7513045898437,236.26287813099745L790.3318928457753,237.14749481131653L793.4546214916087,239.66679443399127L796.1697340747971,246.738061501821L799.4295599175346,249.68308483301806L799.834970663339,252.35016078423826L801.6025321108216,250.8391069847057L802.6886506546585,241.656628519512L803.9114988425923,222.41313284414355L804.3172771412035,225.45087996305895L804.5859582429107,220.30033872272074L804.722687887008,229.39503251191374L810.6913779152198,235.6963805904102L811.5069775933157,233.66053142469025L811.9131234447336,249.40074946102217L812.8614096860531,234.75654652926693L814.6282360279223,238.82342297723588L814.8969171296294,234.224899699614L815.0336467737267,239.25402044481083L815.983403226273,237.62533354144134L818.4302022605613,237.32843007072475L821.5507255895543,234.46563327014184L822.2321684932,239.73272003412035L824.9472810763888,249.47489057445355L825.2155946252892,248.73553860397203L826.0337671730324,258.3777775685872L829.5604363534432,253.50617148724277L830.2418792570891,260.3887771117455L832.5548890697336,260.4714238633924L834.9877210973667,254.94947593611187L836.0712667715566,258.29820906004676L839.1895847837093,247.27381995265773L839.7309900679976,259.5697832150864L840.2731304578992,267.95159210074803L843.9368968352138,270.09092217531884L847.0636685619212,275.39633622047967L850.9968511465565,284.8407817020231L852.4986719147856,277.17084317320297L854.6705414496528,265.7545532140232L856.5682165907116,266.59063824916655L856.7056813404223,250.71615479870457L859.4204263708042,253.67454067455785L862.678414449508,252.9303205727502L864.848813773148,253.00132503978128L867.4253589482058,252.58870505230993L867.8307696940103,252.49902846445536L868.5107423864291,254.52194656077938L873.5373945710356,265.44908374980224L874.4860483651619,265.3804414259206L875.0285563078703,263.71720969095315L875.8441559859663,270.2188545275886L876.6553450303818,261.6257910338369L877.7414635742188,262.8072714779637L878.0156579680264,270.94510526449375L881.2607816984952,272.00926045728437L882.3457975839118,266.7229283567485L884.6543967628759,270.7553401991699L885.6037856626157,265.92155432581694L887.2346174660009,264.23545007610153L887.5088118598088,259.3767964689241L888.3225737738713,256.88802874313245L889.9512002604165,264.82944279373845L890.631908058449,263.7631495623681L891.9837672815393,274.433135099323L893.3426100079571,269.8142593440306L897.1427384765622,259.9801811931047L897.4106844726562,267.2387558172157L897.9542950737845,263.72573282798214L899.9942131510415,266.0546186930345L905.5527142469615,280.6236030917491L905.9647409432869,274.7621844896575L908.4052915798609,272.4964266307275L910.8487826388887,284.97974414405184L913.1515009729455,283.14995325229137L913.5627925636571,284.32277924554796L914.2368844111687,276.16544620622994L914.9168571035877,277.14841166678906L917.3610832682291,276.93661180451585L917.4922996202255,284.4732043792015L919.797958376736,280.15989512834597L920.2041042281537,271.38252135780374L921.1579037615741,273.2942725250476L924.822772797309,264.9087276275439L925.091453899016,268.3121567770229L926.0470911964696,266.5189705836285L928.4799232241029,273.70453463216694L929.6965230143228,265.3967902661965L930.9197387550635,271.8071827031458L932.284094773582,275.868460844142L933.7789320384837,277.32312218521656L934.4589047309026,274.45740165690285L937.0383903284142,272.0895367620762L937.7187305736398,269.7934462641379L937.9877792281537,271.7495283917348L938.5321249348957,261.54205876952494L939.7557082284432,252.22095034890245L942.1966264178238,262.49296988624627L944.9091661313655,271.3149390489125L945.587301059751,271.25966558696933L946.812722117332,270.0558558578658L947.6231760561341,276.0690262933865L948.3013109845195,268.8757333771622L948.7085594943575,268.50494117865844L951.695293601707,269.6864555702995L954.1362117910878,273.5934301174793L954.6794548394097,279.79150064763326L955.3608977430554,275.1860506405584L957.5335023835357,274.874332312755L957.8087994357637,279.47620229086255L959.9773609953701,259.05016445605736L960.246409649884,254.0914425713919L961.0645821976271,257.4900671134871L961.3339984049478,258.9630352028594L961.6092954571758,267.497280903529L963.2386570493343,265.9763596025076L963.5088083622685,276.8303757116768L963.7830027560764,262.39767987613465L966.9042611906826,256.6447303429015L968.1260067201966,264.96242334960044L968.5325201244211,254.7353944024892L970.7036545536747,261.10632229498634L972.1933460792823,255.70856059115417L972.4682755787035,255.25479034361274L973.2783619646989,261.7549257292511L975.0308537471062,265.54538992994327L975.7126642035589,267.8391375331346L976.6594802336514,271.2911398623994L977.4765501229743,270.1659521035044L979.2411711480032,270.4032221167635L982.7700456452545,277.46274493689145L985.8949796079281,275.2740603332107L986.4378551034431,278.21597483669797L986.5760549587673,280.623945464413L987.5258114113136,281.56295556682L989.8369834599247,269.7032124301406L991.3303505135992,267.61325410053036L992.8270255425344,263.9515746024839L993.7749442310472,267.8663667700761L994.5853981698493,252.6376178186793L997.842283590133,258.1942318901745L1005.3175725730612,261.5008966863415L1005.8604480685761,257.28136734964545L1007.6202909071178,267.059382050054L1009.6638845124419,275.90137816096683L1010.7500030562787,280.984391241275L1010.8808518554684,274.46550605694665L1011.4251975622105,286.26683930953516L1012.7921264503759,291.2573390022927L1014.1439856734662,287.73854651578375L1014.2814504231769,291.0184550986935L1014.4192827256944,287.88187006364257L1015.5050337167244,277.90797320087745L1018.2208814055265,276.4107723290125L1021.4693131112556,279.21144053414656L1022.4242153030959,274.5943585592524L1022.8307287073204,276.79381495142104L1024.1884687753181,282.55724963445766L1025.4109494104453,291.2591153613671L1025.8178303674767,298.555042208985L1027.1796135163481,294.4302205195074L1027.8606888671873,293.6887852136329L1032.7506114076966,279.1402002099383L1033.966476092303,277.8307196762743L1034.2410380389178,288.1087282917168L1034.7864864040796,288.1894565932962L1035.596572790075,284.3004749340227L1036.007864380787,288.62708542922417L1036.9546804108795,296.39378288490997L1038.0400638491028,296.7848554047221L1038.4465772533274,298.4147313691993L1039.533063349971,294.69817674460563L1040.077409056713,291.79865933658726L1043.7437483036745,283.3219311094447L1044.2869913519964,275.42882788468705L1045.24262864945,272.45152782193276L1045.784401486545,273.1453120135581L1047.2843844907406,283.50240012831017L1048.9104381076386,291.1627543864769L1054.4792306821469,298.8466531990466L1056.5165758897567,299.66787730443457L1058.417559006076,293.7219770430563L1059.5040451027198,298.27023588888153L1061.4053957718459,294.9441056050643L1061.5432280743632,298.364304540776L1065.0728376772279,295.60517642356774L1066.9785989800346,290.4515745056297L1070.3604523546005,288.06260189156734L1072.6686839807578,283.7633477428834L1074.2958402560762,289.6943534953817L1074.701986107494,295.5443522773921L1075.5146453631364,288.5442817038488L1077.9585039749709,294.44879671622846L1078.227185076678,294.9049719785812L1080.6732490053528,296.70445590775506L1081.2157569480612,296.394634567589L1084.605696484375,300.4977558460954L1085.5561880425346,301.3784740254977L1087.32007396195,300.01370677357505L1088.1316305591722,300.3883760023561L1091.6656507957175,294.8053224554417L1093.7070390842011,293.611854538183L1094.791687416811,287.4585676883544L1094.928784613715,283.0456099394866L1097.9107405345774,279.46166580231255L1098.4536160300922,284.61627240348867L1100.3586422272856,282.57392960682716L1101.9880038194442,280.6142373648899L1102.1195877242474,279.26838331442013L1103.073019704861,284.17245066579926L1104.97179750434,266.9982400164346L1105.787764735243,270.0938887298377L1107.0058347366896,276.34490908148064L1108.2264776077834,278.63313281823935L1108.4992017903644,287.19569146148154L1108.6311532479742,288.44815525143775L1111.2172547960067,298.46054352783705L1111.6226655418113,295.4609761545145L1112.844411071325,275.82380894256306L1114.601313487413,285.731350399118L1117.848642534722,280.55499174679227L1120.017939199942,275.52565509386784L1121.5113062536168,284.53083242184266L1123.9573701822915,290.6403126884011L1125.311434722222,286.71462360290747L1125.4492670247394,286.4795447370852L1126.2593534107348,290.4901770561095L1127.2124178385413,292.75020473950354L1127.7563959924767,295.46478504938483L1127.8876123444732,305.97286070070743L1128.0243419885703,304.24968298023606L1131.0132814127603,310.2429223652336L1131.1448653175635,312.56390528644346L1131.6862706018517,307.16819216223735L1131.9608325484662,306.76324348379916L1133.18257807798,297.27528643552256L1133.7247184678818,297.6615475554768L1137.65422552445,286.50510780489475L1137.790220062934,285.1183668587687L1139.013068250868,289.5722288039591L1139.418478996672,294.0391907952043L1140.3667652379916,290.27598227674264L1141.7274457284432,289.7638256868879L1141.864542925347,296.310339261783L1142.1324889214409,299.73866013184613L1142.8128291666665,304.6407293859754L1143.624018211082,301.1328888371495L1144.1683639178239,298.47029565929626L1144.4425583116317,294.1912881116808L1146.6103847656248,296.7660364254904L1147.42047115162,296.27749170180897L1147.5586710069442,297.43138999554907L1148.644789550781,293.9217773645194L1151.2224373842591,287.15890505068074L1153.531036563223,276.3926614026433L1157.0606461660877,285.1730302246575L1160.1837423647278,288.9318457724384L1161.9483633897567,291.1011020566409L1162.341277340133,295.4522102805285L1166.5585782443575,294.02498273629413L1166.6908972547742,291.87111985030543L1168.8635018952546,286.50576521351155L1169.0002315393517,286.33634374772885L1170.36238224103,288.69542190579875L1170.769263198061,301.0442253625258L1171.0379442997682,305.9665709094893L1172.5452783600983,307.80299636019794L1173.3590402741609,314.0217605296257L1173.7662887839986,319.3348918166544L1174.3095318323203,322.537973234398L1176.7589037362557,316.3196050336702L1176.8956333803528,311.16349080012185L1177.4377737702544,300.0812747701482L1177.844287174479,301.53899663324955L1178.1133358289928,300.4533313531542L1180.0183620261862,301.8084183850975L1180.5608699688944,301.8473119432999L1182.0535019169558,305.5780477710782L1182.460382873987,310.6147295266961L1185.1762305627892,309.54105317120354L1186.2608788953992,301.87226070026236L1187.6230295970772,299.50188942320887L1189.2523911892358,310.12459698254065L1192.3743847294559,295.5323480505482L1193.0561951859083,299.9871917906392L1195.3677347873263,294.0258742048731L1201.3419381076387,294.82515776748585L1201.4727869068286,299.28287199493354L1202.015294849537,304.5942902402568L1205.0071746961803,300.66075383794214L1205.817996187789,298.44279293832705L1211.6477512550634,303.5468039164346L1212.733134693287,307.29099975183817L1213.8196207899302,308.4443163844364L1213.9574530924476,304.4468336083426L1216.2667873770251,304.2950185042964L1218.0269977683736,312.0872754154481L1218.5698732638887,314.5943258403045L1220.068753609664,314.3675823544107L1221.6970125434025,315.1837360028141L1222.1042610532404,315.9578915002913L1222.3729421549479,318.5032011153675L1222.916920308883,314.6502071191769L1224.0056117223667,321.96329544702377L1232.1487441550923,325.04635253365205L1232.9669167028353,322.68307354303494L1233.1029112413191,325.0836946213427L1235.4045269169558,314.74926012708215L1236.3564886863423,316.2121871348497L1239.4770120153353,312.9816136452577L1240.020255063657,311.2963901832121L1241.5099465892647,304.22846451397083L1241.9171950991029,305.0217337464916L1244.226896936487,311.5869382695856L1245.0435992730033,312.553096045375L1246.8038096643515,317.53141042575845L1249.5185546947334,317.20391239870077L1250.7395651186341,320.00618229904563L1252.9180506040218,321.22817298013996L1253.1918774450228,317.14196636072023L1254.4081096824361,323.9576250480908L1255.6320605287904,309.9228120078483L1256.7086226996526,314.66615590014766L1259.423735282841,319.37541040785084L1259.6924163845483,315.9161750221806L1260.097459577546,314.5454165454354L1260.3709188657406,308.86279515231814L1261.1832105685762,311.50489103003474L1262.812204607928,313.427974518173L1262.9489342520253,317.32105722112107L1263.899058257378,320.5595684264711L1264.3114525065102,318.5453235915988L1264.9844416956016,319.04464303427454L1265.9408140986689,313.53720821518516L1266.209495200376,315.9888274628227L1273.1316172092013,319.6232748236899L1274.6282922381363,320.0815889284328L1275.0340705367475,320.90501981856943L1275.7140432291665,321.02676003362757L1277.8848101056133,323.45436915942844L1278.428053153935,320.9242293515906L1278.5596370587382,322.87775808168294L1278.8345665581596,318.4524950567312L1280.18642578125,325.51757988122523L1280.7281986183445,313.0197001106534L1281.270706561053,317.9803039341762L1282.4920845377603,311.1055077480948L1282.629549287471,307.37771202466297L1283.3098895326964,303.1646282016548L1283.8505597113713,308.6171931266238L1283.982511168981,313.46497984166547L1286.0242670102718,314.2861253041872L1290.2327466471352,311.167145296641L1291.85916781684,312.4489605424466L1292.808189163773,307.61450912457013L1293.488161856192,314.72454689583225L1295.3898800781249,310.77624950282603L1296.6145660300924,307.0290686168101L1298.6493383680552,313.84637917103976L1300.1482187138306,316.7633147630899L1301.0987102719905,311.6116519096541L1301.2354399160877,312.91892859244723L1302.455347681568,313.1279784600288L1307.601822081163,312.42696687065364L1308.0142163302949,306.5299466902638L1308.2821623263887,303.482384213974L1308.688675730613,310.3159241510788L1308.8261404803238,309.2669748602994L1309.3697510814523,306.8082818507105L1313.7123874927659,307.36211603871584L1315.6155759259257,307.3147485899258L1319.2837529369212,300.6571434440079L1320.0964121925635,305.70959975495833L1320.6381850296584,310.87999484598555L1323.0849840639464,312.66472409057553L1323.7664269675925,315.443721728229L1325.8026695167823,316.65040322200736L1326.2073451569731,326.1191859504086L1326.6127559027777,325.9299915902219L1329.465333235677,328.5340762561482L1330.9539221028647,324.3092860178885L1332.7244239728009,324.30161372794606L1332.8618887225114,317.3671100169333L1334.218526132089,319.4048246645857L1334.6301852756076,316.53495652865803L1335.173795876736,313.6829248562768L1337.4761466579862,316.8896028125536L1337.7521788158274,311.56663195325945L1338.1564869032115,319.6992972181957L1341.010534447338,324.89318700804085L1341.279215549045,322.3380984812877L1341.9613935583043,322.9468798327368L1343.4547606119788,321.7998506083426L1344.541981814236,319.89119267100784L1345.0852248625577,318.4984574479635L1347.3978671223956,325.0388329194208L1348.2153045645252,326.78361067900823L1349.569001551649,327.12673264606605L1349.8428283926505,326.47693888079175L1350.6440935112846,330.3723374544068L1351.3185529116026,322.91416739451756L1351.9981580512153,325.6696465176572L1352.4039363498264,327.330480879325L1354.4434868742765,327.6571578739313L1354.5758058846932,322.6016755984805L1358.244718001302,330.1341323221987L1359.3326743091725,324.70110810480634L1360.6871064019094,330.27534712737497L1362.1779005859373,327.85921560435054L1365.023861968316,331.32355464505L1367.3346664641203,328.2922133096603L1367.4713961082175,327.3592671210406L1371.8184431532115,327.3327967496584L1371.9496595052083,322.4065129424628L1372.7678320529515,319.00459727013083L1379.8285214699072,323.75616421670895L1380.0968350188077,321.09626341558436L1381.457515509259,324.53455824929034L1382.4050666449652,322.6970177990401L1386.0647899414062,329.0871290788813L1388.9136917462383,320.0339970386635L1390.2747397894964,321.5497495251187L1392.4477119827834,317.93222327608174L1392.7149228732637,320.0379268723989L1392.9883821614583,322.5092103305073L1393.661003797743,321.54473297378314L1397.9944513888886,319.1378509933225L1398.6744240813075,320.08202608064585L1400.1663209237556,321.58873543131966L1400.303785673466,319.267951381116L1400.4357371310762,320.7636206197015L1400.8481313802083,320.4745277299302L1403.0185307038482,323.43260763754984L1406.6786215530958,318.5633785762035L1407.0851349573204,321.0412639981622L1409.7980422236687,325.4036262636276L1410.6129067961515,324.52374571839107L1410.744123148148,326.2620903085004L1414.2899050745077,329.2791455575093L1415.2378237630207,330.6455063635718L1416.1868451099535,331.53094814019295L1420.6676813765912,326.3121603671463L1423.6573559063945,330.89921417146934L1423.788572258391,328.35597226071366L1425.0143608687788,329.63291470327385L1425.9597066876445,330.33723096067433L1426.371365831163,328.1010758099137L1427.320019625289,331.48289280630576L1427.7257979239002,333.4649399741286L1430.3056510742185,332.2203784977431L1430.7158400065102,332.2187839702793L1432.2073692961515,335.8070131302697L1433.6977959273725,338.3198912752328L1435.0544333369498,331.2118490181492L1435.3234819914637,327.708371934265L1435.4609467411744,332.1558008372546L1435.866357486979,325.9277521753121L1439.1243455656827,325.62468387316136L1439.8050533637152,314.1351640735504L1439.9417830078123,317.9217305210779L1440.4857611617476,316.61998829583723L1443.0630414424186,319.2669719317786L1444.4097549262149,321.23591979100166L1445.4966085756655,322.9268178578524L1447.1256026150172,322.80193285674324L1452.5459038556132,318.7056866505183L1453.7683844907408,327.930201080516L1453.9003359483504,329.30116749292614L1454.7188760489003,330.84684461026194L1454.9871895978006,332.31387354587554L1456.209670232928,337.0038499916001L1460.9547769675926,341.98834461346496L1464.7585809642649,336.43650227368056L1465.1698725549768,334.85977085733555L1465.5756508535878,337.00191642089004L1466.7988665943285,335.29923620735264L1470.6008328269672,335.390307318486L1473.8588209056713,325.424501408988L1475.2095774703414,332.34329349307524L1482.6826611364295,329.50974184917055L1483.4964230504916,330.2945986060035L1484.0370932291667,330.1967235253438L1484.4432390805841,335.13031248102067L1485.9351359230325,342.4586974166789L1488.1048001410588,332.1706275815136L1488.3793620876734,334.9941053386026L1489.0578645688656,330.3205227347607L1493.2542149631076,331.9047768833156L1493.9334525499132,331.53545634761775L1494.070917299624,333.5829439700868L1494.3399659541378,338.8612672425291L1495.9685924406826,334.28321202572033L1496.243521940104,337.3904636492399L1497.873618637876,337.1828122607921L1499.2291533890336,333.6454822200182L1500.9937744140625,334.623387361975L1501.6759524233219,336.0707815181505L1501.8134171730326,328.74807361692524L1503.847086852575,328.8996786716011L1504.6568056857636,325.17240786571716L1506.0171186234084,324.84176166788274L1509.2751067021122,329.3882605050845L1511.5848085394964,330.39888178625444L1512.6701919777197,325.8609013741711L1514.5671320131655,320.288016577204L1518.772671227575,317.28031020056403L1519.7253681025752,320.6061728230412L1520.1322490596062,322.66775500705205L1521.2165298394095,327.2055550033281L1523.3883993742766,328.7455880279882L1523.9305397641779,324.6938929840361L1524.6101449037906,333.4688812973646L1524.8799286639178,332.66306965132935L1525.1544906105323,336.70164158408153L1525.5591662507234,338.44576527885044L1530.3086836190682,336.63986872284767L1531.1257535083912,338.72695220588963L1531.256602307581,337.977900647158L1532.2126071578411,334.6504845992999L1533.427001631221,333.3651294148983L1534.9244117657695,337.43890796717176L1536.1410115559895,336.90868758532343L1537.771843359375,336.1526198265786L1537.9001192889177,338.28054921252215" style="fill: none;" fill="none"></path></g></g></g></g><g opacity="0.2"><g><g><g><path stroke="rgb(255, 112, 67)" stroke-width="2px" d="M132.31901041666666,64.25314989089964L133.1283616970486,78.46395912170408L135.56817722800926,66.39428997039795L135.97469063223377,36.938001060485824L137.46548481626158,57.063632011413574L139.49841939019097,37.20481214523317L139.90640300564235,19.727985000610367L142.6134294270833,69.15005550384524L150.88373513093168,63.96066799163817L151.29318895760994,59.9744291305542L152.50942119502312,73.47450914382932L154.68129072989004,52.55017070770265L154.9525447012442,79.76858658790587L160.9241751519097,33.17014389038087L161.60414784432868,70.31059923171995L164.45782783564815,60.164946842193615L165.13633031684026,66.94628438949587L166.08902719184027,54.80359363555908L166.90536197554977,53.21477155685426L171.6648032696759,124.39665045738218L171.93752745225692,76.39361152648928L173.0229108904803,93.06069345474242L175.87732598741317,83.99869818687438L176.95205039424187,85.78528261184692L179.66495766059026,94.33551545143126L186.99138775679972,43.83291578292847L187.12370676721642,99.59609093666074L189.82595500217013,121.39352469444276L190.23540882884836,110.63427152633665L192.2584194769965,48.17006101608275L192.66052224754048,99.4380392551422L192.7972518916377,63.413850879669205L194.146538245081,154.53918423652647L196.7153648111979,117.74127607345582L199.54368365885418,82.7233548641205L202.51792097077544,79.62506012916566L206.15926662688074,174.25156540870665L207.51296361400463,83.64644355773925L208.31937447193286,137.18026666641236L209.26325007957178,155.26546335220337L209.39924461805552,134.45031576156617L213.8620707971643,94.81076707839964L214.12891413483794,153.75836362838743L215.74724914279508,73.98375482559203L216.6981082537616,109.5013401031494L216.82895705295138,96.00659918785095L217.10094612991898,129.8056780338287L217.50488666449655,180.25364632606505L217.7768757414641,130.47340683937074L219.39704851345485,69.0515428543091L220.74302689163773,111.69152078628542L226.5363942310474,124.49404854774474L227.6162643771701,134.99238700866698L228.69576697048606,143.74149675369262L229.9119992078993,96.87293524742125L231.661550567853,136.52664961814878L232.20148564091434,109.32042198181153L233.41551256148728,129.90902643203736L233.95508008174187,69.72897911071777L234.2281718171296,124.96426668167112L234.4942800491898,173.56185102462769L235.4359503399884,152.94615559577943L236.11335016276038,131.12114548683167L236.38717700376154,105.8952917575836L237.05759332320602,69.49315996170043L237.33068505859373,152.92596769332886L237.8720903428819,163.2085310935974L238.41312807436339,131.65302391052245L239.22247935474536,131.5738362789154L239.359944104456,147.23963060379026L242.4705435076678,108.57794580459597L243.00974347511573,148.64397516250608L247.47698028790506,201.2801107406616L248.4226936595775,172.93888435363772L249.23792578486686,129.3741099357605L251.12861742259835,113.81331787109377L251.66928760127308,94.11592931747435L252.61830894820596,113.63541984558105L252.88441718026613,93.37952928543092L253.96649264322915,131.63288993835448L255.86637310112843,137.30626578330993L257.3545944155092,145.70484666824342L257.7592700557002,173.66742854118348L258.9758698459201,93.63499703407285L260.0572102032697,204.70730829238892L261.2763828631366,112.76505699157713L261.4079667679398,122.33541707992555L262.2209935763889,149.77205286026003L262.3584583260995,151.15015134811404L263.0303448567708,98.27132949829104L265.4690577293113,49.0401002883911L265.8744684751157,135.27598838806153L267.09400868778937,154.13425769805906L272.89766750578696,182.36557416915895L273.7066512333622,142.43057742118833L274.11022421513303,90.58087120056155L274.38441860894096,79.9671938419342L274.924721234809,188.1280248641968L275.7329698567708,155.208171415329L276.40889946831595,163.58971033096316L277.76553687789345,92.5205816745758L278.5759908166956,133.27093238830565L279.25412574508096,169.0608476161957L280.6004716760705,112.51807427406311L286.2868811487268,117.30742492675779L286.82865398582175,151.7418744087219L286.96501607711224,156.3511338710785L287.09659998191546,157.76888909339903L289.5294320095486,64.5152151107788L291.28780463686337,148.9847785949707L293.0516905562789,128.9177878379822L298.19375432219323,107.12707738876344L299.68013787254046,149.2897183895111L300.0844459599247,191.78870458602904L300.49316468098954,103.60079193115234L303.1998235496238,104.42887344360349L304.0069695131655,162.90400476455687L304.95231533203116,175.94704360961913L305.7660772460937,143.69491896629336L307.9346388057002,163.21593751907346L308.3389468930844,140.36930809020998L309.82716820746526,127.04225440025328L310.23772469256363,152.95331034660342L310.64240033275456,79.16519660949706L310.77802731843167,178.9323004722595L317.26533435691545,167.5209403038025L317.6711126555266,108.34733991622926L318.0809340350115,210.60152864456177L318.212150387008,139.0372660636902L321.1904307798032,185.63227519989016L322.81280886863425,184.7662986755371L324.1650356445312,183.03905553817748L324.70717603443285,114.51829452514647L328.09380759548606,207.3396274089813L328.23090479239,166.16398248672488L329.7143479202835,153.47188596725465L330.7967909360532,113.78351240158082L331.6109204029225,127.71945695877076L335.9443679940683,187.1316089630127L336.48540572554975,150.01865806579588L339.8683617585358,126.19234910011289L342.0405988462095,144.27202692031858L342.18467954644086,163.8291248321533L344.22055454282406,147.94818463325498L344.7645326967592,164.24854063987732L346.9349320203993,188.20032739639282L347.07055900607634,123.18276968002317L350.0561904550057,171.64529461860656L351.408049678096,160.3598796367645L351.812725318287,189.90535125732424L352.4912277994791,144.59167170524597L352.89810875651034,133.740233707428L354.5260001374421,168.4895461559296L355.6102809172453,236.86944127082825L356.56187513382514,203.84039697647097L357.51089648075805,203.73810920715334L358.7341122214988,164.86174592971804L359.27735526982053,183.1966218471527L359.54603637152775,105.40111060142516L359.82059831814234,167.38742690086366L360.2278468279802,126.88875083923341L361.17760328052657,165.0658001422882L362.3993488100405,165.27549905776976L364.2889377893518,179.68955354690553L364.55688378544556,126.94537763595582L364.9681753761573,190.11262331008913L365.6422672236689,169.60381770133972L366.05282370876733,194.86611032485962L366.1847751663773,151.68442068099978L368.89694732711223,212.7590815067291L370.1161199869792,180.46981687545775L370.93466008752887,164.09751787185667L371.8840489872685,129.6798407077789L372.0218812897859,203.59993982315063L373.24472947771983,220.53307781219485L374.19926411675345,148.22216844558716L377.0511063440393,121.38708901405334L377.5939818395543,154.36387486457824L378.95245701316543,176.37987008094785L379.4957000614871,191.12983832359316L380.7181806966145,146.44473419189455L382.48022885199646,140.73261842727663L382.89299065393516,130.6737578392029L383.7041796983507,192.12098703384402L383.97910919777195,217.05657000541686L388.5885889467592,193.08326506614685L389.4063939416955,141.40167751312254L391.7102149341725,174.22154421806334L393.07016031901037,191.12593736648557L393.4766737232349,166.32498235702514L393.7497654586227,181.8401494026184L396.19105120081014,160.98070707321165L398.09387208116317,186.51669588088987L398.36292073567705,219.87221612930296L400.8089846643518,165.240246629715L401.3525952654803,204.58082380294798L402.44275689019094,183.83373622894288L404.74804809389457,191.71154832839966L405.5636477719907,182.59560480117796L408.8234736147279,138.57689919471738L410.58993240379056,140.77486381530764L410.9817436957465,217.4688310623169L411.1195759982639,225.5975987434387L411.6642892578125,165.077610874176L412.2071647533275,188.36362829208372L412.7507753544559,214.2119812965393L413.7012669126157,155.80411901473997L415.7404498842592,193.96207699775698L420.3477243164062,151.57603878974913L420.8898647063078,169.687211894989L421.8392536060474,150.27879977226257L423.0621017939814,112.49646620750428L426.0499385597511,178.8656785964966L426.3186196614583,227.92150855064392L426.59281405526616,179.09015440940857L427.26837611400464,196.3424518108368L427.6793001519097,139.5679759979248L428.76505114293974,249.65540344715117L429.3071915328414,166.03881030082704L432.0212014576099,218.85343713760375L432.6963959635416,160.4971322059631L432.8323905020254,208.4066740036011L433.10695244863996,171.3680390357971L433.51273074725106,198.88285574913027L434.0563413483796,174.1935544013977L434.1930709924768,185.0919297218323L435.1413572337963,168.64405641555788L435.546400426794,202.4299403190613L436.2252704607928,247.32197494506835L438.80181563585063,175.79310860633848L440.16102591507513,160.87385320663452L440.971847406684,212.32666850090027L441.78818219039346,136.6522891998291L442.33399810836227,152.00088357925415L443.9637272533274,184.30132975578306L444.0956787109375,159.7413891792297L447.4867209056712,154.92012977600098L448.71140685763885,191.1380177497864L453.4697454933449,172.6609636306763L453.6068426902487,195.16838955879211L453.87405358072914,177.42910170555115L459.8409058449073,172.77374982833862L460.9292297055845,204.10319924354553L461.87678084129044,160.02087388038638L462.1498725766781,198.05703930854799L462.4192887839987,198.33763856887816L463.10146679325806,162.12327404022216L466.4961845160591,208.02136011123656L466.62813597366903,189.11072449684144L467.9888164641203,177.08299512863158L468.2574975658275,143.06580424308777L468.93600004701966,199.60972809791565L470.83882092737264,226.79752056598664L471.65000997178817,201.50706734657285L472.8735932653356,165.54649872779845L474.9087331561052,213.72412796020507L475.4516086516203,173.06810131072996L475.7254354926215,172.5364206314087L479.114272370515,201.7526478767395L480.74179619864,166.0136787891388L482.1013740306713,200.7304353237152L482.91403328631355,197.581733751297L485.2218973596642,212.68915190696714L486.0389672489872,175.51651816368104L486.17091870659715,219.20700407028198L488.07300448133674,156.83691987991335L488.88529618417243,219.8817078590393L489.5641662181713,187.00674238204954L492.6843219943576,173.0961989879608L493.6384890805844,202.05379457473754L494.3133160337094,198.7225389957428L496.0783046115451,247.53565571308138L497.0247530888309,243.1882817029953L499.0643036132812,176.48638238906858L500.69587052227996,214.54683442115783L501.1012812680844,213.18245220184326L502.9974861979166,208.4753092765808L507.7400200629339,193.72233891487122L507.8774848126446,257.0022629261017L508.0149495623553,160.18910040855405L510.4536624348957,186.43071303367617L512.4899049840855,172.42223224639895L519.005881141493,166.5426270008087L520.2294644350403,196.93721294403076L521.4545179398148,238.15854580402373L522.2657069842302,212.7549648284912L525.1215922923899,226.77486984729768L525.3965217918113,190.2648864746094L525.5277381438078,199.22130422592164L531.9143357132522,152.88535819053652L533.0074377604165,235.314909863472L536.1272259837962,204.44317574501036L537.8955225368923,269.0927222013473L538.4376629267939,209.63243741989135L540.0622463324652,191.2033992290497L540.4691272894964,238.81007754802704L541.5523054108795,302.70388996601105L541.958818815104,207.10691823959348L545.220482421875,153.92554750442503L545.7618877061632,185.0548077106476L546.0368172055844,166.62188653945924L549.8354754629629,211.2042175292969L552.9423993381075,249.4768402814865L554.984155179398,207.6609620094299L556.0702737232349,253.69619278907777L556.7443655707465,232.38942573070528L557.4254409215856,244.7580753803253L558.2439810221354,175.81870751380922L560.4169532154224,235.23765473365785L562.8578714048032,207.04166259765623L562.9957037073206,206.94519929885865L563.9476654767071,230.04458198547366L564.353811328125,175.83005084991453L567.609961642795,222.18048615455626L568.9702745804398,239.53705775737762L569.3753177734375,206.35502223968507L569.512782523148,232.99728293418883L569.7796258608217,195.31637425422667L569.9163555049188,230.53918559551238L573.3209971535011,243.23123717308044L574.5420075774016,229.70282578468323L577.7999956561052,209.74774036407473L578.886114199942,218.68697233200072L580.7793787073205,251.36224296092985L580.9172110098378,277.77682797908784L583.2261777416088,148.99227490425108L587.1597278790509,211.52655882835387L587.4350249312788,247.65536296367645L588.7898245768229,158.30317640304565L591.0976886501736,229.1943351268768L591.7780288953993,212.49728593826296L594.7599848162615,202.19602670669553L595.8486762297453,237.83303160667418L597.3468214699074,223.7887770652771L597.6162376772279,216.48956499099734L598.5667292353877,220.8688477516174L599.3698321180555,231.0527636766434L600.3262045211226,247.59409816265105L601.1395988823784,178.48029279708862L601.5461122866029,217.52662634849548L603.8561816767939,233.55132670402526L605.4859108217591,208.1270634651184L605.8931593315972,239.6604053020477L609.0206661639178,259.65779004096987L609.2889797128182,238.90889580249785L610.1078873661746,221.87574410438538L610.650395308883,186.4894431114197L612.8336589807581,240.5138610124588L615.136009762008,251.55674252510073L617.8518574508101,277.254351401329L620.2975538266783,228.74014327526095L620.5662349283854,201.81448793411255L620.8404293221934,239.61316237449648L621.2440023039642,189.80800709724429L621.6497806025751,222.68370962142944L623.9583797815392,206.87413716316223L625.4469686487267,242.3363000869751L627.3501570818864,266.24721667766573L631.695366362847,218.1372250080109L634.9555597583911,277.18312747478484L635.4991703595197,226.40369467735292L635.7693216724537,193.296595287323L636.5863915617765,214.74411139488222L636.9998884693287,190.5624737739563L637.2744504159433,175.39639744758608L638.4928879701966,213.12593326568606L639.4474226092302,182.5638039112091L641.2068978949652,206.83002219200137L642.291913780382,203.74785261154176L644.0602103334779,216.40917291641233L644.3344047272858,238.86809754371643L644.7394479202835,266.53845818042754L646.8980855541087,199.48527498245238L647.5780582465277,269.39044432640077L647.8518850875288,258.54320390224456L649.2059496274594,258.9479956150055L649.7502953342013,283.7023099184036L653.6864183412905,292.2409117937088L654.3667585865161,205.56710081100465L655.3161474862557,189.68297872543337L661.285572620081,161.08046011924745L662.3709560583043,273.9852954149246L663.3196098524304,189.81636629104617L663.864323111979,271.4408467054367L665.3536470847799,236.85597667694094L666.1699818684896,210.36585330963135L666.9815384657118,258.2168627738953L669.9704778899016,256.8297669172287L671.4623747323494,227.5676899433136L672.1430825303819,165.23573446273804L673.367033376736,246.6925456285477L673.4978821759258,215.24458441734316L675.1257735568577,201.73889565467834L676.622081032986,201.13182044029236L677.026756673177,204.06956472396848L684.7600677264178,251.85228047370913L685.4337920211226,219.12121896743776L685.57162432364,212.89457235336306L686.9312021556711,276.4787620306015L696.8334423213252,226.13452863693237L698.3246040581596,216.6011647224426L698.4613337022568,228.8706725358963L698.730014803964,267.96409621238706L699.0045767505786,216.70451312065126L699.4107226019964,189.82770962715148L699.5485549045138,248.8196818113327L702.9418024160879,262.69531433582307L703.615159157986,247.43420386314392L704.0264507486978,271.9363581418991L705.1110990813077,280.30994234085085L706.6029959237557,228.89670288562775L707.8247414532696,257.0556449174881L708.2305197518807,273.5987411260605L708.3668818431712,233.88345634937286L710.4060648148146,210.0709265708923L712.5760965856481,268.79917068481444L713.3883882884836,204.7557017326355L713.9312637839987,242.45683426856993L715.1566848415797,200.16328649520875L715.4305116825809,280.45341486930846L716.6489492368344,263.63647866249084L717.1921922851562,247.36519107818606L718.6896024197048,273.2718067646027L722.2173742585358,286.43151478767396L723.4420602105034,215.14812111854553L725.4757298900462,211.7546299934387L726.4269565538193,215.80432682037355L727.2443939959488,198.249192905426L727.7872694914639,216.7282604217529L727.9236315827545,245.73222706317904L730.4998092050057,225.6126992225647L730.9055875036167,170.5317960739136L735.7951424913193,243.63704457283018L736.612579933449,165.2625018596649L738.6477198242187,236.7736880540848L738.9171360315393,195.96671953201292L741.2176490487557,232.92543880939485L741.3499680591723,238.78997054100034L743.9323940791376,206.25480179786683L744.0639779839407,234.23513572216035L744.4760046802661,223.43614492416384L745.692604470486,258.93348836898804L747.1907497106481,257.48495693206786L750.5762786132811,203.55427885055542L750.987570203993,187.8607823371887L752.4776292824073,228.31816577911377L752.8830400282117,281.0686425447464L753.1572344220195,222.55666785240174L753.4262830765334,260.3772559642792L755.0541744574651,252.39363265037537L757.3627736364292,207.3696665763855L760.2153509693286,289.33871655464174L761.1647398690682,234.67962012290957L762.2512259657117,303.1284336447716L762.7944690140334,297.5358139038086L763.7416525969328,229.89532992839816L763.8791173466435,223.77373051643372L764.0151118851273,245.53366475105287L765.3680737666376,231.04444942474368L768.8995211335358,255.47851672172544L769.5736129810474,309.09492057561874L771.7476878327545,247.23288211822512L773.2506112594039,249.10177314281464L773.7945894133389,258.0620289325714L773.9258057653356,223.06889767646788L775.0111892035588,256.3127103328705L775.8282590928818,263.70760371685026L776.2329347330729,253.91457448005679L777.4579882378471,208.19111466407776L778.0015988389756,229.6992124557495L778.9473122106481,227.80296978950503L779.0847769603588,272.30928604602815L779.8963335575809,216.51401338577273L780.7141385525173,218.6214470386505L780.9828196542244,218.8553606510162L781.3933761393229,188.39330792427063L786.1370126627603,246.67547669410703L787.7513045898437,269.0913020372391L790.3318928457753,240.68596153259278L793.4546214916087,249.74399292469025L796.1697340747971,275.02312977313994L799.4295599175346,261.4631781578064L799.834970663339,263.01846458911893L801.6025321108216,244.7948917865753L802.6886506546585,204.92671465873718L803.9114988425923,145.4391501426697L804.3172771412035,237.60186843872071L804.5859582429107,199.6981737613678L804.722687887008,265.7738076686859L810.6913779152198,260.90177290439607L811.5069775933157,225.51713476181033L811.9131234447336,312.36162160634996L812.8614096860531,176.17973480224612L814.6282360279223,255.09092876911166L814.8969171296294,215.8308065891266L815.0336467737267,259.37050342559814L815.983403226273,231.11058592796326L818.4302022605613,236.1408161878586L821.5507255895543,223.01444606781007L822.2321684932,260.8010670900345L824.9472810763888,288.44357273578646L825.2155946252892,245.7781307220459L826.0337671730324,296.9467334270477L829.5604363534432,234.0197471618652L830.2418792570891,287.91919960975645L832.5548890697336,260.8020108699799L834.9877210973667,232.86168422698972L836.0712667715566,271.69314155578616L839.1895847837093,203.1762635231018L839.7309900679976,308.753636264801L840.2731304578992,301.4788276433945L843.9368968352138,278.6482424736023L847.0636685619212,296.61799240112305L850.9968511465565,322.61856362819674L852.4986719147856,246.49108905792235L854.6705414496528,220.08939337730408L856.5682165907116,269.93497838973997L856.7056813404223,187.2182209968567L859.4204263708042,265.5080841779709L862.678414449508,249.95344016551974L864.848813773148,253.2853429079056L867.4253589482058,250.9382251024246L867.8307696940103,252.1403221130371L868.5107423864291,262.61361894607546L873.5373945710356,309.15763250589373L874.4860483651619,265.105872130394L875.0285563078703,257.0642827510834L875.8441559859663,296.22543387413026L876.6553450303818,227.25353705883026L877.7414635742188,267.5331932544708L878.0156579680264,303.496440410614L881.2607816984952,276.265881228447L882.3457975839118,245.5775999546051L884.6543967628759,286.8849875688553L885.6037856626157,246.58641083240508L887.2346174660009,257.49103307724L887.5088118598088,239.94218204021456L888.3225737738713,246.9329578399658L889.9512002604165,296.5950989961624L890.631908058449,259.4979766368866L891.9837672815393,317.11307724714277L893.3426100079571,251.33875632286072L897.1427384765622,220.64386858940122L897.4106844726562,296.27305431365966L897.9542950737845,249.67364087104795L899.9942131510415,275.370162153244L905.5527142469615,338.89954068660734L905.9647409432869,251.3165100812912L908.4052915798609,263.43339519500734L910.8487826388887,334.9130141973495L913.1515009729455,275.83078968524933L913.5627925636571,289.0140832185745L914.2368844111687,243.5361140489578L914.9168571035877,281.0802735090256L917.3610832682291,276.08941235542295L917.4922996202255,314.6195746779442L919.797958376736,262.9066581249237L920.2041042281537,236.27302627563478L921.1579037615741,280.94127719402314L924.822772797309,231.36654803752901L925.091453899016,281.925873374939L926.0470911964696,259.34622581005095L928.4799232241029,302.44679082632064L929.6965230143228,232.16581280231475L930.9197387550635,297.448752450943L932.284094773582,292.11357340812685L933.7789320384837,283.1417675495148L934.4589047309026,262.99451954364775L937.0383903284142,262.61807718276975L937.7187305736398,260.6090842723846L937.9877792281537,279.5738569021225L938.5321249348957,220.7121802806854L939.7557082284432,214.93651666641233L942.1966264178238,303.5810480356216L944.9091661313655,306.6028156995773L945.587301059751,271.03857173919675L946.812722117332,265.240616941452L947.6231760561341,300.12170803546906L948.3013109845195,240.10256171226501L948.7085594943575,267.02177238464355L951.695293601707,274.4125131368637L954.1362117910878,289.22132830619813L954.6794548394097,304.58378276824953L955.3608977430554,256.76425061225893L957.5335023835357,273.6274590015411L957.8087994357637,297.88368220329284L959.9773609953701,177.34601311683656L960.246409649884,234.2565550327301L961.0645821976271,271.084565281868L961.3339984049478,264.8549075603485L961.6092954571758,301.63426370620726L963.2386570493343,259.89267439842223L963.5088083622685,320.2464401483536L963.7830027560764,204.66689653396605L966.9042611906826,233.63293220996854L968.1260067201966,298.23319537639617L968.5325201244211,213.8272786140442L970.7036545536747,286.590033864975L972.1933460792823,234.1175137758255L972.4682755787035,253.43970935344697L973.2783619646989,287.75546727180483L975.0308537471062,280.7072467327118L975.7126642035589,277.0141279459L976.6594802336514,285.0991491794586L977.4765501229743,265.6652010679245L979.2411711480032,271.3523021697998L982.7700456452545,305.70083621740343L985.8949796079281,266.51932191848755L986.4378551034431,289.983632850647L986.5760549587673,290.2558279752731L987.5258114113136,285.31899597644804L989.8369834599247,222.26423988342287L991.3303505135992,259.2534207820892L992.8270255425344,249.30485661029815L993.7749442310472,283.52553544044497L994.5853981698493,191.72262201309206L997.842283590133,280.42068817615507L1005.3175725730612,274.7275558710098L1005.8604480685761,240.403250002861L1007.6202909071178,306.1714408516884L1009.6638845124419,311.2693626046181L1010.7500030562787,301.31644356250763L1010.8808518554684,248.38996531963346L1011.4251975622105,333.47217231988907L1012.7921264503759,311.21933777332305L1014.1439856734662,273.6633765697479L1014.2814504231769,304.1380894303322L1014.4192827256944,275.335529923439L1015.5050337167244,238.01238574981687L1018.2208814055265,270.4219688415527L1021.4693131112556,290.4141133546829L1022.4242153030959,256.1260306596756L1022.8307287073204,285.59164052009584L1024.1884687753181,305.61098836660386L1025.4109494104453,326.0665782690048L1025.8178303674767,327.7387495994568L1027.1796135163481,277.9309337615967L1027.8606888671873,290.7230439901352L1032.7506114076966,220.94586019515992L1033.966476092303,272.5927975416183L1034.2410380389178,329.2207627534866L1034.7864864040796,288.51236979961396L1035.596572790075,268.74454829692843L1036.007864380787,305.93352741003036L1036.9546804108795,327.46057270765306L1038.0400638491028,298.34914548397063L1038.4465772533274,304.934235227108L1039.533063349971,279.83195824623107L1040.077409056713,280.20058970451356L1043.7437483036745,249.41501820087433L1044.2869913519964,243.85641498565673L1045.24262864945,260.54232757091523L1045.784401486545,275.9204487800598L1047.2843844907406,324.9307525873184L1048.9104381076386,321.8041714191437L1054.4792306821469,329.58224844932556L1056.5165758897567,302.9527737259865L1058.417559006076,269.93837599754335L1059.5040451027198,316.46327127218245L1061.4053957718459,281.63958446979524L1061.5432280743632,312.04510028362273L1065.0728376772279,284.5686639547348L1066.9785989800346,269.8371668338776L1070.3604523546005,278.506711435318L1072.6686839807578,266.5663311481476L1074.2958402560762,313.4183765053749L1074.701986107494,318.94434740543363L1075.5146453631364,260.5439994096756L1077.9585039749709,318.06685676574705L1078.227185076678,296.72967302799225L1080.6732490053528,303.9023916244507L1081.2157569480612,295.1553492069244L1084.605696484375,316.91024096012114L1085.5561880425346,304.90134674310684L1087.32007396195,294.5546377658844L1088.1316305591722,301.88705291748045L1091.6656507957175,272.47310826778414L1093.7070390842011,288.8379828691483L1094.791687416811,262.8454202890396L1094.928784613715,265.3937789440155L1097.9107405345774,265.1258892536163L1098.4536160300922,305.23469880819323L1100.3586422272856,274.4045584201813L1101.9880038194442,272.7754683971405L1102.1195877242474,273.8849671125412L1103.073019704861,303.78872007131577L1104.97179750434,198.30139741897585L1105.787764735243,282.4764835834503L1107.0058347366896,301.3489904880524L1108.2264776077834,287.78602776527407L1108.4992017903644,321.4459260344505L1108.6311532479742,293.45801041126253L1111.2172547960067,338.5100966334343L1111.6226655418113,283.4627066612244L1112.844411071325,197.2751400947571L1114.601313487413,325.361516225338L1117.848642534722,259.84955713748934L1120.017939199942,255.40830848217013L1121.5113062536168,320.5515417337418L1123.9573701822915,315.0782337546349L1125.311434722222,271.01186726093295L1125.4492670247394,285.5392292737961L1126.2593534107348,306.5327063322067L1127.2124178385413,301.79031547307966L1127.7563959924767,306.3231062889099L1127.8876123444732,348.0051633059978L1128.0243419885703,297.3569720983505L1131.0132814127603,334.21587990522386L1131.1448653175635,321.84783697128296L1131.6862706018517,285.5853396654129L1131.9608325484662,305.14344877004623L1133.18257807798,259.3234582424164L1133.7247184678818,299.20659203529357L1137.65422552445,241.87934880256654L1137.790220062934,279.57140307426454L1139.013068250868,307.3876765847206L1139.418478996672,311.90703876018523L1140.3667652379916,275.22314820289614L1141.7274457284432,287.7151993274689L1141.864542925347,322.4963935613632L1142.1324889214409,313.4519436120987L1142.8128291666665,324.2490064024925L1143.624018211082,287.1015266418457L1144.1683639178239,287.8199229478836L1144.4425583116317,277.07525792121885L1146.6103847656248,307.0650296807289L1147.42047115162,294.32331280708314L1147.5586710069442,302.04698317050935L1148.644789550781,279.8833268404007L1151.2224373842591,260.10741579532623L1153.531036563223,233.32768681049345L1157.0606461660877,320.2945055127144L1160.1837423647278,303.967107963562L1161.9483633897567,299.7781271934509L1162.341277340133,312.8566431760788L1166.5585782443575,288.3160725593567L1166.6908972547742,283.2556683063507L1168.8635018952546,265.0443466663361L1169.0002315393517,285.6586578845978L1170.36238224103,298.1317345380783L1170.769263198061,350.43943918943404L1171.0379442997682,325.65595309734346L1172.5452783600983,315.1486981630325L1173.3590402741609,338.8968172073364L1173.7662887839986,340.5874169647694L1174.3095318323203,335.3502989053726L1176.7589037362557,291.4461322307587L1176.8956333803528,290.5390338659287L1177.4377737702544,255.7524106502533L1177.844287174479,307.3698840856552L1178.1133358289928,296.1106702327728L1180.0183620261862,307.2287665128708L1180.5608699688944,302.0028861761093L1182.0535019169558,320.5009910821915L1182.460382873987,330.76145654916763L1185.1762305627892,305.2463477492332L1186.2608788953992,271.1970908164978L1187.6230295970772,290.02040431499483L1189.2523911892358,352.6154272198677L1192.3743847294559,237.16335232257842L1193.0561951859083,317.8065667510033L1195.3677347873263,270.1806038618088L1201.3419381076387,298.0222920179367L1201.4727869068286,317.1137289047241L1202.015294849537,325.83996322154997L1205.0071746961803,284.92660822868345L1205.817996187789,289.5709493398666L1211.6477512550634,323.96284782886505L1212.733134693287,322.26778309345246L1213.8196207899302,313.05758291482925L1213.9574530924476,288.4569025039673L1216.2667873770251,303.6877580881119L1218.0269977683736,343.2563030600548L1218.5698732638887,324.6225275397301L1220.068753609664,313.4606084108353L1221.6970125434025,318.44835059642793L1222.1042610532404,319.05451349020007L1222.3729421549479,328.6844395756722L1222.916920308883,299.23823113441466L1224.0056117223667,351.2156487584114L1232.1487441550923,337.3785808801651L1232.9669167028353,313.2299575805664L1233.1029112413191,334.6861789345741L1235.4045269169558,273.4115221500397L1236.3564886863423,322.06389516592026L1239.4770120153353,300.05931968688964L1240.020255063657,304.5554963350296L1241.5099465892647,275.9567618370056L1241.9171950991029,308.1948106765747L1244.226896936487,337.8477563619614L1245.0435992730033,316.4177271485329L1246.8038096643515,337.4446679472923L1249.5185546947334,315.89392029047013L1250.7395651186341,331.21526190042493L1252.9180506040218,326.1161357045174L1253.1918774450228,300.7971398830414L1254.4081096824361,351.2202597975731L1255.6320605287904,253.78355984687806L1256.7086226996526,333.6395314693451L1259.423735282841,338.2124284386635L1259.6924163845483,302.0792334794998L1260.097459577546,309.06238263845444L1260.3709188657406,286.1323095798492L1261.1832105685762,322.0732745409012L1262.812204607928,321.120308470726L1262.9489342520253,332.8933880329132L1263.899058257378,333.5136132478714L1264.3114525065102,310.4883442521095L1264.9844416956016,321.0419208049774L1265.9408140986689,291.5074689388275L1266.209495200376,325.795304453373L1273.1316172092013,334.1610642671585L1274.6282922381363,321.9148453474045L1275.0340705367475,324.1987433791161L1275.7140432291665,321.51372089385984L1277.8848101056133,333.164805662632L1278.428053153935,310.80367012023925L1278.5596370587382,330.6918730020523L1278.8345665581596,300.75144295692445L1280.18642578125,353.77791917920115L1280.7281986183445,263.0281810283661L1281.270706561053,337.82271922826766L1282.4920845377603,283.6063230037689L1282.629549287471,292.46652913093567L1283.3098895326964,286.3122929096222L1283.8505597113713,330.4274528264999L1283.982511168981,332.85612670183184L1286.0242670102718,317.570707154274L1290.2327466471352,298.6912252664566L1291.85916781684,317.5762215256691L1292.808189163773,288.276703453064L1293.488161856192,343.16469798088076L1295.3898800781249,294.9830599308014L1296.6145660300924,292.0403450727463L1298.6493383680552,341.1156213879585L1300.1482187138306,328.43105713129046L1301.0987102719905,291.0050004959106L1301.2354399160877,318.14803532361987L1302.455347681568,313.96417793035505L1307.601822081163,309.6229205131531L1308.0142163302949,282.94186596870424L1308.2821623263887,291.292134308815L1308.688675730613,337.650083899498L1308.8261404803238,305.0711776971817L1309.3697510814523,296.973509812355L1313.7123874927659,309.57745279073714L1315.6155759259257,307.12527879476545L1319.2837529369212,274.0267228603363L1320.0964121925635,325.91942499876023L1320.6381850296584,331.5615752100945L1323.0849840639464,319.8036410689354L1323.7664269675925,326.55971227884294L1325.8026695167823,321.4771291971207L1326.2073451569731,363.9943168640137L1326.6127559027777,325.1732141494751L1329.465333235677,338.9504149198532L1330.9539221028647,307.41012506484986L1332.7244239728009,324.27092456817627L1332.8618887225114,289.6290951728821L1334.218526132089,327.5556832551956L1334.6301852756076,305.0554839849472L1335.173795876736,302.27479816675185L1337.4761466579862,329.71631463766096L1337.7521788158274,290.27474851608275L1338.1564869032115,352.22995827794074L1341.010534447338,345.6687461674213L1341.279215549045,312.1177443742752L1341.9613935583043,325.382005238533L1343.4547606119788,317.2117337107658L1344.541981814236,312.256560921669L1345.0852248625577,312.92751655578616L1347.3978671223956,351.2003348052502L1348.2153045645252,333.76272171735764L1349.569001551649,328.49922051429746L1349.8428283926505,323.8777638196945L1350.6440935112846,345.95393174886703L1351.3185529116026,293.08148715496066L1351.9981580512153,336.69156301021576L1352.4039363498264,333.9738183259964L1354.4434868742765,328.963865852356L1354.5758058846932,302.3797464966774L1358.244718001302,360.26395921707154L1359.3326743091725,302.96901123523713L1360.6871064019094,352.57230321764945L1362.1779005859373,318.1946895122528L1365.023861968316,345.18091080784797L1367.3346664641203,316.1668479681015L1367.4713961082175,323.6274823665619L1371.8184431532115,327.2269152641296L1371.9496595052083,302.70137771368024L1372.7678320529515,305.3969345808029L1379.8285214699072,342.7624320030212L1380.0968350188077,310.4566602110863L1381.457515509259,338.2877375841141L1382.4050666449652,315.34685599803925L1386.0647899414062,354.647574198246L1388.9136917462383,283.82146887779237L1390.2747397894964,327.61275947093964L1392.4477119827834,303.4621182799339L1392.7149228732637,328.46074125766756L1392.9883821614583,332.39434416294097L1393.661003797743,317.68682354688644L1397.9944513888886,309.5103230714798L1398.6744240813075,323.8587264299393L1400.1663209237556,327.61557283401487L1400.303785673466,309.98481518030167L1400.4357371310762,326.7462975740433L1400.8481313802083,319.31815617084504L1403.0185307038482,335.26492726802826L1406.6786215530958,299.08646233081816L1407.0851349573204,330.952805685997L1409.7980422236687,342.85307532548904L1410.6129067961515,321.00422353744506L1410.744123148148,333.21546866893766L1414.2899050745077,341.347366553545L1415.2378237630207,336.11094958782195L1416.1868451099535,335.0727152466774L1420.6676813765912,305.43700927495956L1423.6573559063945,349.24742938876153L1423.788572258391,318.18300461769104L1425.0143608687788,334.74068447351453L1425.9597066876445,333.15449599027636L1426.371365831163,319.15645520687104L1427.320019625289,345.01016079187394L1427.7257979239002,341.39312864542006L1430.3056510742185,327.24213259220124L1430.7158400065102,332.21240586042404L1432.2073692961515,350.15992977023126L1433.6977959273725,348.37140385508536L1435.0544333369498,302.7796799898148L1435.3234819914637,313.6944635987282L1435.4609467411744,349.945516449213L1435.866357486979,301.0155575275421L1439.1243455656827,324.4124106645584L1439.8050533637152,268.1770848751068L1439.9417830078123,333.06799631118776L1440.4857611617476,311.4130193948746L1443.0630414424186,329.854906475544L1444.4097549262149,329.1117112278938L1445.4966085756655,329.6904101252556L1447.1256026150172,322.30239285230635L1452.5459038556132,302.32070182561876L1453.7683844907408,364.8282588005066L1453.9003359483504,334.7850331425667L1454.7188760489003,337.0295530796051L1454.9871895978006,338.1819892883301L1456.209670232928,355.763755774498L1460.9547769675926,361.9263231009245L1464.7585809642649,314.22913291454313L1465.1698725549768,328.55284519195556L1465.5756508535878,345.57049867510796L1466.7988665943285,328.48851535320284L1470.6008328269672,335.75459176301956L1473.8588209056713,285.56127777099607L1475.2095774703414,360.0184618294239L1482.6826611364295,318.17553527355193L1483.4964230504916,333.4340256333351L1484.0370932291667,329.8052232027054L1484.4432390805841,354.8646683037281L1485.9351359230325,371.77223715931177L1488.1048001410588,291.01834824085233L1488.3793620876734,346.28801636695863L1489.0578645688656,311.62619231939317L1493.2542149631076,338.2417934775352L1493.9334525499132,330.05817420482634L1494.070917299624,341.77289445996286L1494.3399659541378,359.97456033229827L1495.9685924406826,315.9709911584854L1496.243521940104,349.8194701433182L1497.873618637876,336.35220670700073L1499.2291533890336,319.4961620569229L1500.9937744140625,338.53500792980196L1501.6759524233219,341.86035814285276L1501.8134171730326,299.4572420120239L1503.847086852575,329.50609889030454L1504.6568056857636,310.2633246421814L1506.0171186234084,323.519176876545L1509.2751067021122,347.5742558538914L1511.5848085394964,334.44136691093445L1512.6701919777197,307.7089797258377L1514.5671320131655,297.9964773893356L1518.772671227575,305.2494846940041L1519.7253681025752,333.90962331295015L1520.1322490596062,330.9140837430954L1521.2165298394095,345.35675498843193L1523.3883993742766,334.90572012662886L1523.9305397641779,308.48711280822755L1524.6101449037906,368.56883455067873L1524.8799286639178,329.4398230671883L1525.1544906105323,352.8559293150902L1525.5591662507234,345.42226005792617L1530.3086836190682,329.4162824988365L1531.1257535083912,347.0752861380577L1531.256602307581,334.98169441223143L1532.2126071578411,321.34082040786745L1533.427001631221,328.2237086772919L1534.9244117657695,353.73402217626574L1536.1410115559895,334.78780605792997L1537.771843359375,333.12834879159925L1537.9001192889177,346.79226675629616" style="fill: none;" fill="none"></path></g></g></g></g></g></g><g transform="translate(41, 377)" clip-path="url(#clip_1)"><clipPath id="clip_1"><rect width="1587" height="23"></rect></clipPath><g><g><line x1="0" y1="0" x2="0" y2="5" style="visibility: inherit;" fill="rgb(0, 0, 0)" stroke="rgb(204, 204, 204)" stroke-width="1px"></line><line x1="132.31901041666666" y1="0" x2="132.31901041666666" y2="5" style="visibility: inherit;" fill="rgb(0, 0, 0)" stroke="rgb(204, 204, 204)" stroke-width="1px"></line><line x1="264.6380208333333" y1="0" x2="264.6380208333333" y2="5" style="visibility: inherit;" fill="rgb(0, 0, 0)" stroke="rgb(204, 204, 204)" stroke-width="1px"></line><line x1="396.95703125" y1="0" x2="396.95703125" y2="5" style="visibility: inherit;" fill="rgb(0, 0, 0)" stroke="rgb(204, 204, 204)" stroke-width="1px"></line><line x1="529.2760416666666" y1="0" x2="529.2760416666666" y2="5" style="visibility: inherit;" fill="rgb(0, 0, 0)" stroke="rgb(204, 204, 204)" stroke-width="1px"></line><line x1="661.5950520833333" y1="0" x2="661.5950520833333" y2="5" style="visibility: inherit;" fill="rgb(0, 0, 0)" stroke="rgb(204, 204, 204)" stroke-width="1px"></line><line x1="793.9140624999998" y1="0" x2="793.9140624999998" y2="5" style="visibility: inherit;" fill="rgb(0, 0, 0)" stroke="rgb(204, 204, 204)" stroke-width="1px"></line><line x1="926.2330729166665" y1="0" x2="926.2330729166665" y2="5" style="visibility: inherit;" fill="rgb(0, 0, 0)" stroke="rgb(204, 204, 204)" stroke-width="1px"></line><line x1="1058.552083333333" y1="0" x2="1058.552083333333" y2="5" style="visibility: inherit;" fill="rgb(0, 0, 0)" stroke="rgb(204, 204, 204)" stroke-width="1px"></line><line x1="1190.8710937499998" y1="0" x2="1190.8710937499998" y2="5" style="visibility: inherit;" fill="rgb(0, 0, 0)" stroke="rgb(204, 204, 204)" stroke-width="1px"></line><line x1="1323.1901041666665" y1="0" x2="1323.1901041666665" y2="5" style="visibility: inherit;" fill="rgb(0, 0, 0)" stroke="rgb(204, 204, 204)" stroke-width="1px"></line><line x1="1455.5091145833333" y1="0" x2="1455.5091145833333" y2="5" style="visibility: inherit;" fill="rgb(0, 0, 0)" stroke="rgb(204, 204, 204)" stroke-width="1px"></line><line x1="1587.828125" y1="0" x2="1587.828125" y2="5" style="visibility: inherit;" fill="rgb(0, 0, 0)" stroke="rgb(204, 204, 204)" stroke-width="1px"></line></g><g transform="translate(0, 8)"><text x="0" y="0" dx="0em" dy="0.95em" style="text-anchor: middle; visibility: hidden; font-family: Roboto, sans-serif; font-size: 12px; font-weight: 200;" fill="rgb(255, 255, 255)" stroke="none" stroke-width="1px">-0.1</text><text x="132.31901041666666" y="0" dx="0em" dy="0.95em" style="text-anchor: middle; visibility: inherit; font-family: Roboto, sans-serif; font-size: 12px; font-weight: 200;" fill="rgb(255, 255, 255)" stroke="none" stroke-width="1px">0</text><text x="264.6380208333333" y="0" dx="0em" dy="0.95em" style="text-anchor: middle; visibility: inherit; font-family: Roboto, sans-serif; font-size: 12px; font-weight: 200;" fill="rgb(255, 255, 255)" stroke="none" stroke-width="1px">0.1</text><text x="396.95703125" y="0" dx="0em" dy="0.95em" style="text-anchor: middle; visibility: inherit; font-family: Roboto, sans-serif; font-size: 12px; font-weight: 200;" fill="rgb(255, 255, 255)" stroke="none" stroke-width="1px">0.2</text><text x="529.2760416666666" y="0" dx="0em" dy="0.95em" style="text-anchor: middle; visibility: inherit; font-family: Roboto, sans-serif; font-size: 12px; font-weight: 200;" fill="rgb(255, 255, 255)" stroke="none" stroke-width="1px">0.3</text><text x="661.5950520833333" y="0" dx="0em" dy="0.95em" style="text-anchor: middle; visibility: inherit; font-family: Roboto, sans-serif; font-size: 12px; font-weight: 200;" fill="rgb(255, 255, 255)" stroke="none" stroke-width="1px">0.4</text><text x="793.9140624999998" y="0" dx="0em" dy="0.95em" style="text-anchor: middle; visibility: inherit; font-family: Roboto, sans-serif; font-size: 12px; font-weight: 200;" fill="rgb(255, 255, 255)" stroke="none" stroke-width="1px">0.5</text><text x="926.2330729166665" y="0" dx="0em" dy="0.95em" style="text-anchor: middle; visibility: inherit; font-family: Roboto, sans-serif; font-size: 12px; font-weight: 200;" fill="rgb(255, 255, 255)" stroke="none" stroke-width="1px">0.6</text><text x="1058.552083333333" y="0" dx="0em" dy="0.95em" style="text-anchor: middle; visibility: inherit; font-family: Roboto, sans-serif; font-size: 12px; font-weight: 200;" fill="rgb(255, 255, 255)" stroke="none" stroke-width="1px">0.7</text><text x="1190.8710937499998" y="0" dx="0em" dy="0.95em" style="text-anchor: middle; visibility: inherit; font-family: Roboto, sans-serif; font-size: 12px; font-weight: 200;" fill="rgb(255, 255, 255)" stroke="none" stroke-width="1px">0.8</text><text x="1323.1901041666665" y="0" dx="0em" dy="0.95em" style="text-anchor: middle; visibility: inherit; font-family: Roboto, sans-serif; font-size: 12px; font-weight: 200;" fill="rgb(255, 255, 255)" stroke="none" stroke-width="1px">0.9</text><text x="1455.5091145833333" y="0" dx="0em" dy="0.95em" style="text-anchor: middle; visibility: inherit; font-family: Roboto, sans-serif; font-size: 12px; font-weight: 200;" fill="rgb(255, 255, 255)" stroke="none" stroke-width="1px">1</text><text x="1587.828125" y="0" dx="0em" dy="0.95em" style="text-anchor: middle; visibility: hidden; font-family: Roboto, sans-serif; font-size: 12px; font-weight: 200;" fill="rgb(255, 255, 255)" stroke="none" stroke-width="1px">1.1</text></g><line x1="0" y1="0" x2="1587.828125" y2="0" fill="rgb(0, 0, 0)" stroke="rgb(204, 204, 204)" stroke-width="1px"></line></g></g></g></g></svg>