<svg viewBox="0 0 1629 400" xmlns="http://www.w3.org/2000/svg"><g><g><g><g><g><line x1="41.171875" y1="377" x2="36.171875" y2="377" style="visibility: inherit;" fill="rgb(0, 0, 0)" stroke="rgb(204, 204, 204)" stroke-width="1px"></line><line x1="41.171875" y1="335.1111111111111" x2="36.171875" y2="335.1111111111111" style="visibility: inherit;" fill="rgb(0, 0, 0)" stroke="rgb(204, 204, 204)" stroke-width="1px"></line><line x1="41.171875" y1="293.22222222222223" x2="36.171875" y2="293.22222222222223" style="visibility: inherit;" fill="rgb(0, 0, 0)" stroke="rgb(204, 204, 204)" stroke-width="1px"></line><line x1="41.171875" y1="251.33333333333337" x2="36.171875" y2="251.33333333333337" style="visibility: inherit;" fill="rgb(0, 0, 0)" stroke="rgb(204, 204, 204)" stroke-width="1px"></line><line x1="41.171875" y1="209.44444444444446" x2="36.171875" y2="209.44444444444446" style="visibility: inherit;" fill="rgb(0, 0, 0)" stroke="rgb(204, 204, 204)" stroke-width="1px"></line><line x1="41.171875" y1="167.55555555555554" x2="36.171875" y2="167.55555555555554" style="visibility: inherit;" fill="rgb(0, 0, 0)" stroke="rgb(204, 204, 204)" stroke-width="1px"></line><line x1="41.171875" y1="125.66666666666669" x2="36.171875" y2="125.66666666666669" style="visibility: inherit;" fill="rgb(0, 0, 0)" stroke="rgb(204, 204, 204)" stroke-width="1px"></line><line x1="41.171875" y1="83.77777777777781" x2="36.171875" y2="83.77777777777781" style="visibility: inherit;" fill="rgb(0, 0, 0)" stroke="rgb(204, 204, 204)" stroke-width="1px"></line><line x1="41.171875" y1="41.888888888888864" x2="36.171875" y2="41.888888888888864" style="visibility: inherit;" fill="rgb(0, 0, 0)" stroke="rgb(204, 204, 204)" stroke-width="1px"></line><line x1="41.171875" y1="0" x2="36.171875" y2="0" style="visibility: inherit;" fill="rgb(0, 0, 0)" stroke="rgb(204, 204, 204)" stroke-width="1px"></line></g><g transform="translate(31.171875, 0)"><text x="0" y="377" dx="0em" dy="0.3em" style="text-anchor: end; visibility: hidden; font-family: Roboto, sans-serif; font-size: 12px; font-weight: 200;" fill="rgb(255, 255, 255)" stroke="none" stroke-width="1px">0</text><text x="0" y="335.1111111111111" dx="0em" dy="0.3em" style="text-anchor: end; visibility: inherit; font-family: Roboto, sans-serif; font-size: 12px; font-weight: 200;" fill="rgb(255, 255, 255)" stroke="none" stroke-width="1px">0.1</text><text x="0" y="293.22222222222223" dx="0em" dy="0.3em" style="text-anchor: end; visibility: inherit; font-family: Roboto, sans-serif; font-size: 12px; font-weight: 200;" fill="rgb(255, 255, 255)" stroke="none" stroke-width="1px">0.2</text><text x="0" y="251.33333333333337" dx="0em" dy="0.3em" style="text-anchor: end; visibility: inherit; font-family: Roboto, sans-serif; font-size: 12px; font-weight: 200;" fill="rgb(255, 255, 255)" stroke="none" stroke-width="1px">0.3</text><text x="0" y="209.44444444444446" dx="0em" dy="0.3em" style="text-anchor: end; visibility: inherit; font-family: Roboto, sans-serif; font-size: 12px; font-weight: 200;" fill="rgb(255, 255, 255)" stroke="none" stroke-width="1px">0.4</text><text x="0" y="167.55555555555554" dx="0em" dy="0.3em" style="text-anchor: end; visibility: inherit; font-family: Roboto, sans-serif; font-size: 12px; font-weight: 200;" fill="rgb(255, 255, 255)" stroke="none" stroke-width="1px">0.5</text><text x="0" y="125.66666666666669" dx="0em" dy="0.3em" style="text-anchor: end; visibility: inherit; font-family: Roboto, sans-serif; font-size: 12px; font-weight: 200;" fill="rgb(255, 255, 255)" stroke="none" stroke-width="1px">0.6</text><text x="0" y="83.77777777777781" dx="0em" dy="0.3em" style="text-anchor: end; visibility: inherit; font-family: Roboto, sans-serif; font-size: 12px; font-weight: 200;" fill="rgb(255, 255, 255)" stroke="none" stroke-width="1px">0.7</text><text x="0" y="41.888888888888864" dx="0em" dy="0.3em" style="text-anchor: end; visibility: inherit; font-family: Roboto, sans-serif; font-size: 12px; font-weight: 200;" fill="rgb(255, 255, 255)" stroke="none" stroke-width="1px">0.8</text><text x="0" y="0" dx="0em" dy="0.3em" style="text-anchor: end; visibility: hidden; font-family: Roboto, sans-serif; font-size: 12px; font-weight: 200;" fill="rgb(255, 255, 255)" stroke="none" stroke-width="1px">0.9</text></g><line x1="41.171875" y1="0" x2="41.171875" y2="377" fill="rgb(0, 0, 0)" stroke="rgb(204, 204, 204)" stroke-width="1px"></line></g></g><g transform="translate(41, 0)" clip-path="url(#clip_0)"><clipPath id="clip_0"><rect width="1587" height="377"></rect></clipPath><g><g><g><line x1="0" y1="0" x2="0" y2="377" fill="rgb(0, 0, 0)" stroke="rgb(189, 189, 189)" stroke-width="1px" opacity="0.25"></line><line x1="132.31901041666666" y1="0" x2="132.31901041666666" y2="377" fill="rgb(0, 0, 0)" stroke="rgb(189, 189, 189)" stroke-width="1px" opacity="0.25"></line><line x1="264.6380208333333" y1="0" x2="264.6380208333333" y2="377" fill="rgb(0, 0, 0)" stroke="rgb(189, 189, 189)" stroke-width="1px" opacity="0.25"></line><line x1="396.95703125" y1="0" x2="396.95703125" y2="377" fill="rgb(0, 0, 0)" stroke="rgb(189, 189, 189)" stroke-width="1px" opacity="0.25"></line><line x1="529.2760416666666" y1="0" x2="529.2760416666666" y2="377" fill="rgb(0, 0, 0)" stroke="rgb(189, 189, 189)" stroke-width="1px" opacity="0.25"></line><line x1="661.5950520833333" y1="0" x2="661.5950520833333" y2="377" fill="rgb(0, 0, 0)" stroke="rgb(189, 189, 189)" stroke-width="1px" opacity="0.25"></line><line x1="793.9140624999998" y1="0" x2="793.9140624999998" y2="377" fill="rgb(0, 0, 0)" stroke="rgb(189, 189, 189)" stroke-width="1px" opacity="0.25"></line><line x1="926.2330729166665" y1="0" x2="926.2330729166665" y2="377" fill="rgb(0, 0, 0)" stroke="rgb(189, 189, 189)" stroke-width="1px" opacity="0.25"></line><line x1="1058.552083333333" y1="0" x2="1058.552083333333" y2="377" fill="rgb(0, 0, 0)" stroke="rgb(189, 189, 189)" stroke-width="1px" opacity="0.25"></line><line x1="1190.8710937499998" y1="0" x2="1190.8710937499998" y2="377" fill="rgb(0, 0, 0)" stroke="rgb(189, 189, 189)" stroke-width="1px" opacity="0.25"></line><line x1="1323.1901041666665" y1="0" x2="1323.1901041666665" y2="377" fill="rgb(0, 0, 0)" stroke="rgb(189, 189, 189)" stroke-width="1px" opacity="0.25"></line><line x1="1455.5091145833333" y1="0" x2="1455.5091145833333" y2="377" fill="rgb(0, 0, 0)" stroke="rgb(189, 189, 189)" stroke-width="1px" opacity="0.25"></line><line x1="1587.828125" y1="0" x2="1587.828125" y2="377" fill="rgb(0, 0, 0)" stroke="rgb(189, 189, 189)" stroke-width="1px" opacity="0.25"></line></g><g><line x1="0" y1="377" x2="1587.828125" y2="377" fill="rgb(0, 0, 0)" stroke="rgb(189, 189, 189)" stroke-width="1px" opacity="0.25"></line><line x1="0" y1="335.1111111111111" x2="1587.828125" y2="335.1111111111111" fill="rgb(0, 0, 0)" stroke="rgb(189, 189, 189)" stroke-width="1px" opacity="0.25"></line><line x1="0" y1="293.22222222222223" x2="1587.828125" y2="293.22222222222223" fill="rgb(0, 0, 0)" stroke="rgb(189, 189, 189)" stroke-width="1px" opacity="0.25"></line><line x1="0" y1="251.33333333333337" x2="1587.828125" y2="251.33333333333337" fill="rgb(0, 0, 0)" stroke="rgb(189, 189, 189)" stroke-width="1px" opacity="0.25"></line><line x1="0" y1="209.44444444444446" x2="1587.828125" y2="209.44444444444446" fill="rgb(0, 0, 0)" stroke="rgb(189, 189, 189)" stroke-width="1px" opacity="0.25"></line><line x1="0" y1="167.55555555555554" x2="1587.828125" y2="167.55555555555554" fill="rgb(0, 0, 0)" stroke="rgb(189, 189, 189)" stroke-width="1px" opacity="0.25"></line><line x1="0" y1="125.66666666666669" x2="1587.828125" y2="125.66666666666669" fill="rgb(0, 0, 0)" stroke="rgb(189, 189, 189)" stroke-width="1px" opacity="0.25"></line><line x1="0" y1="83.77777777777781" x2="1587.828125" y2="83.77777777777781" fill="rgb(0, 0, 0)" stroke="rgb(189, 189, 189)" stroke-width="1px" opacity="0.25"></line><line x1="0" y1="41.888888888888864" x2="1587.828125" y2="41.888888888888864" fill="rgb(0, 0, 0)" stroke="rgb(189, 189, 189)" stroke-width="1px" opacity="0.25"></line><line x1="0" y1="0" x2="1587.828125" y2="0" fill="rgb(0, 0, 0)" stroke="rgb(189, 189, 189)" stroke-width="1px" opacity="0.25"></line></g></g></g><g><g><line x1="0" y1="377" x2="1587.828125" y2="377" fill="rgb(0, 0, 0)" stroke="rgb(153, 153, 153)" stroke-width="1.5px"></line></g></g><g><g><line x1="132.31901041666666" y1="0" x2="132.31901041666666" y2="377" fill="rgb(0, 0, 0)" stroke="rgb(153, 153, 153)" stroke-width="1.5px"></line></g></g><g><g><g><g><g><path stroke="rgb(255, 112, 67)" stroke-width="2px" d="M132.31901041666666,335.11111048691805L133.1283616970486,311.8395052018725L135.56817722800926,304.2094706821854L135.97469063223377,321.7725074576846L137.46548481626158,331.97093909314816L139.49841939019097,327.14499069041L139.90640300564235,334.46148331510653L142.6134294270833,339.6509448761023L150.88373513093168,338.6022206099662L151.29318895760994,328.4344663861094L152.50942119502312,325.31275278651134L154.68129072989004,327.41702909330337L154.9525447012442,315.7476478096837L160.9241751519097,328.56168558924236L161.60414784432868,321.23604458736173L164.45782783564815,319.78121879836056L165.13633031684026,314.34705269117876L166.08902719184027,310.0445798880586L166.90536197554977,315.1311918112282L171.6648032696759,297.98505017194515L171.93752745225692,297.0236166734783L173.0229108904803,287.81763082075173L175.87732598741317,293.11872965490124L176.95205039424187,288.93076216215746L179.66495766059026,293.9970825810951L186.99138775679972,306.44640287541904L187.12370676721642,303.7951561739192L189.82595500217013,289.08545050750115L190.23540882884836,285.7187061770456L192.2584194769965,299.8035121355699L192.66052224754048,298.4859490519467L192.7972518916377,301.62457875417743L194.146538245081,283.1768587612154L196.7153648111979,272.6139092343814L199.54368365885418,285.11842191785155L202.51792097077544,282.54945941384057L206.15926662688074,263.7346839348007L207.51333116681135,265.4436576433489L208.31937447193286,262.6211228085966L209.26325007957178,256.17381953040814L209.39924461805552,255.20561833547347L213.8620707971643,262.8095857371524L214.12891413483794,256.3250055491952L215.74724914279508,259.51573371467686L216.6981082537616,262.0682537052227L216.82895705295138,268.2992642779752L217.10094612991898,260.7169783362289L217.50488666449655,242.0842782569974L217.7768757414641,239.74515915145085L219.39704851345485,250.44072416813282L220.74302689163773,246.43031182082436L226.5363942310474,251.59985223278866L227.6162643771701,251.5465470646607L228.69576697048606,251.50390307038924L229.9119992078993,259.84760567295064L231.661550567853,258.1447438351557L232.20148564091434,269.349161438666L233.41551256148728,257.36818885173744L233.95508008174187,272.9168029640008L234.2281718171296,272.78899773089523L234.4942800491898,255.9311785157989L235.43631789279513,250.82271607940598L236.11335016276038,246.7359479340246L236.38717700376154,251.84431710935056L237.05759332320602,268.4976841476544L237.33068505859373,260.87592253333105L237.8724578956886,242.21184313937215L238.41312807436339,244.03614064850072L239.22247935474536,241.30669023451745L239.359944104456,239.1231301054404L242.4705435076678,237.37628213152888L243.00974347511573,231.78991350644424L247.47698028790506,223.13193107443075L248.4226936595775,212.0166552214876L249.23792578486686,224.06888038260036L251.12861742259835,242.08843791734924L251.66928760127308,248.1263060977941L252.61830894820596,257.1454893219949L252.88441718026613,260.17194707999266L253.96649264322915,258.40422330071885L255.86637310112843,261.17893423535054L257.3545944155092,259.2098130339717L257.7592700557002,245.0678512979545L258.9758698459201,246.32094671539L260.0572102032697,234.75675830406885L261.2763828631366,246.449850892181L261.4079667679398,247.42654638532153L262.2209935763889,248.2079027785311L262.3584583260995,248.83298789226495L263.0303448567708,245.14416858394603L265.4690577293113,271.5153349071806L265.8744684751157,267.47893358880134L267.09400868778937,264.24981253586225L272.89766750578696,249.0998510156262L273.7066512333622,236.97988180367548L274.11022421513303,248.22834964330173L274.38441860894096,261.41601255386706L274.924721234809,255.21058831825076L275.7329698567708,254.4351363223609L276.40889946831595,237.05922016546026L277.76553687789345,244.10293168907165L278.5763583695023,249.7379009075475L279.25412574508096,233.3014318354349L280.6004716760705,245.285589664115L286.2868811487268,246.49513739933047L286.82865398582175,247.46277558747377L286.96501607711224,248.23688613796983L287.09659998191546,244.66728718738614L289.5294320095486,258.5671625842678L291.28780463686337,261.3092856230297L293.05205810908564,255.12520677544788L298.19375432219323,266.9334982545024L299.68013787254046,255.4356869930076L300.0844459599247,242.0485505929951L300.49316468098954,256.4721733084783L303.1998235496238,259.63329420235635L304.0069695131655,249.59552375137346L304.95231533203116,237.3764199997629L305.7660772460937,235.9789142769384L307.9346388057002,226.48313242023744L308.3389468930844,231.453171604157L309.82716820746526,247.99587011732933L310.23772469256363,240.2855844833886L310.64240033275456,259.25068968411273L310.77802731843167,240.9116628583872L317.26533435691545,247.18488584226918L317.6711126555266,248.01457434177345L318.0809340350115,231.92277058452356L318.212150387008,231.615994744751L321.1904307798032,218.80390690690868L322.81280886863425,225.309791193486L324.1650356445312,222.1367213443227L324.70717603443285,240.54270990943937L328.09380759548606,225.94527903866114L328.23090479239,226.83400150806125L329.7143479202835,210.7894224299612L330.7967909360532,218.89820361192713L331.6109204029225,233.7630070843095L335.9443679940683,220.52151677855827L336.48540572554975,222.49499169997893L339.8683617585358,232.4515489155389L342.0405988462095,227.85012752196548L342.18467954644086,228.35788029470464L344.2209220956308,228.76408251289595L344.7645326967592,229.08904428744904L346.9349320203993,220.97123642866813L347.07055900607634,227.04365481089226L350.0561904550057,223.5238122382482L351.408049678096,220.70793818013294L351.812725318287,226.83301621206414L352.4912277994791,231.73307863760903L352.89810875651034,244.03090710485446L354.5260001374421,249.68028123943915L355.6102809172453,220.6886714334136L356.56187513382514,214.25093814543982L357.51089648075805,209.10075151506078L358.7344797743055,217.54726688000636L359.27735526982053,207.54892461511625L359.54603637152775,224.6835838868602L359.82059831814234,221.63575549902254L360.2278468279802,223.38638267635028L361.17760328052657,233.1646616966358L362.3993488100405,236.79839502526636L364.2889377893518,235.51649429734533L364.55688378544556,242.8687509934318L364.9681753761573,231.99500179345443L365.6422672236689,235.86266710272125L366.05282370876733,230.57902207171145L366.185142719184,230.54099593450138L368.89694732711223,217.94390785871224L370.1161199869792,216.24401467650424L370.93466008752887,219.07299001833562L371.8840489872685,229.71394757022404L372.0218812897859,217.28226916729034L373.24472947771983,203.14803655734556L374.19926411675345,208.5962075230087L377.0511063440393,217.14363168636464L377.5939818395543,219.79268362622398L378.95245701316543,213.53414789968812L379.4957000614871,200.14953954326376L380.7181806966145,210.38629730256875L382.48022885199646,222.76459339761053L382.89299065393516,228.4783403860462L383.7041796983507,220.48267330754592L383.97910919777195,209.8972497571478L388.5885889467592,209.8066881952527L389.4063939416955,209.73423894573656L391.7102149341725,209.67627954612365L393.07016031901037,201.25213474801004L393.4766737232349,207.07948607554027L393.7497654586227,203.36358985914114L396.19105120081014,208.76865016444518L398.09387208116317,204.71492113026508L398.36292073567705,193.0941581277253L400.8089846643518,200.5531047793125L401.3525952654803,198.14248482215896L402.44275689019094,192.02509896883828L404.74804809389457,195.50896756460503L405.5640153247974,202.4849523288163L408.8234736147279,208.06574014018528L410.58993240379056,212.53037038928048L410.9817436957465,199.34651753493768L411.1195759982639,188.7994352514634L411.6642892578125,192.9284365907052L412.2071647533275,192.04275027127306L412.75114290726265,178.7675315529339L413.7012669126157,193.28069091030483L415.7404498842592,196.51344111777826L420.3477243164062,211.66630844977814L420.8898647063078,219.59971242778028L421.8392536060474,225.94643561018188L423.0621017939814,231.02381415610324L426.0499385597511,235.08571699284036L426.3186196614583,225.7685745929812L426.59281405526616,222.5037480639194L427.26837611400464,219.8918868406699L427.6793001519097,238.74684230651482L428.76505114293974,211.9419202870742L429.3071915328414,215.6313145067916L432.0212014576099,206.01616271654436L432.6963959635416,210.89070845036775L432.8323905020254,206.41256775900314L433.10695244863996,202.83005520591146L433.51273074725106,204.15293255426357L434.0563413483796,209.4001243205431L434.1930709924768,196.8423206799478L435.1413572337963,203.5516348210905L435.546400426794,196.3524189679835L436.2252704607928,190.59304628549793L438.80181563585063,198.55221530553058L440.16102591507513,209.1084379123822L440.971847406684,204.98675132861467L441.78818219039346,218.4449566184473L442.33399810836227,220.8337435718901L443.9637272533274,218.55588324704652L444.0956787109375,225.11137226559492L447.4870884584779,221.97798620201036L448.71140685763885,215.28238996031723L453.4697454933449,214.11480035778823L453.6068426902487,213.180728675765L453.87405358072914,212.43347133014638L459.8409058449073,228.5912212588843L460.9292297055845,216.38408811821856L461.87678084129044,214.9961588841093L462.1498725766781,209.69692810599634L462.4192887839987,201.2686535959082L463.10146679325806,207.0927011538588L466.4961845160591,203.37416192179597L466.62813597366903,208.777107814569L467.9888164641203,221.47724180721076L468.2574975658275,231.6373490013242L468.9363675998264,218.82099031217044L470.83882092737264,204.37901347324967L471.6503775245949,192.825432002113L472.87396081814234,200.33812387882267L474.9087331561052,197.97050010176704L475.4516086516203,204.4541783585459L475.7254354926215,205.4522310763711L479.114272370515,202.06178585980584L480.74179619864,207.72720696497692L482.1013740306713,203.88176657069047L482.9144008391203,200.8054142552613L485.2218973596642,189.96655262772234L486.0389672489872,206.42879765773344L486.17091870659715,198.65414923729787L488.07300448133674,196.62332038854726L488.88529618417243,194.9986573095467L489.5641662181713,197.88781423717182L492.6843219943576,208.5769170576952L493.6384890805844,200.37264475726724L494.3133160337094,197.99811680452274L496.0783046115451,183.53182477953368L497.0247530888309,176.14768104714022L499.0646711660879,186.99592311484443L500.6962380750867,187.29673949058449L501.1012812680844,179.15961281598086L502.9974861979166,181.02769125149362L507.7400200629339,182.52215399990385L507.8774848126446,166.9621696417854L508.0149495623553,179.64751399056058L510.4536624348957,181.4180121911574L512.4899049840855,191.21218803005814L519.0062486942998,194.85863881358097L520.2294644350403,197.7757994403992L521.4545179398148,187.54286077583265L522.2657069842302,183.54539973177725L525.1215922923899,171.96965112133722L525.3965217918113,183.653499174202L525.5277381438078,188.81168772889606L531.9143357132522,197.12712846024905L533.0074377604165,191.21281387931037L536.1272259837962,194.85913949298273L537.8955225368923,176.83175803624846L538.4376629267939,183.3542948185332L540.0622463324652,188.57232424436097L540.4691272894964,184.3689705065999L541.5523054108795,164.25073295954442L541.958818815104,173.28947475716998L545.220482421875,188.8982454736937L545.7618877061632,188.8185973776639L546.037184758391,201.32154357008886L549.8358430157696,198.75723585478002L552.9423993381075,179.95023512568633L554.984155179398,185.84907649008352L556.0702737232349,178.00148241558006L556.7443655707465,171.72340715597736L557.4254409215856,170.889836835893L558.244348574942,178.60075785824878L560.4169532154224,172.20282751011231L562.8578714048032,175.4622630067988L562.9957037073206,178.069811404148L563.9476654767071,171.77807034683164L564.353811328125,187.68912194542304L567.6103291956017,187.85129855504738L568.9702745804398,187.98103984274687L569.3753177734375,183.89594298530858L569.512782523148,180.627865499358L569.7796258608217,186.39118078902084L569.9163555049188,170.05739107307897L573.3209971535011,165.36813408197645L574.5420075774016,165.80561837669228L577.7999956561052,170.34449570006274L578.886114199942,165.59781778356353L580.7793787073205,149.23381078111527L580.9172110098378,148.70926984840548L583.2265452944155,165.04519415585665L587.1597278790509,169.73615632339428L587.4350249312788,165.11114628222873L588.7898245768229,173.9778054153174L591.0976886501736,164.31557566816937L591.7780288953993,164.96357164564665L594.7599848162615,165.48196842762843L595.8486762297453,165.89668585321385L597.3468214699074,170.41734968128003L597.6162376772279,178.22276813455846L598.5667292353877,167.71154584356222L599.3698321180555,155.1136831167121L600.3262045211226,149.22427782928517L601.1395988823784,165.45720054056034L601.5461122866029,170.0657614311572L603.8561816767939,165.37483036843906L605.4859108217591,169.9998652934602L605.8931593315972,165.32211345828148L609.0206661639178,161.57991199013844L609.2889797128182,150.20837603397308L610.1078873661746,149.48892205069177L610.650395308883,161.4800260300878L612.8336589807581,162.69513193518137L615.136009762008,155.2894368840605L617.8518574508101,149.3648808431639L620.2975538266783,148.81412589804438L620.5662349283854,156.75130171714446L620.8404293221934,154.72326259722888L621.2440023039642,174.0452757457408L621.6497806025751,176.9362215953016L623.9583797815392,170.8711984997546L625.4469686487267,170.20806991091476L627.3501570818864,157.11090237059418L631.695366362847,163.38872289518423L634.9555597583911,155.84430965206283L635.4995379123263,162.3754487203592L635.7693216724537,171.78924736582178L636.5863915617765,170.94250900376855L636.9998884693287,170.26511831412594L637.2744504159433,182.289872928433L638.4928879701966,179.3430094538575L639.4474226092302,185.3632959526204L641.2068978949652,177.61285798560962L642.291913780382,175.60139749959882L644.0602103334779,173.99222911079016L644.3344047272858,164.3271146245476L644.7394479202835,148.21724825390257L646.8980855541087,160.46268699265644L647.5780582465277,149.31459603598748L647.8518850875288,140.39612327065228L649.2059496274594,137.45022995243733L649.7502953342013,122.5268506286165L653.6867858940972,110.58814716955985L654.3667585865161,126.17051873435683L655.3161474862557,142.8253033770199L661.285572620081,160.3380209787482L662.3709560583043,145.02597333726305L663.3196098524304,149.53188978092155L663.864323111979,136.3810683790018L665.3536470847799,146.80485570191033L666.1699818684896,155.1438855602372L666.9815384657118,149.24843978410524L669.9704778899016,152.9098629383953L671.4623747323494,151.6501115742295L672.1430825303819,171.58675492734133L673.367033376736,162.4027352777885L673.4978821759258,159.24440944574408L675.1257735568577,165.09552855530424L676.622081032986,178.15420112137562L677.026756673177,176.0344720082116L684.7600677264178,161.7720240484316L685.4337920211226,167.1176202374542L685.57162432364,167.20520730107444L686.9312021556711,154.7086122827219L696.8334423213252,165.65577821571193L698.3246040581596,170.22462357127844L698.4613337022568,169.69080996813386L698.730014803964,160.88597931042258L699.0045767505786,158.03100467185135L699.4107226019964,164.12480473619001L699.5485549045138,156.43317512486743L702.9418024160879,137.71320676656066L703.6155267107927,131.11501185511088L704.0264507486978,130.02534082000417L705.1110990813077,124.96471909786567L706.6029959237557,133.48288638940363L707.8247414532696,119.35297577818956L708.2305197518807,120.61571195846707L708.3668818431712,121.62590090268911L710.4060648148146,135.0007217208602L712.5760965856481,128.94502381855048L713.3883882884836,136.66713016595148L713.9316313368054,134.46703546867664L715.1566848415797,149.4625167644757L715.4305116825809,140.51445985344287L716.6489492368344,129.1671244370188L717.1921922851562,128.4670308855305L718.6896024197048,119.52918126268894L722.2173742585358,112.37890156441563L723.4420602105034,123.41423236264363L725.4757298900462,144.80916416724716L726.4269565538193,161.92510961092992L727.2443939959488,163.05119879985506L727.7872694914639,168.14096003859302L727.9236315827545,163.83498925438766L730.4998092050057,160.39021262702346L730.9055875036167,174.38994837875103L735.7951424913193,160.45640514486314L736.612579933449,178.63178978384826L738.6477198242187,163.84987826894093L738.9171360315393,172.96879100468715L741.2176490487557,163.5083641396652L741.3499680591723,155.94002264764762L743.9323940791376,170.82979639525036L744.0639779839407,161.7971684521157L744.4760046802661,162.94884587280367L745.692604470486,159.68129792175625L747.1907497106481,152.8783696733205L750.5762786132811,172.56936140661412L750.987570203993,179.9443775148257L752.4776292824073,173.27772323537386L752.8830400282117,155.3777351425636L753.1572344220195,162.00218911275982L753.4262830765334,150.54619773207014L755.0541744574651,141.3814046275185L757.3627736364292,159.18290197914703L760.2153509693286,139.91298824998427L761.1647398690682,141.25261182350073L762.2512259657117,125.56875612546727L762.7944690140334,117.2105614546383L763.7416525969328,127.27956027482176L763.8791173466435,126.95697955577292L764.0151118851273,118.3211401988828L765.3680737666376,123.97913338261955L768.8995211335358,132.69441781720676L769.5739805338541,118.72220092043203L771.7476878327545,124.29998195985891L773.2506112594039,120.38443200974946L773.7945894133389,129.81865671891072L773.9258057653356,133.17714659864185L775.0111892035588,127.48616372077579L775.8282590928818,127.12226231253608L776.2329347330729,114.2644765166955L777.4579882378471,133.30046960289087L778.0015988389756,140.1514867934238L778.9473122106481,141.44341065825236L779.0847769603588,138.28805986251731L779.8963335575809,139.95266911352718L780.7141385525173,145.47324640193284L780.9828196542244,145.70081834505956L781.3933761393229,158.44954306558205L786.1370126627603,151.8929657883811L787.7513045898437,142.45881907256722L790.3318928457753,139.10038659396926L793.4546214916087,136.41364061109087L796.1697340747971,134.26424382478814L799.4295599175346,132.54472639574595L799.834970663339,131.16911245251225L801.6025321108216,125.87973640387213L802.6886506546585,134.2149002342088L803.9114988425923,149.26080857690144L804.3172771412035,152.91975797263228L804.5859582429107,164.22469476764024L804.722687887008,152.3242022559745L810.6913779152198,142.80380824664192L811.5069775933157,143.56526782082682L811.9131234447336,131.60777081092596L812.8614096860531,151.36399492587302L814.6282360279223,146.22452727661386L814.8969171296294,146.30184304480437L815.0336467737267,133.797030990108L815.983403226273,140.54873590319752L818.4302022605613,145.9500998336691L821.5507255895543,154.46008086564422L822.2325360460069,144.5125111343777L824.9472810763888,128.17667557416885L825.2155946252892,131.86356168284837L826.0337671730324,118.05751601294536L829.5604363534432,127.95712392146737L830.2418792570891,114.93236580384058L832.5548890697336,121.26811386658578L834.9877210973667,126.33671231678194L836.0712667715566,126.20270118934103L839.1895847837093,142.85104934100724L839.7309900679976,122.65861625187466L840.2731304578992,110.69355966816642L843.9372643880207,105.3104042887976L847.0636685619212,101.00387998530256L850.9968511465565,89.18088076731087L852.4986719147856,96.47803594976418L854.6705414496528,106.50464998332464L856.5682165907116,101.95927654092422L856.7056813404223,119.26742223144831L859.4204263708042,116.35838422702096L862.678414449508,122.40892860513003L864.848813773148,127.24936410761732L867.4253589482058,126.93282262200933L867.8307696940103,122.49070453946977L868.5107423864291,123.12589496749126L873.5373945710356,106.87849275306188L874.4860483651619,114.82501542596285L875.0285563078703,104.42667900743692L875.8441559859663,96.10800987261624L876.6553450303818,106.20862912160632L877.7414635742188,97.5335699639517L878.0156579680264,94.78241252542588L881.2607816984952,96.77037646220299L882.3457975839118,106.7385223932757L884.6543967628759,97.95748458128725L885.6037856626157,103.49931900094523L887.2346174660009,103.7439016426185L887.5088118598088,108.12845265001023L888.3225737738713,111.63609345592364L889.9512002604165,110.25332120660124L890.631908058449,121.7137680763921L891.9837672815393,109.93768112778034L893.3426100079571,113.08347623813971L897.1427384765622,132.35566938004618L897.4106844726562,122.64009205830149L897.9542950737845,127.43429487015449L899.9942131510415,127.08076723203904L905.5530817997683,101.66461578304909L905.9647409432869,114.8428037375504L908.4052915798609,121.19646421355358L910.8487826388887,105.33494814991171L913.1515009729455,105.21240496179169L913.5627925636571,100.92548052369783L914.2368844111687,110.06260564247154L914.9168571035877,108.99453095583952L917.3610832682291,103.95118131893611L917.4922996202255,95.72761172181559L919.7983259295426,101.71542071336796L920.2041042281537,102.3167830125567L921.1579037615741,102.79787285190763L924.822772797309,119.938299280235L925.091453899016,112.70619597845248L926.0470911964696,115.29828811867743L928.4799232241029,108.99418704920642L929.6965230143228,116.51757086287843L930.9197387550635,105.78072335696942L932.284094773582,109.75791002149096L933.7789320384837,108.7507744590551L934.4589047309026,103.7561761215086L937.0383903284142,108.13827223312236L937.7187305736398,120.02172889760902L937.9877792281537,116.96182955994954L938.5321249348957,131.26946464666858L939.7557082284432,138.526682828446L942.1966264178238,127.57690281702128L944.9091661313655,114.6281889202837L945.587301059751,112.64699757808928L946.812722117332,119.43981928598475L947.6231760561341,103.92963220785663L948.3013109845195,125.03259415581968L948.7085594943575,129.34829654816906L951.695293601707,132.80085846204858L954.1362117910878,122.99624332390334L954.6794548394097,110.96366132578936L955.3608977430554,118.09315028414478L957.5335023835357,115.41896666917816L957.8087994357637,109.090729889607L959.9773609953701,120.78369502279672L960.246409649884,121.76028735415282L961.0645821976271,109.97489654998891L961.3339984049478,117.30213846350445L961.6092954571758,106.40837743747026L963.2386570493343,110.26003328589168L963.5088083622685,96.5858034077822L963.7830027560764,119.15753111576015L966.9042611906826,137.21491328214253L968.1260067201966,122.33859729238073L968.5325201244211,131.38198894501573L970.7036545536747,130.238922491928L972.1933460792823,129.32446932945788L972.4682755787035,124.40402190542859L973.2783619646989,128.84543874785618L975.0308537471062,124.02079744014728L975.7126642035589,115.97219450638232L976.6594802336514,117.91108694102131L977.4765501229743,111.08442610708153L979.2411711480032,105.62309743992974L982.7700456452545,97.06514461861046L985.8949796079281,106.97433691840169L986.4378551034431,106.52391597658365L986.5760549587673,101.97468933553144L987.5258114113136,98.33530802268969L989.8369834599247,116.36824741686064L991.3303505135992,114.03904437535084L992.8270255425344,120.55345672379393L993.7749442310472,117.38721182089748L994.5853981698493,119.04310079263345L997.842283590133,107.80114730077347L1005.3175725730612,111.37424917653422L1005.8604480685761,114.2327306771428L1007.6202909071178,108.14174109597873L1009.6638845124419,94.89116965585183L1010.7500030562787,88.47960239134815L1010.8808518554684,100.10590313659182L1011.4251975622105,80.08472450669137L1012.7921264503759,76.63444627201982L1014.1439856734662,78.06311357188038L1014.2814504231769,70.82826763657316L1014.4192827256944,77.60706055112084L1015.5050337167244,83.03009488275896L1018.2208814055265,87.36852234806948L1021.4693131112556,86.65037443272011L1022.4242153030959,94.45363088209152L1022.8307287073204,100.69623604158868L1024.1884687753181,101.50143527513326L1025.4109494104453,85.39003511157763L1025.8178303674767,64.12314019908223L1027.1796135163481,76.4318434951812L1027.8606888671873,82.08992123800729L1032.7506114076966,99.18304810151692L1033.966476092303,104.47976981712898L1034.2410380389178,83.58381785112107L1034.7864864040796,83.62261083516137L1035.596572790075,96.2203098916424L1036.007864380787,89.54291457998065L1036.9546804108795,75.82321855545554L1038.0400638491028,73.22524151103113L1038.4465772533274,75.33574976308941L1039.533063349971,77.02415636473602L1040.077409056713,78.37488164605328L1043.7437483036745,92.02212654035594L1044.2869913519964,102.93992245579807L1045.24262864945,107.48526930055388L1045.784401486545,111.12154677635856L1047.2843844907406,97.27501420015572L1048.9104381076386,86.19778813919343L1054.4792306821469,73.14711740282578L1056.5165758897567,75.27325047652512L1058.417559006076,85.35193171713554L1059.5040451027198,80.84821204037513L1061.4053957718459,77.24523629896674L1061.5432280743632,74.36285570584L1065.0728376772279,80.43473100653432L1066.9785989800346,89.4811161411429L1070.3604523546005,96.7182242488298L1072.6686839807578,89.9412460657305L1074.2958402560762,84.51966351925104L1074.701986107494,71.80461770687185L1075.5146453631364,78.38814060735983L1077.9585039749709,75.27717915255451L1078.227185076678,81.16618976390596L1080.6732490053528,90.06628314704022L1081.2157569480612,84.61969318429882L1084.605696484375,76.07353132650793L1085.5561880425346,69.23660184027516L1087.32007396195,76.33372791408242L1088.1316305591722,69.44475911033479L1091.6656507957175,72.3113638425323L1093.707406637008,78.79353751588816L1094.791687416811,83.97927645457283L1094.928784613715,88.12786760552056L1097.9107405345774,95.63562542033193L1098.4536160300922,93.26405689053004L1100.3586422272856,95.55569195428632L1101.9880038194442,97.38900000529135L1102.1195877242474,103.04453134014855L1103.073019704861,103.38007151398115L1104.97179750434,116.21516832229602L1105.787764735243,109.72769121210135L1107.0058347366896,100.34881963634773L1108.2264776077834,97.03461226334268L1108.4992017903644,86.005466589743L1108.6311532479742,85.5599298260589L1111.2172547960067,72.63683075231816L1111.6226655418113,74.86502115611906L1112.844411071325,105.96979520202746L1114.601313487413,93.15361294069083L1117.848642534722,95.467336794415L1120.017939199942,105.69609065904525L1121.5113062536168,88.74575941870728L1123.9573701822915,79.37438431403461L1125.311434722222,84.44395389309001L1125.4492670247394,101.0662742255831L1126.2593534107348,93.41968604713318L1127.2124178385413,91.49130539197105L1127.7563959924767,85.75971098024357L1127.8876123444732,76.9855455632637L1128.0243419885703,74.15510311727766L1131.0132814127603,67.70185927289097L1131.1448653175635,58.35037430978384L1131.6862706018517,67.62474588968936L1131.9608325484662,70.85535326601601L1133.18257807798,81.81761394872825L1133.7247184678818,69.64297805045362L1137.65422552445,97.6032708298973L1137.790220062934,94.83817321818232L1139.013068250868,88.43720524121254L1139.418478996672,79.12754097203884L1140.3667652379916,71.67980955669991L1141.7274457284432,65.72162442442878L1141.864542925347,60.95507631861188L1142.1324889214409,52.95294794636054L1142.8128291666665,46.551245248559454L1143.624018211082,53.99655275311204L1144.1683639178239,55.76390886915631L1144.4425583116317,52.98890387439384L1146.6103847656248,50.76889987858391L1147.42047115162,53.1817865695338L1147.5586710069442,63.48987569748934L1148.644789550781,67.54745711225594L1151.2224373842591,74.98241213166705L1153.531036563223,97.68593070404256L1157.0606461660877,82.33763145470512L1160.1837423647278,74.24788194283293L1161.9483633897567,76.15386210853086L1162.341277340133,69.30086646589352L1166.5585782443575,68.0073598393815L1166.6908972547742,79.53921920742064L1168.8635018952546,84.57582180779882L1169.0002315393517,88.60510388810135L1170.36238224103,79.26185988954994L1170.769263198061,67.59837480311099L1171.0379442997682,62.45647662155764L1172.545645912905,66.72073785151062L1173.3590402741609,57.56547717267951L1173.7662887839986,46.05238373556146L1174.3095318323203,45.21968376751799L1176.7589037362557,48.74241368068113L1176.8956333803528,47.371707723613746L1177.4377737702544,54.65292273315552L1177.844287174479,60.47789474078892L1178.1133358289928,56.76009257169995L1180.0183620261862,53.785850836428814L1180.5608699688944,59.78423722340751L1182.0535019169558,52.01627667019707L1182.460750426794,54.17968800282435L1185.1762305627892,64.28819684412179L1186.2608788953992,72.37500391715975L1187.6230295970772,74.65555968799227L1189.2523911892358,55.535559860213866L1192.3743847294559,69.56177922408655L1193.0561951859083,68.2160900459359L1195.3677347873263,79.70620337266419L1201.3419381076387,76.33162936479803L1201.4727869068286,65.25419038330949L1202.0156624023434,68.95890886091206L1205.007542248987,71.92268364299416L1205.817996187789,74.29370346865984L1211.6477512550634,67.8127395539967L1212.733134693287,58.439078534668376L1213.8196207899302,59.31792949440139L1213.9574530924476,60.02101026218776L1216.2667873770251,64.7723647640147L1218.0269977683736,60.1956685902806L1218.5698732638887,56.53431165129332L1220.068753609664,57.79411598770135L1221.6970125434025,67.17973923202338L1222.1042610532404,70.4993479398832L1222.3733097077545,64.7772551309754L1222.916920308883,64.38847077144702L1224.0056117223667,51.510778614575514L1232.1487441550923,41.208624889078294L1232.9669167028353,37.15578680273365L1233.1029112413191,33.91351633365793L1235.4045269169558,48.07525950878866L1236.3564886863423,51.02687427369761L1239.4770120153353,57.57705597322258L1240.020255063657,67.00609122044037L1241.5103141420716,66.17153964301896L1241.9171950991029,61.31500849348404L1244.226896936487,53.24089368625824L1245.0435992730033,46.7816018404776L1246.8038096643515,37.425283469799936L1249.5185546947334,42.50689344250659L1250.7395651186341,42.38329153307414L1252.9180506040218,42.28441000552815L1253.1918774450228,46.39419467108919L1254.4081096824361,32.92646784669136L1255.6320605287904,59.852285388464175L1256.7086226996526,52.07071520224237L1259.423735282841,41.656574159211765L1259.6924163845483,45.89192599403607L1260.097459577546,45.091317574297705L1260.3709188657406,57.01750050130047L1261.1832105685762,53.9917771801092L1262.812204607928,51.5711985231562L1262.9489342520253,45.44584570999599L1263.899058257378,40.545563459467814L1264.3114525065102,45.00311743424095L1264.9844416956016,44.38027072646156L1265.9408140986689,52.25977313543375L1266.209495200376,45.99670539981804L1273.1316172092013,40.98625121132544L1274.6282922381363,41.16677774812917L1275.0340705367475,45.500088865170014L1275.7140432291665,48.96673775880271L1277.8848101056133,39.173392204460065L1278.428053153935,43.905380430234736L1278.5596370587382,43.50208112325661L1278.8345665581596,51.55722145286977L1280.18642578125,41.245779159713706L1280.7281986183445,53.94106976963327L1281.270706561053,51.53063259477546L1282.4920845377603,70.54672729933367L1282.629549287471,69.00404850613361L1283.3098895326964,76.1476852467692L1283.850927264178,65.10703508888643L1283.982511168981,60.46340485017798L1286.0242670102718,56.74850065921123L1290.2327466471352,62.15435708163349L1291.8595353696467,53.9123725567778L1292.808189163773,55.696564712088914L1293.488161856192,44.55725376708904L1295.3898800781249,48.21246968033787L1296.6145660300924,55.32553229853479L1298.6493383680552,48.44931273029884L1300.1482187138306,42.94833707571007L1301.0987102719905,55.303116102430366L1301.2354399160877,60.998049436208774L1302.455347681568,52.98732644043808L1307.601822081163,63.33430759421275L1308.0142163302949,71.6118925172325L1308.2821623263887,65.66729079285484L1308.688675730613,56.72271952575489L1308.8261404803238,66.32262206246624L1309.3697510814523,69.8136542042375L1313.7123874927659,68.41759003005666L1315.6155759259257,75.67851846590766L1319.2837529369212,73.10948143939284L1320.0964121925635,66.86536193058313L1320.6381850296584,57.68117643593751L1323.0849840639464,54.52271792781884L1323.7664269675925,51.99595112132393L1325.8026695167823,49.97453767612801L1326.2073451569731,31.601852363124586L1326.6127559027777,29.470368781970684L1329.465333235677,36.14296169224321L1330.9539221028647,45.66992590805904L1332.7244239728009,36.53594272386513L1332.8618887225114,50.17320062095442L1334.218526132089,52.7052271634302L1334.6301852756076,58.91973828500867L1335.173795876736,59.70245729467361L1337.4761466579862,56.139742614807716L1337.7521788158274,57.478460758512846L1338.1564869032115,45.98277060422816L1341.010534447338,36.786218480800436L1341.279215549045,37.8067515637092L1341.9613935583043,38.62317803003616L1343.4547606119788,35.08742931549994L1344.541981814236,36.447720231468786L1345.0852248625577,41.724842851841686L1347.3978671223956,33.379876278891246L1348.2153045645252,30.892787914584048L1349.569001551649,28.903117223138242L1349.8428283926505,39.878050332775125L1350.6440935112846,27.71355237604012L1351.3185529116026,43.1152883426944L1351.9981580512153,42.87000745322434L1352.4039363498264,38.48489285405051L1354.4434868742765,34.976801174711426L1354.5758058846932,36.35921771883796L1358.244718001302,29.087376172488238L1359.3326743091725,27.45878782946162L1360.6871064019094,21.967032260987168L1362.1779005859373,30.140292475456388L1365.023861968316,28.30112087183613L1367.3346664641203,39.39645325173342L1367.4713961082175,44.083829268053414L1371.8184431532115,43.644840193511556L1371.9496595052083,47.48253882147594L1372.7678320529515,63.119362393096175L1379.8285214699072,54.68437680594798L1380.0968350188077,60.50305799902288L1381.457515509259,52.59133329068932L1382.4050666449652,54.63973329921818L1386.0647899414062,43.711788636792406L1388.9136917462383,55.91387735129627L1390.2747397894964,53.10887866010581L1392.4477119827834,50.864879707153484L1392.7149228732637,53.2585704323895L1392.9883821614583,46.795743237382595L1393.661003797743,41.62548148137709L1397.9944513888886,45.86705185176833L1398.6744240813075,45.07141826048347L1400.1663209237556,40.24602149985785L1400.303785673466,53.14126364174858L1400.4357371310762,42.513012910816734L1400.8481313802083,38.19929722012442L1403.0185307038482,34.74832466757054L1406.6786215530958,40.36532640072307L1407.0851349573204,32.292263117996335L1409.7984097764754,30.022697385868113L1410.6129067961515,28.207044800165544L1410.744123148148,30.943412619201272L1414.2899050745077,28.94361698683205L1415.2378237630207,27.343780480936644L1416.1868451099535,26.063911276220335L1420.6676813765912,33.417795687642936L1423.6573559063945,26.73423854753224L1423.788572258391,25.576277729496812L1425.0143608687788,24.649909075068475L1425.9597066876445,23.908814151525807L1426.371365831163,23.315938212691666L1427.320019625289,18.65275256757123L1427.7257979239002,10.733314163877095L1430.3056510742185,16.96442811017048L1430.7158400065102,21.94931926720523L1432.2073692961515,13.370567523584254L1433.6977959273725,10.6964560162853L1435.0544333369498,25.31272136729275L1435.3234819914637,28.627953872903028L1435.4609467411744,18.71347520814244L1435.866357486979,27.53744683318066L1439.1243455656827,34.59662413321116L1439.8050533637152,44.432855860833435L1439.9417830078123,48.11295135533341L1440.4857611617476,51.05702775093336L1443.0630414424186,45.03450909221769L1444.4097549262149,52.78316382803868L1445.4966085756655,50.60430784149979L1447.1256026150172,57.239002827464304L1452.5459038556132,54.16897904104031L1453.7683844907408,39.14629534265228L1453.9003359483504,35.50592316559285L1454.7188760489003,28.404740529892173L1454.9871895978006,31.101569202982574L1456.209670232928,20.692367472206183L1460.9547769675926,12.365006087584998L1464.7585809642649,30.83645131193029L1465.1698725549768,37.23582771621087L1465.5756508535878,33.97754906443973L1466.7988665943285,31.370926143022825L1470.6008328269672,25.096742911836113L1473.8588209056713,41.021840771331185L1475.2095774703414,28.628584726884934L1482.6826611364295,31.28064456057681L1483.4964230504916,33.40229242753029L1484.0370932291667,35.09961072109306L1484.4432390805841,23.890800686694504L1485.9351359230325,10.73486277157784L1488.1048001410588,16.96566699633109L1488.3793620876734,17.7614204885359L1489.0578645688656,30.964692945093212L1493.2542149631076,33.149531135143384L1493.9334525499132,30.70851179958569L1494.070917299624,32.94458621873737L1494.3399659541378,22.166781084809934L1495.9685924406826,26.11120164691675L1496.243521940104,16.70007342735348L1497.873618637876,17.548945633353796L1499.2295209418403,30.794713060947526L1500.994141966869,28.824657340229056L1501.6759524233219,23.059727869601133L1501.8134171730326,35.20333884994539L1503.847086852575,32.35155797142733L1504.6568056857636,34.25902315621072L1506.0171186234084,39.973885191635276L1509.2751067021122,36.16799504477927L1511.5848085394964,37.312172814892236L1512.6701919777197,42.41640491858049L1514.5671320131655,42.31090071393319L1518.772671227575,54.79316701300887L1519.7253681025752,48.023420501878114L1520.1322490596062,50.98540306816917L1521.2165298394095,36.59943456435545L1523.3883993742766,41.846214318151L1523.9305397641779,41.85474823358964L1524.610512456597,25.10602080909392L1524.8799286639178,24.27370353874616L1525.1544906105323,19.4189648284148L1525.5591662507234,19.72405875420287L1530.3086836190682,15.779249000780183L1531.1257535083912,12.623401198041993L1531.256602307581,14.287607849904614L1532.2126071578411,23.996752946590412L1533.427001631221,31.764069023938976L1534.9244117657695,29.6001421106222L1536.1410115559895,27.86900057996877L1537.771843359375,26.484087355446036L1537.9001192889177,24.7777453614695" style="fill: none;" fill="none"></path></g></g></g></g><g opacity="0.2"><g><g><g><path stroke="rgb(255, 112, 67)" stroke-width="2px" d="M132.31901041666666,335.11111048691805L133.1283616970486,293.22222097383604L135.56817722800926,293.22222097383604L135.97469063223377,356.055555243459L137.46548481626158,356.055555243459L139.49841939019097,314.1666641698943L139.90640300564235,356.055555243459L142.6134294270833,356.055555243459L150.88373513093168,335.11111048691805L151.29318895760994,293.22222097383604L152.50942119502312,314.1666641698943L154.68129072989004,335.11111048691805L154.9525447012442,272.27777777777777L160.9241751519097,377L161.60414784432868,293.22222097383604L164.45782783564815,314.1666641698943L165.13633031684026,293.22222097383604L166.08902719184027,293.22222097383604L166.90536197554977,335.11111048691805L171.6648032696759,230.38889138566122L171.93752745225692,293.22222097383604L173.0229108904803,251.33332833978864L175.87732598741317,314.1666641698943L176.95205039424187,272.27777777777777L179.66495766059026,314.1666641698943L186.99138775679972,356.055555243459L187.12370676721642,293.22222097383604L189.82595500217013,230.38889138566122L190.23540882884836,272.27777777777777L192.2584194769965,356.055555243459L192.66052224754048,293.22222097383604L192.7972518916377,314.1666641698943L194.146538245081,209.4444419476721L196.7153648111979,230.38889138566122L199.54368365885418,335.11111048691805L202.51792097077544,272.27777777777777L206.15926662688074,188.50000499354468L207.51333116681135,272.27777777777777L208.31937447193286,251.33332833978864L209.26325007957178,230.38889138566122L209.39924461805552,251.33332833978864L213.8620707971643,293.22222097383604L214.12891413483794,230.38889138566122L215.74724914279508,272.27777777777777L216.6981082537616,272.27777777777777L216.82895705295138,293.22222097383604L217.10094612991898,230.38889138566122L217.50488666449655,167.55555555555554L217.7768757414641,230.38889138566122L219.39704851345485,293.22222097383604L220.74302689163773,230.38889138566122L226.5363942310474,272.27777777777777L227.6162643771701,251.33332833978864L228.69576697048606,251.33332833978864L229.9119992078993,293.22222097383604L231.661550567853,251.33332833978864L232.20148564091434,314.1666641698943L233.41551256148728,209.4444419476721L233.95508008174187,335.11111048691805L234.2281718171296,272.27777777777777L234.4942800491898,188.50000499354468L235.43631789279513,230.38889138566122L236.11335016276038,230.38889138566122L236.38717700376154,272.27777777777777L237.05759332320602,335.11111048691805L237.33068505859373,230.38889138566122L237.8724578956886,167.55555555555554L238.41312807436339,251.33332833978864L239.22247935474536,230.38889138566122L239.359944104456,230.38889138566122L242.4705435076678,230.38889138566122L243.00974347511573,209.4444419476721L247.47698028790506,188.50000499354468L248.4226936595775,167.55555555555554L249.23792578486686,272.27777777777777L251.12861742259835,314.1666641698943L251.66928760127308,272.27777777777777L252.61830894820596,293.22222097383604L252.88441718026613,272.27777777777777L253.96649264322915,251.33332833978864L255.86637310112843,272.27777777777777L257.3545944155092,251.33332833978864L257.7592700557002,188.50000499354468L258.9758698459201,251.33332833978864L260.0572102032697,188.50000499354468L261.2763828631366,293.22222097383604L261.4079667679398,251.33332833978864L262.2209935763889,251.33332833978864L262.3584583260995,251.33332833978864L263.0303448567708,230.38889138566122L265.4690577293113,377L265.8744684751157,251.33332833978864L267.09400868778937,251.33332833978864L272.89766750578696,188.50000499354468L273.7066512333622,188.50000499354468L274.11022421513303,293.22222097383604L274.38441860894096,314.1666641698943L274.924721234809,230.38889138566122L275.7329698567708,251.33332833978864L276.40889946831595,167.55555555555554L277.76553687789345,272.27777777777777L278.5763583695023,272.27777777777777L279.25412574508096,167.55555555555554L280.6004716760705,293.22222097383604L286.2868811487268,251.33332833978864L286.82865398582175,251.33332833978864L286.96501607711224,251.33332833978864L287.09659998191546,230.38889138566122L289.5294320095486,314.1666641698943L291.28780463686337,272.27777777777777L293.05205810908564,230.38889138566122L298.19375432219323,314.1666641698943L299.68013787254046,209.4444419476721L300.0844459599247,188.50000499354468L300.49316468098954,314.1666641698943L303.1998235496238,272.27777777777777L304.0069695131655,209.4444419476721L304.95231533203116,188.50000499354468L305.7660772460937,230.38889138566122L307.9346388057002,188.50000499354468L308.3389468930844,251.33332833978864L309.82716820746526,314.1666641698943L310.23772469256363,209.4444419476721L310.64240033275456,335.11111048691805L310.77802731843167,167.55555555555554L317.26533435691545,272.27777777777777L317.6711126555266,251.33332833978864L318.0809340350115,167.55555555555554L318.212150387008,230.38889138566122L321.1904307798032,167.55555555555554L322.81280886863425,251.33332833978864L324.1650356445312,209.4444419476721L324.70717603443285,314.1666641698943L328.09380759548606,167.55555555555554L328.23090479239,230.38889138566122L329.7143479202835,146.6111061175664L330.7967909360532,251.33332833978864L331.6109204029225,293.22222097383604L335.9443679940683,167.55555555555554L336.48540572554975,230.38889138566122L339.8683617585358,272.27777777777777L342.0405988462095,209.4444419476721L342.18467954644086,230.38889138566122L344.2209220956308,230.38889138566122L344.7645326967592,230.38889138566122L346.9349320203993,188.50000499354468L347.07055900607634,251.33332833978864L350.0561904550057,209.4444419476721L351.408049678096,209.4444419476721L351.812725318287,251.33332833978864L352.4912277994791,251.33332833978864L352.89810875651034,293.22222097383604L354.5260001374421,272.27777777777777L355.6102809172453,104.72223220931158L356.56187513382514,188.50000499354468L357.51089648075805,188.50000499354468L358.7344797743055,251.33332833978864L359.27735526982053,167.55555555555554L359.54603637152775,293.22222097383604L359.82059831814234,209.4444419476721L360.2278468279802,230.38889138566122L361.17760328052657,272.27777777777777L362.3993488100405,251.33332833978864L364.2889377893518,230.38889138566122L364.55688378544556,272.27777777777777L364.9681753761573,188.50000499354468L365.6422672236689,251.33332833978864L366.05282370876733,209.4444419476721L366.185142719184,230.38889138566122L368.89694732711223,167.55555555555554L370.1161199869792,209.4444419476721L370.93466008752887,230.38889138566122L371.8840489872685,272.27777777777777L372.0218812897859,167.55555555555554L373.24472947771983,146.6111061175664L374.19926411675345,230.38889138566122L377.0511063440393,251.33332833978864L377.5939818395543,230.38889138566122L378.95245701316543,188.50000499354468L379.4957000614871,146.6111061175664L380.7181806966145,251.33332833978864L382.48022885199646,272.27777777777777L382.89299065393516,251.33332833978864L383.7041796983507,188.50000499354468L383.97910919777195,167.55555555555554L388.5885889467592,209.4444419476721L389.4063939416955,209.4444419476721L391.7102149341725,209.4444419476721L393.07016031901037,167.55555555555554L393.4766737232349,230.38889138566122L393.7497654586227,188.50000499354468L396.19105120081014,230.38889138566122L398.09387208116317,188.50000499354468L398.36292073567705,146.6111061175664L400.8089846643518,230.38889138566122L401.3525952654803,188.50000499354468L402.44275689019094,167.55555555555554L404.74804809389457,209.4444419476721L405.5640153247974,230.38889138566122L408.8234736147279,230.38889138566122L410.58993240379056,230.38889138566122L410.9817436957465,146.6111061175664L411.1195759982639,146.6111061175664L411.6642892578125,209.4444419476721L412.2071647533275,188.50000499354468L412.75114290726265,125.66665667957732L413.7012669126157,251.33332833978864L415.7404498842592,209.4444419476721L420.3477243164062,272.27777777777777L420.8898647063078,251.33332833978864L421.8392536060474,251.33332833978864L423.0621017939814,251.33332833978864L426.0499385597511,251.33332833978864L426.3186196614583,188.50000499354468L426.59281405526616,209.4444419476721L427.26837611400464,209.4444419476721L427.6793001519097,314.1666641698943L428.76505114293974,104.72223220931158L429.3071915328414,230.38889138566122L432.0212014576099,167.55555555555554L432.6963959635416,230.38889138566122L432.8323905020254,188.50000499354468L433.10695244863996,188.50000499354468L433.51273074725106,209.4444419476721L434.0563413483796,230.38889138566122L434.1930709924768,146.6111061175664L435.1413572337963,230.38889138566122L435.546400426794,167.55555555555554L436.2252704607928,167.55555555555554L438.80181563585063,230.38889138566122L440.16102591507513,251.33332833978864L440.971847406684,188.50000499354468L441.78818219039346,272.27777777777777L442.33399810836227,230.38889138566122L443.9637272533274,209.4444419476721L444.0956787109375,251.33332833978864L447.4870884584779,209.4444419476721L448.71140685763885,188.50000499354468L453.4697454933449,209.4444419476721L453.6068426902487,209.4444419476721L453.87405358072914,209.4444419476721L459.8409058449073,293.22222097383604L460.9292297055845,167.55555555555554L461.87678084129044,209.4444419476721L462.1498725766781,188.50000499354468L462.4192887839987,167.55555555555554L463.10146679325806,230.38889138566122L466.4961845160591,188.50000499354468L466.62813597366903,230.38889138566122L467.9888164641203,272.27777777777777L468.2574975658275,272.27777777777777L468.9363675998264,167.55555555555554L470.83882092737264,146.6111061175664L471.6503775245949,146.6111061175664L472.87396081814234,230.38889138566122L474.9087331561052,188.50000499354468L475.4516086516203,230.38889138566122L475.7254354926215,209.4444419476721L479.114272370515,188.50000499354468L480.74179619864,230.38889138566122L482.1013740306713,188.50000499354468L482.9144008391203,188.50000499354468L485.2218973596642,146.6111061175664L486.0389672489872,272.27777777777777L486.17091870659715,167.55555555555554L488.07300448133674,188.50000499354468L488.88529618417243,188.50000499354468L489.5641662181713,209.4444419476721L492.6843219943576,251.33332833978864L493.6384890805844,167.55555555555554L494.3133160337094,188.50000499354468L496.0783046115451,125.66665667957732L497.0247530888309,146.6111061175664L499.0646711660879,230.38889138566122L500.6962380750867,188.50000499354468L501.1012812680844,146.6111061175664L502.9974861979166,188.50000499354468L507.7400200629339,188.50000499354468L507.8774848126446,104.72223220931158L508.0149495623553,230.38889138566122L510.4536624348957,188.50000499354468L512.4899049840855,230.38889138566122L519.0062486942998,209.4444419476721L520.2294644350403,209.4444419476721L521.4545179398148,146.6111061175664L522.2657069842302,167.55555555555554L525.1215922923899,125.66665667957732L525.3965217918113,230.38889138566122L525.5277381438078,209.4444419476721L531.9143357132522,230.38889138566122L533.0074377604165,167.55555555555554L536.1272259837962,209.4444419476721L537.8955225368923,104.72223220931158L538.4376629267939,209.4444419476721L540.0622463324652,209.4444419476721L540.4691272894964,167.55555555555554L541.5523054108795,83.77778277132245L541.958818815104,209.4444419476721L545.220482421875,251.33332833978864L545.7618877061632,188.50000499354468L546.037184758391,251.33332833978864L549.8358430157696,188.50000499354468L552.9423993381075,104.72223220931158L554.984155179398,209.4444419476721L556.0702737232349,146.6111061175664L556.7443655707465,146.6111061175664L557.4254409215856,167.55555555555554L558.244348574942,209.4444419476721L560.4169532154224,146.6111061175664L562.8578714048032,188.50000499354468L562.9957037073206,188.50000499354468L563.9476654767071,146.6111061175664L564.353811328125,251.33332833978864L567.6103291956017,188.50000499354468L568.9702745804398,188.50000499354468L569.3753177734375,167.55555555555554L569.512782523148,167.55555555555554L569.7796258608217,209.4444419476721L569.9163555049188,104.72223220931158L573.3209971535011,146.6111061175664L574.5420075774016,167.55555555555554L577.7999956561052,188.50000499354468L578.886114199942,146.6111061175664L580.7793787073205,83.77778277132245L580.9172110098378,146.6111061175664L583.2265452944155,230.38889138566122L587.1597278790509,188.50000499354468L587.4350249312788,146.6111061175664L588.7898245768229,209.4444419476721L591.0976886501736,125.66665667957732L591.7780288953993,167.55555555555554L594.7599848162615,167.55555555555554L595.8486762297453,167.55555555555554L597.3468214699074,188.50000499354468L597.6162376772279,209.4444419476721L598.5667292353877,125.66665667957732L599.3698321180555,104.72223220931158L600.3262045211226,125.66665667957732L601.1395988823784,230.38889138566122L601.5461122866029,188.50000499354468L603.8561816767939,146.6111061175664L605.4859108217591,188.50000499354468L605.8931593315972,146.6111061175664L609.0206661639178,146.6111061175664L609.2889797128182,104.72223220931158L610.1078873661746,146.6111061175664L610.650395308883,209.4444419476721L612.8336589807581,167.55555555555554L615.136009762008,125.66665667957732L617.8518574508101,125.66665667957732L620.2975538266783,146.6111061175664L620.5662349283854,188.50000499354468L620.8404293221934,146.6111061175664L621.2440023039642,251.33332833978864L621.6497806025751,188.50000499354468L623.9583797815392,146.6111061175664L625.4469686487267,167.55555555555554L627.3501570818864,104.72223220931158L631.695366362847,188.50000499354468L634.9555597583911,125.66665667957732L635.4995379123263,188.50000499354468L635.7693216724537,209.4444419476721L636.5863915617765,167.55555555555554L636.9998884693287,167.55555555555554L637.2744504159433,230.38889138566122L638.4928879701966,167.55555555555554L639.4474226092302,209.4444419476721L641.2068978949652,146.6111061175664L642.291913780382,167.55555555555554L644.0602103334779,167.55555555555554L644.3344047272858,125.66665667957732L644.7394479202835,83.77778277132245L646.8980855541087,209.4444419476721L647.5780582465277,104.72223220931158L647.8518850875288,104.72223220931158L649.2059496274594,125.66665667957732L649.7502953342013,62.833333333333364L653.6867858940972,62.833333333333364L654.3667585865161,188.50000499354468L655.3161474862557,209.4444419476721L661.285572620081,230.38889138566122L662.3709560583043,83.77778277132245L663.3196098524304,167.55555555555554L663.864323111979,83.77778277132245L665.3536470847799,188.50000499354468L666.1699818684896,188.50000499354468L666.9815384657118,125.66665667957732L669.9704778899016,167.55555555555554L671.4623747323494,146.6111061175664L672.1430825303819,251.33332833978864L673.367033376736,125.66665667957732L673.4978821759258,146.6111061175664L675.1257735568577,188.50000499354468L676.622081032986,230.38889138566122L677.026756673177,167.55555555555554L684.7600677264178,104.72223220931158L685.4337920211226,188.50000499354468L685.57162432364,167.55555555555554L686.9312021556711,104.72223220931158L696.8334423213252,209.4444419476721L698.3246040581596,188.50000499354468L698.4613337022568,167.55555555555554L698.730014803964,125.66665667957732L699.0045767505786,146.6111061175664L699.4107226019964,188.50000499354468L699.5485549045138,125.66665667957732L702.9418024160879,62.833333333333364L703.6155267107927,104.72223220931158L704.0264507486978,125.66665667957732L705.1110990813077,104.72223220931158L706.6029959237557,167.55555555555554L707.8247414532696,62.833333333333364L708.2305197518807,125.66665667957732L708.3668818431712,125.66665667957732L710.4060648148146,188.50000499354468L712.5760965856481,104.72223220931158L713.3883882884836,167.55555555555554L713.9316313368054,125.66665667957732L715.1566848415797,209.4444419476721L715.4305116825809,104.72223220931158L716.6489492368344,83.77778277132245L717.1921922851562,125.66665667957732L718.6896024197048,83.77778277132245L722.2173742585358,83.77778277132245L723.4420602105034,167.55555555555554L725.4757298900462,230.38889138566122L726.4269565538193,230.38889138566122L727.2443939959488,167.55555555555554L727.7872694914639,188.50000499354468L727.9236315827545,146.6111061175664L730.4998092050057,146.6111061175664L730.9055875036167,230.38889138566122L735.7951424913193,104.72223220931158L736.612579933449,251.33332833978864L738.6477198242187,104.72223220931158L738.9171360315393,209.4444419476721L741.2176490487557,125.66665667957732L741.3499680591723,125.66665667957732L743.9323940791376,230.38889138566122L744.0639779839407,125.66665667957732L744.4760046802661,167.55555555555554L745.692604470486,146.6111061175664L747.1907497106481,125.66665667957732L750.5762786132811,251.33332833978864L750.987570203993,209.4444419476721L752.4776292824073,146.6111061175664L752.8830400282117,83.77778277132245L753.1572344220195,188.50000499354468L753.4262830765334,104.72223220931158L755.0541744574651,104.72223220931158L757.3627736364292,230.38889138566122L760.2153509693286,62.833333333333364L761.1647398690682,146.6111061175664L762.2512259657117,62.833333333333364L762.7944690140334,83.77778277132245L763.7416525969328,167.55555555555554L763.8791173466435,125.66665667957732L764.0151118851273,83.77778277132245L765.3680737666376,146.6111061175664L768.8995211335358,167.55555555555554L769.5739805338541,62.833333333333364L771.7476878327545,146.6111061175664L773.2506112594039,104.72223220931158L773.7945894133389,167.55555555555554L773.9258057653356,146.6111061175664L775.0111892035588,104.72223220931158L775.8282590928818,125.66665667957732L776.2329347330729,62.833333333333364L777.4579882378471,209.4444419476721L778.0015988389756,167.55555555555554L778.9473122106481,146.6111061175664L779.0847769603588,125.66665667957732L779.8963335575809,146.6111061175664L780.7141385525173,167.55555555555554L780.9828196542244,146.6111061175664L781.3933761393229,209.4444419476721L786.1370126627603,125.66665667957732L787.7513045898437,104.72223220931158L790.3318928457753,125.66665667957732L793.4546214916087,125.66665667957732L796.1697340747971,125.66665667957732L799.4295599175346,125.66665667957732L799.834970663339,125.66665667957732L801.6025321108216,104.72223220931158L802.6886506546585,167.55555555555554L803.9114988425923,209.4444419476721L804.3172771412035,167.55555555555554L804.5859582429107,209.4444419476721L804.722687887008,104.72223220931158L810.6913779152198,104.72223220931158L811.5069775933157,146.6111061175664L811.9131234447336,83.77778277132245L812.8614096860531,230.38889138566122L814.6282360279223,125.66665667957732L814.8969171296294,146.6111061175664L815.0336467737267,83.77778277132245L815.983403226273,167.55555555555554L818.4302022605613,167.55555555555554L821.5507255895543,188.50000499354468L822.2325360460069,104.72223220931158L824.9472810763888,62.833333333333364L825.2155946252892,146.6111061175664L826.0337671730324,62.833333333333364L829.5604363534432,167.55555555555554L830.2418792570891,62.833333333333364L832.5548890697336,146.6111061175664L834.9877210973667,146.6111061175664L836.0712667715566,125.66665667957732L839.1895847837093,209.4444419476721L839.7309900679976,41.88888389534423L840.2731304578992,62.833333333333364L843.9372643880207,83.77778277132245L847.0636685619212,83.77778277132245L850.9968511465565,41.88888389534423L852.4986719147856,125.66665667957732L854.6705414496528,146.6111061175664L856.5682165907116,83.77778277132245L856.7056813404223,188.50000499354468L859.4204263708042,104.72223220931158L862.678414449508,146.6111061175664L864.848813773148,146.6111061175664L867.4253589482058,125.66665667957732L867.8307696940103,104.72223220931158L868.5107423864291,125.66665667957732L873.5373945710356,41.88888389534423L874.4860483651619,146.6111061175664L875.0285563078703,62.833333333333364L875.8441559859663,62.833333333333364L876.6553450303818,146.6111061175664L877.7414635742188,62.833333333333364L878.0156579680264,83.77778277132245L881.2607816984952,104.72223220931158L882.3457975839118,146.6111061175664L884.6543967628759,62.833333333333364L885.6037856626157,125.66665667957732L887.2346174660009,104.72223220931158L887.5088118598088,125.66665667957732L888.3225737738713,125.66665667957732L889.9512002604165,104.72223220931158L890.631908058449,167.55555555555554L891.9837672815393,62.833333333333364L893.3426100079571,125.66665667957732L897.1427384765622,209.4444419476721L897.4106844726562,83.77778277132245L897.9542950737845,146.6111061175664L899.9942131510415,125.66665667957732L905.5530817997683,0.000009987089359730916L905.9647409432869,167.55555555555554L908.4052915798609,146.6111061175664L910.8487826388887,41.88888389534423L913.1515009729455,104.72223220931158L913.5627925636571,83.77778277132245L914.2368844111687,146.6111061175664L914.9168571035877,104.72223220931158L917.3610832682291,83.77778277132245L917.4922996202255,62.833333333333364L919.7983259295426,125.66665667957732L920.2041042281537,104.72223220931158L921.1579037615741,104.72223220931158L924.822772797309,188.50000499354468L925.091453899016,83.77778277132245L926.0470911964696,125.66665667957732L928.4799232241029,83.77778277132245L929.6965230143228,146.6111061175664L930.9197387550635,62.833333333333364L932.284094773582,125.66665667957732L933.7789320384837,104.72223220931158L934.4589047309026,83.77778277132245L937.0383903284142,125.66665667957732L937.7187305736398,167.55555555555554L937.9877792281537,104.72223220931158L938.5321249348957,188.50000499354468L939.7557082284432,167.55555555555554L942.1966264178238,83.77778277132245L944.9091661313655,62.833333333333364L945.587301059751,104.72223220931158L946.812722117332,146.6111061175664L947.6231760561341,41.88888389534423L948.3013109845195,209.4444419476721L948.7085594943575,146.6111061175664L951.695293601707,146.6111061175664L954.1362117910878,83.77778277132245L954.6794548394097,62.833333333333364L955.3608977430554,146.6111061175664L957.5335023835357,104.72223220931158L957.8087994357637,83.77778277132245L959.9773609953701,167.55555555555554L960.246409649884,125.66665667957732L961.0645821976271,62.833333333333364L961.3339984049478,146.6111061175664L961.6092954571758,62.833333333333364L963.2386570493343,125.66665667957732L963.5088083622685,41.88888389534423L963.7830027560764,209.4444419476721L966.9042611906826,209.4444419476721L968.1260067201966,62.833333333333364L968.5325201244211,167.55555555555554L970.7036545536747,125.66665667957732L972.1933460792823,125.66665667957732L972.4682755787035,104.72223220931158L973.2783619646989,146.6111061175664L975.0308537471062,104.72223220931158L975.7126642035589,83.77778277132245L976.6594802336514,125.66665667957732L977.4765501229743,83.77778277132245L979.2411711480032,83.77778277132245L982.7700456452545,62.833333333333364L985.8949796079281,146.6111061175664L986.4378551034431,104.72223220931158L986.5760549587673,83.77778277132245L987.5258114113136,83.77778277132245L989.8369834599247,188.50000499354468L991.3303505135992,104.72223220931158L992.8270255425344,146.6111061175664L993.7749442310472,104.72223220931158L994.5853981698493,125.66665667957732L997.842283590133,62.833333333333364L1005.3175725730612,125.66665667957732L1005.8604480685761,125.66665667957732L1007.6202909071178,83.77778277132245L1009.6638845124419,41.88888389534423L1010.7500030562787,62.833333333333364L1010.8808518554684,146.6111061175664L1011.4251975622105,0.000009987089359730916L1012.7921264503759,62.833333333333364L1014.1439856734662,83.77778277132245L1014.2814504231769,41.88888389534423L1014.4192827256944,104.72223220931158L1015.5050337167244,104.72223220931158L1018.2208814055265,104.72223220931158L1021.4693131112556,83.77778277132245L1022.4242153030959,125.66665667957732L1022.8307287073204,125.66665667957732L1024.1884687753181,104.72223220931158L1025.4109494104453,20.944434457355094L1025.8178303674767,-20.944439450899733L1027.1796135163481,125.66665667957732L1027.8606888671873,104.72223220931158L1032.7506114076966,167.55555555555554L1033.966476092303,125.66665667957732L1034.2410380389178,0.000009987089359730916L1034.7864864040796,83.77778277132245L1035.596572790075,146.6111061175664L1036.007864380787,62.833333333333364L1036.9546804108795,20.944434457355094L1038.0400638491028,62.833333333333364L1038.4465772533274,83.77778277132245L1039.533063349971,83.77778277132245L1040.077409056713,83.77778277132245L1043.7437483036745,146.6111061175664L1044.2869913519964,146.6111061175664L1045.24262864945,125.66665667957732L1045.784401486545,125.66665667957732L1047.2843844907406,41.88888389534423L1048.9104381076386,41.88888389534423L1054.4792306821469,20.944434457355094L1056.5165758897567,83.77778277132245L1058.417559006076,125.66665667957732L1059.5040451027198,62.833333333333364L1061.4053957718459,62.833333333333364L1061.5432280743632,62.833333333333364L1065.0728376772279,104.72223220931158L1066.9785989800346,125.66665667957732L1070.3604523546005,125.66665667957732L1072.6686839807578,62.833333333333364L1074.2958402560762,62.833333333333364L1074.701986107494,20.944434457355094L1075.5146453631364,104.72223220931158L1077.9585039749709,62.833333333333364L1078.227185076678,104.72223220931158L1080.6732490053528,125.66665667957732L1081.2157569480612,62.833333333333364L1084.605696484375,41.88888389534423L1085.5561880425346,41.88888389534423L1087.32007396195,104.72223220931158L1088.1316305591722,41.88888389534423L1091.6656507957175,83.77778277132245L1093.707406637008,104.72223220931158L1094.791687416811,104.72223220931158L1094.928784613715,104.72223220931158L1097.9107405345774,125.66665667957732L1098.4536160300922,83.77778277132245L1100.3586422272856,104.72223220931158L1101.9880038194442,104.72223220931158L1102.1195877242474,125.66665667957732L1103.073019704861,104.72223220931158L1104.97179750434,167.55555555555554L1105.787764735243,83.77778277132245L1107.0058347366896,62.833333333333364L1108.2264776077834,83.77778277132245L1108.4992017903644,41.88888389534423L1108.6311532479742,83.77778277132245L1111.2172547960067,20.944434457355094L1111.6226655418113,83.77778277132245L1112.844411071325,230.38889138566122L1114.601313487413,41.88888389534423L1117.848642534722,104.72223220931158L1120.017939199942,146.6111061175664L1121.5113062536168,20.944434457355094L1123.9573701822915,41.88888389534423L1125.311434722222,104.72223220931158L1125.4492670247394,167.55555555555554L1126.2593534107348,62.833333333333364L1127.2124178385413,83.77778277132245L1127.7563959924767,62.833333333333364L1127.8876123444732,41.88888389534423L1128.0243419885703,62.833333333333364L1131.0132814127603,41.88888389534423L1131.1448653175635,20.944434457355094L1131.6862706018517,104.72223220931158L1131.9608325484662,83.77778277132245L1133.18257807798,125.66665667957732L1133.7247184678818,20.944434457355094L1137.65422552445,209.4444419476721L1137.790220062934,83.77778277132245L1139.013068250868,62.833333333333364L1139.418478996672,41.88888389534423L1140.3667652379916,41.88888389534423L1141.7274457284432,41.88888389534423L1141.864542925347,41.88888389534423L1142.1324889214409,20.944434457355094L1142.8128291666665,20.944434457355094L1143.624018211082,83.77778277132245L1144.1683639178239,62.833333333333364L1144.4425583116317,41.88888389534423L1146.6103847656248,41.88888389534423L1147.42047115162,62.833333333333364L1147.5586710069442,104.72223220931158L1148.644789550781,83.77778277132245L1151.2224373842591,104.72223220931158L1153.531036563223,188.50000499354468L1157.0606461660877,20.944434457355094L1160.1837423647278,41.88888389534423L1161.9483633897567,83.77778277132245L1162.341277340133,41.88888389534423L1166.5585782443575,62.833333333333364L1166.6908972547742,125.66665667957732L1168.8635018952546,104.72223220931158L1169.0002315393517,104.72223220931158L1170.36238224103,41.88888389534423L1170.769263198061,20.944434457355094L1171.0379442997682,41.88888389534423L1172.545645912905,83.77778277132245L1173.3590402741609,20.944434457355094L1173.7662887839986,0.000009987089359730916L1174.3095318323203,41.88888389534423L1176.7589037362557,62.833333333333364L1176.8956333803528,41.88888389534423L1177.4377737702544,83.77778277132245L1177.844287174479,83.77778277132245L1178.1133358289928,41.88888389534423L1180.0183620261862,41.88888389534423L1180.5608699688944,83.77778277132245L1182.0535019169558,20.944434457355094L1182.460750426794,62.833333333333364L1185.1762305627892,104.72223220931158L1186.2608788953992,104.72223220931158L1187.6230295970772,83.77778277132245L1189.2523911892358,-20.944439450899733L1192.3743847294559,125.66665667957732L1193.0561951859083,62.833333333333364L1195.3677347873263,125.66665667957732L1201.3419381076387,62.833333333333364L1201.4727869068286,20.944434457355094L1202.0156624023434,83.77778277132245L1205.007542248987,83.77778277132245L1205.817996187789,83.77778277132245L1211.6477512550634,41.88888389534423L1212.733134693287,20.944434457355094L1213.8196207899302,62.833333333333364L1213.9574530924476,62.833333333333364L1216.2667873770251,83.77778277132245L1218.0269977683736,41.88888389534423L1218.5698732638887,41.88888389534423L1220.068753609664,62.833333333333364L1221.6970125434025,104.72223220931158L1222.1042610532404,83.77778277132245L1222.3733097077545,41.88888389534423L1222.916920308883,62.833333333333364L1224.0056117223667,0.000009987089359730916L1232.1487441550923,0.000009987089359730916L1232.9669167028353,20.944434457355094L1233.1029112413191,20.944434457355094L1235.4045269169558,104.72223220931158L1236.3564886863423,62.833333333333364L1239.4770120153353,83.77778277132245L1240.020255063657,104.72223220931158L1241.5103141420716,62.833333333333364L1241.9171950991029,41.88888389534423L1244.226896936487,20.944434457355094L1245.0435992730033,20.944434457355094L1246.8038096643515,0.000009987089359730916L1249.5185546947334,62.833333333333364L1250.7395651186341,41.88888389534423L1252.9180506040218,41.88888389534423L1253.1918774450228,62.833333333333364L1254.4081096824361,-20.944439450899733L1255.6320605287904,167.55555555555554L1256.7086226996526,20.944434457355094L1259.423735282841,0.000009987089359730916L1259.6924163845483,62.833333333333364L1260.097459577546,41.88888389534423L1260.3709188657406,104.72223220931158L1261.1832105685762,41.88888389534423L1262.812204607928,41.88888389534423L1262.9489342520253,20.944434457355094L1263.899058257378,20.944434457355094L1264.3114525065102,62.833333333333364L1264.9844416956016,41.88888389534423L1265.9408140986689,83.77778277132245L1266.209495200376,20.944434457355094L1273.1316172092013,20.944434457355094L1274.6282922381363,41.88888389534423L1275.0340705367475,62.833333333333364L1275.7140432291665,62.833333333333364L1277.8848101056133,0.000009987089359730916L1278.428053153935,62.833333333333364L1278.5596370587382,41.88888389534423L1278.8345665581596,83.77778277132245L1280.18642578125,0.000009987089359730916L1280.7281986183445,104.72223220931158L1281.270706561053,41.88888389534423L1282.4920845377603,146.6111061175664L1282.629549287471,62.833333333333364L1283.3098895326964,104.72223220931158L1283.850927264178,20.944434457355094L1283.982511168981,41.88888389534423L1286.0242670102718,41.88888389534423L1290.2327466471352,83.77778277132245L1291.8595353696467,20.944434457355094L1292.808189163773,62.833333333333364L1293.488161856192,0.000009987089359730916L1295.3898800781249,62.833333333333364L1296.6145660300924,83.77778277132245L1298.6493383680552,20.944434457355094L1300.1482187138306,20.944434457355094L1301.0987102719905,104.72223220931158L1301.2354399160877,83.77778277132245L1302.455347681568,20.944434457355094L1307.601822081163,104.72223220931158L1308.0142163302949,104.72223220931158L1308.2821623263887,41.88888389534423L1308.688675730613,20.944434457355094L1308.8261404803238,104.72223220931158L1309.3697510814523,83.77778277132245L1313.7123874927659,62.833333333333364L1315.6155759259257,104.72223220931158L1319.2837529369212,62.833333333333364L1320.0964121925635,41.88888389534423L1320.6381850296584,20.944434457355094L1323.0849840639464,41.88888389534423L1323.7664269675925,41.88888389534423L1325.8026695167823,41.88888389534423L1326.2073451569731,-41.88888888888891L1326.6127559027777,20.944434457355094L1329.465333235677,62.833333333333364L1330.9539221028647,83.77778277132245L1332.7244239728009,0.000009987089359730916L1332.8618887225114,104.72223220931158L1334.218526132089,62.833333333333364L1334.6301852756076,83.77778277132245L1335.173795876736,62.833333333333364L1337.4761466579862,41.88888389534423L1337.7521788158274,62.833333333333364L1338.1564869032115,0.000009987089359730916L1341.010534447338,0.000009987089359730916L1341.279215549045,41.88888389534423L1341.9613935583043,41.88888389534423L1343.4547606119788,20.944434457355094L1344.541981814236,41.88888389534423L1345.0852248625577,62.833333333333364L1347.3978671223956,0.000009987089359730916L1348.2153045645252,20.944434457355094L1349.569001551649,20.944434457355094L1349.8428283926505,83.77778277132245L1350.6440935112846,-20.944439450899733L1351.3185529116026,104.72223220931158L1351.9981580512153,41.88888389534423L1352.4039363498264,20.944434457355094L1354.4434868742765,20.944434457355094L1354.5758058846932,41.88888389534423L1358.244718001302,0.000009987089359730916L1359.3326743091725,20.944434457355094L1360.6871064019094,0.000009987089359730916L1362.1779005859373,62.833333333333364L1365.023861968316,20.944434457355094L1367.3346664641203,83.77778277132245L1367.4713961082175,62.833333333333364L1371.8184431532115,41.88888389534423L1371.9496595052083,62.833333333333364L1372.7678320529515,125.66665667957732L1379.8285214699072,20.944434457355094L1380.0968350188077,83.77778277132245L1381.457515509259,20.944434457355094L1382.4050666449652,62.833333333333364L1386.0647899414062,0.000009987089359730916L1388.9136917462383,104.72223220931158L1390.2747397894964,41.88888389534423L1392.4477119827834,41.88888389534423L1392.7149228732637,62.833333333333364L1392.9883821614583,20.944434457355094L1393.661003797743,20.944434457355094L1397.9944513888886,62.833333333333364L1398.6744240813075,41.88888389534423L1400.1663209237556,20.944434457355094L1400.303785673466,104.72223220931158L1400.4357371310762,0.000009987089359730916L1400.8481313802083,20.944434457355094L1403.0185307038482,20.944434457355094L1406.6786215530958,62.833333333333364L1407.0851349573204,0.000009987089359730916L1409.7984097764754,20.944434457355094L1410.6129067961515,20.944434457355094L1410.744123148148,41.88888389534423L1414.2899050745077,20.944434457355094L1415.2378237630207,20.944434457355094L1416.1868451099535,20.944434457355094L1420.6676813765912,62.833333333333364L1423.6573559063945,0.000009987089359730916L1423.788572258391,20.944434457355094L1425.0143608687788,20.944434457355094L1425.9597066876445,20.944434457355094L1426.371365831163,20.944434457355094L1427.320019625289,0.000009987089359730916L1427.7257979239002,-20.944439450899733L1430.3056510742185,41.88888389534423L1430.7158400065102,41.88888389534423L1432.2073692961515,-20.944439450899733L1433.6977959273725,0.000009987089359730916L1435.0544333369498,83.77778277132245L1435.3234819914637,41.88888389534423L1435.4609467411744,-20.944439450899733L1435.866357486979,62.833333333333364L1439.1243455656827,62.833333333333364L1439.8050533637152,83.77778277132245L1439.9417830078123,62.833333333333364L1440.4857611617476,62.833333333333364L1443.0630414424186,20.944434457355094L1444.4097549262149,83.77778277132245L1445.4966085756655,41.88888389534423L1447.1256026150172,83.77778277132245L1452.5459038556132,41.88888389534423L1453.7683844907408,-20.944439450899733L1453.9003359483504,20.944434457355094L1454.7188760489003,0.000009987089359730916L1454.9871895978006,41.88888389534423L1456.209670232928,-20.944439450899733L1460.9547769675926,-20.944439450899733L1464.7585809642649,104.72223220931158L1465.1698725549768,62.833333333333364L1465.5756508535878,20.944434457355094L1466.7988665943285,20.944434457355094L1470.6008328269672,0.000009987089359730916L1473.8588209056713,104.72223220931158L1475.2095774703414,-20.944439450899733L1482.6826611364295,41.88888389534423L1483.4964230504916,41.88888389534423L1484.0370932291667,41.88888389534423L1484.4432390805841,-20.944439450899733L1485.9351359230325,-41.88888888888891L1488.1048001410588,41.88888389534423L1488.3793620876734,20.944434457355094L1489.0578645688656,83.77778277132245L1493.2542149631076,41.88888389534423L1493.9334525499132,20.944434457355094L1494.070917299624,41.88888389534423L1494.3399659541378,-20.944439450899733L1495.9685924406826,41.88888389534423L1496.243521940104,-20.944439450899733L1497.873618637876,20.944434457355094L1499.2295209418403,83.77778277132245L1500.994141966869,20.944434457355094L1501.6759524233219,0.000009987089359730916L1501.8134171730326,83.77778277132245L1503.847086852575,20.944434457355094L1504.6568056857636,41.88888389534423L1506.0171186234084,62.833333333333364L1509.2751067021122,20.944434457355094L1511.5848085394964,41.88888389534423L1512.6701919777197,62.833333333333364L1514.5671320131655,41.88888389534423L1518.772671227575,104.72223220931158L1519.7253681025752,20.944434457355094L1520.1322490596062,62.833333333333364L1521.2165298394095,-20.944439450899733L1523.3883993742766,62.833333333333364L1523.9305397641779,41.88888389534423L1524.610512456597,-41.88888888888891L1524.8799286639178,20.944434457355094L1525.1544906105323,0.000009987089359730916L1525.5591662507234,20.944434457355094L1530.3086836190682,0.000009987089359730916L1531.1257535083912,0.000009987089359730916L1531.256602307581,20.944434457355094L1532.2126071578411,62.833333333333364L1533.427001631221,62.833333333333364L1534.9244117657695,20.944434457355094L1536.1410115559895,20.944434457355094L1537.771843359375,20.944434457355094L1537.9001192889177,17.952377385563345" style="fill: none;" fill="none"></path></g></g></g></g></g></g><g transform="translate(41, 377)" clip-path="url(#clip_1)"><clipPath id="clip_1"><rect width="1587" height="23"></rect></clipPath><g><g><line x1="0" y1="0" x2="0" y2="5" style="visibility: inherit;" fill="rgb(0, 0, 0)" stroke="rgb(204, 204, 204)" stroke-width="1px"></line><line x1="132.31901041666666" y1="0" x2="132.31901041666666" y2="5" style="visibility: inherit;" fill="rgb(0, 0, 0)" stroke="rgb(204, 204, 204)" stroke-width="1px"></line><line x1="264.6380208333333" y1="0" x2="264.6380208333333" y2="5" style="visibility: inherit;" fill="rgb(0, 0, 0)" stroke="rgb(204, 204, 204)" stroke-width="1px"></line><line x1="396.95703125" y1="0" x2="396.95703125" y2="5" style="visibility: inherit;" fill="rgb(0, 0, 0)" stroke="rgb(204, 204, 204)" stroke-width="1px"></line><line x1="529.2760416666666" y1="0" x2="529.2760416666666" y2="5" style="visibility: inherit;" fill="rgb(0, 0, 0)" stroke="rgb(204, 204, 204)" stroke-width="1px"></line><line x1="661.5950520833333" y1="0" x2="661.5950520833333" y2="5" style="visibility: inherit;" fill="rgb(0, 0, 0)" stroke="rgb(204, 204, 204)" stroke-width="1px"></line><line x1="793.9140624999998" y1="0" x2="793.9140624999998" y2="5" style="visibility: inherit;" fill="rgb(0, 0, 0)" stroke="rgb(204, 204, 204)" stroke-width="1px"></line><line x1="926.2330729166665" y1="0" x2="926.2330729166665" y2="5" style="visibility: inherit;" fill="rgb(0, 0, 0)" stroke="rgb(204, 204, 204)" stroke-width="1px"></line><line x1="1058.552083333333" y1="0" x2="1058.552083333333" y2="5" style="visibility: inherit;" fill="rgb(0, 0, 0)" stroke="rgb(204, 204, 204)" stroke-width="1px"></line><line x1="1190.8710937499998" y1="0" x2="1190.8710937499998" y2="5" style="visibility: inherit;" fill="rgb(0, 0, 0)" stroke="rgb(204, 204, 204)" stroke-width="1px"></line><line x1="1323.1901041666665" y1="0" x2="1323.1901041666665" y2="5" style="visibility: inherit;" fill="rgb(0, 0, 0)" stroke="rgb(204, 204, 204)" stroke-width="1px"></line><line x1="1455.5091145833333" y1="0" x2="1455.5091145833333" y2="5" style="visibility: inherit;" fill="rgb(0, 0, 0)" stroke="rgb(204, 204, 204)" stroke-width="1px"></line><line x1="1587.828125" y1="0" x2="1587.828125" y2="5" style="visibility: inherit;" fill="rgb(0, 0, 0)" stroke="rgb(204, 204, 204)" stroke-width="1px"></line></g><g transform="translate(0, 8)"><text x="0" y="0" dx="0em" dy="0.95em" style="text-anchor: middle; visibility: hidden; font-family: Roboto, sans-serif; font-size: 12px; font-weight: 200;" fill="rgb(255, 255, 255)" stroke="none" stroke-width="1px">-0.1</text><text x="132.31901041666666" y="0" dx="0em" dy="0.95em" style="text-anchor: middle; visibility: inherit; font-family: Roboto, sans-serif; font-size: 12px; font-weight: 200;" fill="rgb(255, 255, 255)" stroke="none" stroke-width="1px">0</text><text x="264.6380208333333" y="0" dx="0em" dy="0.95em" style="text-anchor: middle; visibility: inherit; font-family: Roboto, sans-serif; font-size: 12px; font-weight: 200;" fill="rgb(255, 255, 255)" stroke="none" stroke-width="1px">0.1</text><text x="396.95703125" y="0" dx="0em" dy="0.95em" style="text-anchor: middle; visibility: inherit; font-family: Roboto, sans-serif; font-size: 12px; font-weight: 200;" fill="rgb(255, 255, 255)" stroke="none" stroke-width="1px">0.2</text><text x="529.2760416666666" y="0" dx="0em" dy="0.95em" style="text-anchor: middle; visibility: inherit; font-family: Roboto, sans-serif; font-size: 12px; font-weight: 200;" fill="rgb(255, 255, 255)" stroke="none" stroke-width="1px">0.3</text><text x="661.5950520833333" y="0" dx="0em" dy="0.95em" style="text-anchor: middle; visibility: inherit; font-family: Roboto, sans-serif; font-size: 12px; font-weight: 200;" fill="rgb(255, 255, 255)" stroke="none" stroke-width="1px">0.4</text><text x="793.9140624999998" y="0" dx="0em" dy="0.95em" style="text-anchor: middle; visibility: inherit; font-family: Roboto, sans-serif; font-size: 12px; font-weight: 200;" fill="rgb(255, 255, 255)" stroke="none" stroke-width="1px">0.5</text><text x="926.2330729166665" y="0" dx="0em" dy="0.95em" style="text-anchor: middle; visibility: inherit; font-family: Roboto, sans-serif; font-size: 12px; font-weight: 200;" fill="rgb(255, 255, 255)" stroke="none" stroke-width="1px">0.6</text><text x="1058.552083333333" y="0" dx="0em" dy="0.95em" style="text-anchor: middle; visibility: inherit; font-family: Roboto, sans-serif; font-size: 12px; font-weight: 200;" fill="rgb(255, 255, 255)" stroke="none" stroke-width="1px">0.7</text><text x="1190.8710937499998" y="0" dx="0em" dy="0.95em" style="text-anchor: middle; visibility: inherit; font-family: Roboto, sans-serif; font-size: 12px; font-weight: 200;" fill="rgb(255, 255, 255)" stroke="none" stroke-width="1px">0.8</text><text x="1323.1901041666665" y="0" dx="0em" dy="0.95em" style="text-anchor: middle; visibility: inherit; font-family: Roboto, sans-serif; font-size: 12px; font-weight: 200;" fill="rgb(255, 255, 255)" stroke="none" stroke-width="1px">0.9</text><text x="1455.5091145833333" y="0" dx="0em" dy="0.95em" style="text-anchor: middle; visibility: inherit; font-family: Roboto, sans-serif; font-size: 12px; font-weight: 200;" fill="rgb(255, 255, 255)" stroke="none" stroke-width="1px">1</text><text x="1587.828125" y="0" dx="0em" dy="0.95em" style="text-anchor: middle; visibility: hidden; font-family: Roboto, sans-serif; font-size: 12px; font-weight: 200;" fill="rgb(255, 255, 255)" stroke="none" stroke-width="1px">1.1</text></g><line x1="0" y1="0" x2="1587.828125" y2="0" fill="rgb(0, 0, 0)" stroke="rgb(204, 204, 204)" stroke-width="1px"></line></g></g></g></g></svg>